<?xml version="1.0" standalone="no"?>
<!DOCTYPE svg PUBLIC "-//W3C//DTD SVG 1.1//EN" "http://www.w3.org/Graphics/SVG/1.1/DTD/svg11.dtd" >
<svg xmlns="http://www.w3.org/2000/svg" xmlns:xlink="http://www.w3.org/1999/xlink" version="1.1">
<metadata>
Created by FontForge 20190801 at Fri Dec 18 15:27:47 2020
 By www-data
Copyright (C) 2015 TypoBrand LLC. www.atftype.com.
</metadata>
<defs>
<font id="fonnts_comHeadline_Gothic_ATF" horiz-adv-x="407" >
  <font-face 
    font-family="fonnts_comHeadline_Gothic_ATF"
    font-weight="400"
    font-stretch="semi-condensed"
    units-per-em="1000"
    panose-1="2 11 5 6 3 2 2 4 5 4"
    ascent="750"
    descent="-250"
    x-height="715"
    cap-height="715"
    bbox="-62 -257 1092 938"
    underline-thickness="50"
    underline-position="-100"
    unicode-range="U+0020-FB02"
  />
<missing-glyph horiz-adv-x="349" 
d="M0 0v715h349v-715h-349zM124 604v-493h102v493h-102z" />
    <glyph glyph-name=".notdef" horiz-adv-x="349" 
d="M0 0v715h349v-715h-349zM124 604v-493h102v493h-102z" />
    <glyph glyph-name=".null" horiz-adv-x="0" 
 />
    <glyph glyph-name="nonmarkingreturn" horiz-adv-x="333" 
 />
    <glyph glyph-name="space" unicode=" " horiz-adv-x="104" 
 />
    <glyph glyph-name="exclam" unicode="!" horiz-adv-x="192" 
d="M52 208l-31 507h150l-27 -507h-92zM31 0v146h133v-146h-133z" />
    <glyph glyph-name="quotedbl" unicode="&#x22;" horiz-adv-x="328" 
d="M29 715h133l-55 -281h-78v281zM194 715h131l-54 -281h-78z" />
    <glyph glyph-name="numbersign" unicode="#" horiz-adv-x="492" 
d="M358 715h98l-33 -172h54v-116h-75l-26 -138h52v-116h-74l-32 -173h-99l32 173h-89l-32 -173h-96l32 173h-56v116h77l26 138h-54v116h75l32 172h99l-33 -172h89zM214 427l-26 -138h89l26 138h-89z" />
    <glyph glyph-name="dollar" unicode="$" horiz-adv-x="388" 
d="M142 743h109v-60q55 -16 86 -64t30 -125h-129q0 73 -45 73q-34 0 -34 -44q0 -27 15 -46t50 -44l55 -40q92 -67 92 -174q0 -63 -32 -107.5t-88 -59.5v-82h-109v81q-124 29 -120 195h129q3 -80 46 -80q37 0 37 45q0 39 -50 76l-55 40q-62 44 -84.5 89t-20.5 98q2 63 34 107
t84 60v62z" />
    <glyph glyph-name="percent" unicode="%" horiz-adv-x="770" 
d="M164 300q-68 0 -107 36q-25 23 -35 58.5t-10 97.5v38q0 62 9.5 97.5t35.5 58.5q40 37 107 37t107 -37q25 -23 34.5 -58.5t9.5 -97.5v-38q0 -64 -9.5 -98.5t-34.5 -57.5q-38 -36 -107 -36zM139 552v-82q0 -40 4.5 -55t20.5 -15q15 0 19.5 15.5t4.5 54.5v82q0 39 -4.5 54.5
t-19.5 15.5q-16 0 -20.5 -15t-4.5 -55zM231 0l195 715h113l-196 -715h-112zM607 -8q-68 0 -107 36q-25 23 -35 58.5t-10 97.5v38q0 62 9.5 97.5t35.5 58.5q40 37 107 37t107 -37q25 -23 34.5 -58.5t9.5 -97.5v-38q0 -64 -9.5 -98.5t-34.5 -57.5q-38 -36 -107 -36zM582 244
v-82q0 -40 4.5 -55t20.5 -15q15 0 19.5 15.5t4.5 54.5v82q0 39 -4.5 54.5t-19.5 15.5q-16 0 -20.5 -15t-4.5 -55z" />
    <glyph glyph-name="ampersand" unicode="&#x26;" horiz-adv-x="447" 
d="M218 727q69 0 108 -47t39 -122q0 -54 -26 -100t-91 -102q21 -39 59 -115q15 38 18 100h114q0 -144 -67 -223q8 -15 62 -108v-10h-135l-15 26q-53 -38 -120 -38q-78 0 -119.5 51.5t-41.5 140.5q0 123 92 200q-45 83 -45 155q0 98 50 145t118 47zM228 127l-74 142
q-19 -37 -19 -80q0 -81 50 -81q22 0 43 19zM176 558q0 -37 22 -94q48 49 48 99q0 51 -34 51q-36 0 -36 -56z" />
    <glyph glyph-name="quotesingle" unicode="'" horiz-adv-x="165" 
d="M29 434v281h133l-55 -281h-78z" />
    <glyph glyph-name="parenleft" unicode="(" horiz-adv-x="240" 
d="M237 -82h-100q-49 60 -87 176t-38 248q0 135 37 249.5t88 179.5h100q-1 -4 -16.5 -41t-26 -68t-24 -81t-21 -111t-7.5 -126t7.5 -126t21 -110.5t24 -81t25.5 -68t17 -40.5z" />
    <glyph glyph-name="parenright" unicode=")" horiz-adv-x="240" 
d="M103 -82h-100q1 4 16.5 41t26 68t24 81t21 110.5t7.5 125.5q0 66 -7.5 127t-21 110.5t-24 81t-25.5 67t-17 41.5h100q51 -66 87.5 -179.5t36.5 -249.5q0 -132 -37.5 -249t-86.5 -175z" />
    <glyph glyph-name="asterisk" unicode="*" horiz-adv-x="329" 
d="M130 715h68l12 -106l88 17l19 -56l-77 -49l41 -98l-54 -35l-60 76l-63 -77l-52 35l38 95l-79 50l22 57l86 -16z" />
    <glyph glyph-name="plus" unicode="+" horiz-adv-x="482" 
d="M182 559h119v-205h166v-110h-166v-202h-119v202h-169v110h169v205z" />
    <glyph glyph-name="comma" unicode="," horiz-adv-x="176" 
d="M22 0v146h133v-139l-66 -142h-61l34 135h-40z" />
    <glyph glyph-name="hyphen" unicode="-" horiz-adv-x="208" 
d="M24 311v121h161v-121h-161z" />
    <glyph glyph-name="period" unicode="." horiz-adv-x="177" 
d="M22 0v146h133v-146h-133z" />
    <glyph glyph-name="slash" unicode="/" horiz-adv-x="318" 
d="M110 -82h-101l199 797h102z" />
    <glyph glyph-name="zero" unicode="0" horiz-adv-x="415" 
d="M207 -12q-87 0 -127 43q-28 30 -40.5 79.5t-12.5 152.5v189q0 103 12.5 152.5t40.5 79.5q41 43 127 43t127 -43q28 -31 41 -80.5t13 -151.5v-189q0 -103 -12.5 -153t-41.5 -79q-40 -43 -127 -43zM165 480v-245q0 -71 7 -98t35 -27q27 0 34.5 27.5t7.5 97.5v245
q0 70 -7.5 97.5t-34.5 27.5q-28 0 -35 -27t-7 -98z" />
    <glyph glyph-name="one" unicode="1" horiz-adv-x="273" 
d="M85 571h-88v78q107 25 140 70h85l-1 -73v-573l1 -73h-138l1 73v498z" />
    <glyph glyph-name="two" unicode="2" horiz-adv-x="389" 
d="M236 522q0 79 -37 79q-39 0 -39 -121h-135q-2 136 44 192t129 56t130 -50t47 -146q0 -70 -26 -141t-88 -160l-72 -106h177v-125h-349v110l110 150q109 150 109 262z" />
    <glyph glyph-name="three" unicode="3" horiz-adv-x="393" 
d="M11 217h140v-2q0 -29 1 -44.5t4.5 -30t12 -20.5t22.5 -6q26 0 32.5 24t6.5 83q-1 54 -16 71.5t-51 22.5l-29 3v116l39 2q30 2 42 19t12 67v4q0 75 -37 75q-38 0 -38 -80v-2h-134v2q0 111 53 161q45 45 121 45q73 0 118 -45q50 -50 50 -155v-3q0 -116 -78 -145v-5
q50 -15 69.5 -54.5t20.5 -111.5q0 -127 -51 -173q-47 -47 -129 -47q-81 0 -128 45q-53 50 -53 182v2z" />
    <glyph glyph-name="four" unicode="4" horiz-adv-x="389" 
d="M188 0l3 73v101h-182v109l188 432h130l-1 -73v-353h59v-115h-59v-101l1 -73h-139zM128 289h70l3 90q1 34 11 122h-3q-30 -77 -34 -87z" />
    <glyph glyph-name="five" unicode="5" horiz-adv-x="406" 
d="M195 -12q-75 0 -120 42q-54 51 -54 178v4h139v-4q0 -34 2 -52t11 -31t27 -13q28 0 34.5 26.5t6.5 96.5v9q0 27 -1 41t-5 33t-14.5 27.5t-27.5 8.5q-35 0 -53 -40h-109l7 401h321l-10 -125h-194l-3 -144q38 35 93 35q51 0 84 -30q56 -51 56 -207v-9q0 -147 -63 -204
q-48 -43 -127 -43z" />
    <glyph glyph-name="six" unicode="6" horiz-adv-x="403" 
d="M166 487v-86q38 44 89 44q44 0 77 -30q28 -26 39 -68.5t11 -115.5v-9q0 -78 -13 -120.5t-46 -71.5q-48 -42 -118 -42q-74 0 -120 41q-31 27 -44.5 77t-13.5 156v188q0 183 62 238q43 39 117 39q71 0 114 -41q53 -49 53 -166v-2h-136v2q0 24 -1.5 38.5t-10 28t-24.5 13.5
q-22 0 -28.5 -24.5t-6.5 -88.5zM208 314q-19 0 -30.5 -19t-11.5 -54q0 -39 1 -57.5t4.5 -37.5t11 -26t21.5 -7t22.5 6t12 20.5t4 26.5t0.5 37v48q0 63 -35 63z" />
    <glyph glyph-name="seven" unicode="7" horiz-adv-x="369" 
d="M196 0h-148q22 190 56 306.5t106 283.5h-197v125h337v-86q-38 -92 -54.5 -135t-40.5 -122.5t-37 -167t-22 -204.5z" />
    <glyph glyph-name="eight" unicode="8" horiz-adv-x="390" 
d="M200 -12q-76 0 -120 42q-59 57 -59 168v13q0 130 88 167v3q-78 39 -78 148v11q0 102 58 150q42 37 111 37t111 -37q58 -50 58 -150v-11q0 -109 -78 -148v-3q88 -38 88 -167v-13q0 -112 -60 -168q-44 -42 -119 -42zM200 106q27 0 33.5 21.5t6.5 78.5v8q0 21 -1 34.5
t-4.5 29t-12 23.5t-22.5 8t-22.5 -8t-12 -24t-4.5 -29t-1 -34v-8v-30.5t1.5 -23.5t3.5 -20.5t6.5 -13.5t11.5 -9.5t17 -2.5zM200 442q19 0 27.5 17t8.5 62v10q0 26 -1.5 40.5t-10 26.5t-24.5 12q-17 0 -25.5 -12t-10 -26t-1.5 -41v-10q0 -45 8.5 -62t28.5 -17z" />
    <glyph glyph-name="nine" unicode="9" horiz-adv-x="403" 
d="M237 228v86q-38 -44 -89 -44q-44 0 -77 30q-28 26 -39 68.5t-11 115.5v9q0 78 13 120.5t46 71.5q48 42 118 42q74 0 120 -41q31 -27 44.5 -77t13.5 -156v-188q0 -183 -62 -238q-43 -39 -117 -39q-71 0 -114 41q-53 49 -53 166v2h136v-2q0 -24 1.5 -38.5t10 -28
t24.5 -13.5q22 0 28.5 24.5t6.5 88.5zM195 400q19 0 30.5 19t11.5 54q0 39 -1 57.5t-4.5 38t-11 26.5t-21.5 7t-22.5 -6t-12 -20.5t-4 -26.5t-0.5 -37v-49q0 -63 35 -63z" />
    <glyph glyph-name="colon" unicode=":" horiz-adv-x="197" 
d="M32 0v146h133v-146h-133zM32 359v146h133v-146h-133z" />
    <glyph glyph-name="semicolon" unicode=";" horiz-adv-x="205" 
d="M36 359v146h133v-146h-133zM36 0v146h133v-139l-66 -142h-61l34 135h-40z" />
    <glyph glyph-name="less" unicode="&#x3c;" horiz-adv-x="482" 
d="M444 37l-417 226v74l417 227v-127l-204 -107l-53 -26v-9l53 -24l204 -107v-127z" />
    <glyph glyph-name="equal" unicode="=" horiz-adv-x="482" 
d="M32 470h417v-109h-417v109zM32 239h417v-110h-417v110z" />
    <glyph glyph-name="greater" unicode="&#x3e;" horiz-adv-x="482" 
d="M456 263l-417 -226v127l205 107l52 24v9l-52 26l-205 107v127l417 -227v-74z" />
    <glyph glyph-name="question" unicode="?" horiz-adv-x="356" 
d="M212 522v2q0 53 -13 67q-9 10 -24 10q-13 0 -22 -10q-16 -20 -16 -70v-2h-134v2q0 111 53 161q45 45 121 45q75 0 120 -45q53 -53 53 -156v-2q0 -201 -120 -223v-93h-106l-6 193q53 2 73.5 24t20.5 97zM109 0v146h133v-146h-133z" />
    <glyph glyph-name="at" unicode="@" horiz-adv-x="648" 
d="M263 120q-45 0 -71 45.5t-26 120.5q0 115 48 210.5t110 95.5q25 0 44 -18.5t26 -49.5h2l11 56h90l-54 -297q-7 -44 -7 -53q0 -27 24 -27q32 0 62.5 75t30.5 179q0 101 -51.5 157.5t-132.5 56.5q-101 0 -179 -95t-78 -263q0 -145 61 -211t157 -66q88 0 170 55l29 -68
q-41 -33 -96 -50.5t-107 -17.5q-61 0 -115.5 21.5t-100.5 64.5t-73 115.5t-27 166.5q0 101 31 185t81.5 137t112.5 81.5t127 28.5q126 0 200.5 -81.5t74.5 -221.5q0 -136 -57 -234t-143 -98q-77 0 -88 71q-33 -71 -86 -71zM298 218q18 0 29 16.5t24 61.5q22 90 22 148
q0 27 -9 40.5t-22 13.5q-28 0 -48.5 -78t-20.5 -143q0 -59 25 -59z" />
    <glyph glyph-name="A" unicode="A" horiz-adv-x="406" 
d="M143 102l-18 -102h-130l154 715h107l156 -715h-138l-18 102h-113zM187 354l-23 -133h72l-22 133q-3 17 -7 49.5t-5 37.5h-3q-1 -5 -5 -37.5t-7 -49.5z" />
    <glyph glyph-name="B" unicode="B" horiz-adv-x="393" 
d="M194 0h-163l1 73v569l-1 73h159q89 0 136.5 -48.5t47.5 -134.5v-2q0 -65 -21 -104.5t-77 -57.5v-4q105 -23 105 -154v-2q0 -112 -46 -160t-141 -48zM167 118h9q39 0 53.5 20.5t14.5 71.5v3q0 90 -66 90h-11v-185zM167 602v-177h13q63 0 63 93v3q0 40 -14.5 60.5
t-51.5 20.5h-10z" />
    <glyph glyph-name="C" unicode="C" horiz-adv-x="394" 
d="M204 -12q-81 0 -124 43q-53 53 -53 232v189q0 96 12.5 149.5t40.5 81.5q44 44 122 44q79 0 124 -43q52 -50 52 -203v-4h-134v6q0 39 -0.5 55.5t-4 35.5t-11.5 25t-22 6q-27 0 -34 -26.5t-7 -98.5v-245q0 -38 0.5 -55t4.5 -36.5t12.5 -26.5t23.5 -7q28 0 34 29.5t6 123.5
v6h134v-4q0 -101 -13.5 -153t-41.5 -81q-42 -43 -121 -43z" />
    <glyph glyph-name="D" unicode="D" horiz-adv-x="408" 
d="M193 715q80 0 126 -41q62 -54 62 -200v-233q0 -146 -62 -200q-46 -41 -126 -41h-162l1 73v569l-1 73h162zM185 595h-17v-475h17q20 0 32.5 8.5t18 26t7 33t1.5 41.5v257q0 26 -1 39.5t-6 32.5t-18 28t-34 9z" />
    <glyph glyph-name="E" unicode="E" horiz-adv-x="326" 
d="M283 298h-115v-175h146v-123h-283l1 73v569l-1 73h280v-121h-143v-160h115v-136z" />
    <glyph glyph-name="F" unicode="F" horiz-adv-x="313" 
d="M285 289h-117v-216l1 -73h-138l1 73v569l-1 73h276v-121h-139v-169h117v-136z" />
    <glyph glyph-name="G" unicode="G" horiz-adv-x="410" 
d="M317 30q-44 -42 -116 -42q-78 0 -121 43q-53 53 -53 232v189q0 178 53 231q44 44 123 44q80 0 122 -44q27 -25 40 -70t13 -132v-4h-134v6q0 40 -0.5 56.5t-4 35.5t-11.5 24.5t-22 5.5q-28 0 -34.5 -26t-6.5 -99v-245q0 -72 7 -98.5t34 -26.5t33.5 23t6.5 80v45h-46v115
h180v-373h-8l-53 30h-2z" />
    <glyph glyph-name="H" unicode="H" horiz-adv-x="414" 
d="M245 715h138l-1 -73v-569l1 -73h-138l1 73v227h-78v-227l1 -73h-138l1 73v569l-1 73h138l-1 -73v-205h78v205z" />
    <glyph glyph-name="I" unicode="I" horiz-adv-x="200" 
d="M31 715h138l-1 -73v-569l1 -73h-138l1 73v569z" />
    <glyph glyph-name="J" unicode="J" horiz-adv-x="382" 
d="M216 715h138l-1 -73v-464q0 -91 -43.5 -140.5t-121.5 -49.5q-83 0 -128.5 49.5t-45.5 140.5v47l-1 73h133l-1 -73v-51q0 -64 38 -64q33 0 33 64v541z" />
    <glyph glyph-name="K" unicode="K" horiz-adv-x="404" 
d="M257 715h136l-105 -326l118 -389h-145l-89 304h-4v-231l1 -73h-138l1 73v569l-1 73h138l-1 -73v-161q0 -43 -1 -63h4l18 58z" />
    <glyph glyph-name="L" unicode="L" horiz-adv-x="322" 
d="M313 0h-282l1 73v569l-1 73h138l-1 -73v-519h145v-123z" />
    <glyph glyph-name="M" unicode="M" horiz-adv-x="507" 
d="M245 156l-83 191h-5q2 -52 2 -94v-180l1 -73h-129l1 73v569l-1 73h101l119 -281h3l119 281h103l-1 -73v-569l1 -73h-136l1 73v180q0 42 2 94h-5l-84 -191h-9z" />
    <glyph glyph-name="N" unicode="N" horiz-adv-x="408" 
d="M31 0l1 73v569l-1 73h89l98 -240q8 -17 12.5 -29t8.5 -23.5t8 -21.5h4q-2 48 -2 84v157l-2 73h131l-2 -73v-569l2 -73h-86l-107 255q-6 13 -15 37t-10 26h-4q3 -35 3 -84v-161l1 -73h-129z" />
    <glyph glyph-name="O" unicode="O" horiz-adv-x="415" 
d="M207 -12q-87 0 -127 43q-28 30 -40.5 79.5t-12.5 152.5v189q0 103 12.5 152.5t40.5 79.5q41 43 127 43t127 -43q28 -31 41 -80.5t13 -151.5v-189q0 -103 -12.5 -153t-41.5 -79q-40 -43 -127 -43zM165 480v-245q0 -71 7 -98t35 -27q27 0 34.5 27.5t7.5 97.5v245
q0 70 -7.5 97.5t-34.5 27.5q-28 0 -35 -27t-7 -98z" />
    <glyph glyph-name="P" unicode="P" horiz-adv-x="384" 
d="M31 0l1 73v569l-1 73h171q56 0 92.5 -17t54 -50.5t24 -70t6.5 -89.5v-2q0 -52 -7 -89.5t-25.5 -70.5t-54.5 -50t-90 -17h-34v-186l1 -73h-138zM168 379h7q43 0 55.5 27.5t12.5 78.5v4q0 55 -14 80.5t-54 25.5h-7v-216z" />
    <glyph glyph-name="Q" unicode="Q" horiz-adv-x="415" 
d="M207 -12q-87 0 -127 43q-28 30 -40.5 79.5t-12.5 152.5v189q0 103 12.5 152.5t40.5 79.5q41 43 127 43t127 -43q28 -31 41 -80.5t13 -151.5v-189q0 -101 -14 -157q10 -20 27 -20v-126q-54 0 -88 54q-40 -26 -106 -26zM165 480v-245q0 -71 7 -98t35 -27q27 0 34.5 27.5
t7.5 97.5v245q0 70 -7.5 97.5t-34.5 27.5q-28 0 -35 -27t-7 -98z" />
    <glyph glyph-name="R" unicode="R" 
d="M168 598v-186h11q36 0 50 23t14 68v3q0 92 -63 92h-12zM178 288h-10v-215l1 -73h-138l1 73v569l-1 73h153q196 0 196 -195v-2q0 -86 -24.5 -121t-71.5 -49v-5q40 -11 67 -44t28 -112q1 -117 16 -172v-15h-135q-12 38 -15 77.5t-5 131.5q-2 79 -62 79z" />
    <glyph glyph-name="S" unicode="S" horiz-adv-x="373" 
d="M11 212h135q0 -98 45 -98q37 0 37 58q0 71 -58 115l-46 35q-57 43 -82.5 91t-25.5 116q0 95 48.5 147t130.5 52q168 0 164 -219h-131q0 92 -38 92q-41 0 -41 -60q0 -59 58 -102l51 -38q52 -38 78.5 -83.5t26.5 -122.5q0 -102 -47.5 -155t-130.5 -53t-129.5 55t-44.5 170z
" />
    <glyph glyph-name="T" unicode="T" horiz-adv-x="346" 
d="M337 594h-95v-521l1 -73h-138l1 73v521h-97v121h328v-121z" />
    <glyph glyph-name="U" unicode="U" 
d="M241 715h138l-1 -73v-464q0 -91 -46.5 -140.5t-128.5 -49.5q-83 0 -128.5 49.5t-45.5 140.5v464l-1 73h138l-1 -73v-468q0 -64 38 -64t38 64v541z" />
    <glyph glyph-name="V" unicode="V" horiz-adv-x="382" 
d="M136 0l-136 715h133l48 -314q3 -17 7 -49.5t5 -37.5h3q1 5 5 37.5t7 49.5l49 314h125l-139 -715h-107z" />
    <glyph glyph-name="W" unicode="W" horiz-adv-x="533" 
d="M219 715h91l44 -287q2 -12 9 -74h4q3 38 8 74l38 287h123l-123 -715h-101l-32 221l-13 100h-5l-13 -100l-32 -221h-101l-118 715h125l38 -287l8 -74h4l9 74z" />
    <glyph glyph-name="X" unicode="X" horiz-adv-x="386" 
d="M193 225h-3l-20 -80l-39 -145h-134l117 366l-110 349h133l40 -140q12 -44 16 -68h3q4 24 16 68l40 140h130l-114 -349l121 -366h-143l-34 145q-3 12 -9.5 39.5t-9.5 40.5z" />
    <glyph glyph-name="Y" unicode="Y" horiz-adv-x="378" 
d="M185 463h4q5 26 16 71l40 181h133l-123 -429v-213l1 -73h-138l1 73v213l-119 429h136l35 -181q12 -60 14 -71z" />
    <glyph glyph-name="Z" unicode="Z" horiz-adv-x="314" 
d="M299 123v-123h-289v80l138 512h-122v123h273v-80l-137 -512h137z" />
    <glyph glyph-name="bracketleft" unicode="[" horiz-adv-x="233" 
d="M221 -82h-190v853h190v-82h-65v-689h65v-82z" />
    <glyph glyph-name="backslash" unicode="\" horiz-adv-x="318" 
d="M310 -82h-102l-199 797h102z" />
    <glyph glyph-name="bracketright" unicode="]" horiz-adv-x="234" 
d="M14 -82v82h65v689h-65v82h189v-853h-189z" />
    <glyph glyph-name="asciicircum" unicode="^" horiz-adv-x="482" 
d="M203 715h76l197 -430h-131l-78 187l-23 75h-7l-22 -75l-77 -187h-134z" />
    <glyph glyph-name="underscore" unicode="_" horiz-adv-x="332" 
d="M-7 -122v102h346v-102h-346z" />
    <glyph glyph-name="grave" unicode="`" horiz-adv-x="289" 
d="M217 745h-85l-99 105h125z" />
    <glyph glyph-name="a" unicode="a" horiz-adv-x="406" 
d="M143 102l-18 -102h-130l154 715h107l156 -715h-138l-18 102h-113zM187 354l-23 -133h72l-22 133q-3 17 -7 49.5t-5 37.5h-3q-1 -5 -5 -37.5t-7 -49.5z" />
    <glyph glyph-name="b" unicode="b" horiz-adv-x="393" 
d="M194 0h-163l1 73v569l-1 73h159q89 0 136.5 -48.5t47.5 -134.5v-2q0 -65 -21 -104.5t-77 -57.5v-4q105 -23 105 -154v-2q0 -112 -46 -160t-141 -48zM167 118h9q39 0 53.5 20.5t14.5 71.5v3q0 90 -66 90h-11v-185zM167 602v-177h13q63 0 63 93v3q0 40 -14.5 60.5
t-51.5 20.5h-10z" />
    <glyph glyph-name="c" unicode="c" horiz-adv-x="394" 
d="M204 -12q-81 0 -124 43q-53 53 -53 232v189q0 96 12.5 149.5t40.5 81.5q44 44 122 44q79 0 124 -43q52 -50 52 -203v-4h-134v6q0 39 -0.5 55.5t-4 35.5t-11.5 25t-22 6q-27 0 -34 -26.5t-7 -98.5v-245q0 -38 0.5 -55t4.5 -36.5t12.5 -26.5t23.5 -7q28 0 34 29.5t6 123.5
v6h134v-4q0 -101 -13.5 -153t-41.5 -81q-42 -43 -121 -43z" />
    <glyph glyph-name="d" unicode="d" horiz-adv-x="408" 
d="M193 715q80 0 126 -41q62 -54 62 -200v-233q0 -146 -62 -200q-46 -41 -126 -41h-162l1 73v569l-1 73h162zM185 595h-17v-475h17q20 0 32.5 8.5t18 26t7 33t1.5 41.5v257q0 26 -1 39.5t-6 32.5t-18 28t-34 9z" />
    <glyph glyph-name="e" unicode="e" horiz-adv-x="326" 
d="M283 298h-115v-175h146v-123h-283l1 73v569l-1 73h280v-121h-143v-160h115v-136z" />
    <glyph glyph-name="f" unicode="f" horiz-adv-x="313" 
d="M285 289h-117v-216l1 -73h-138l1 73v569l-1 73h276v-121h-139v-169h117v-136z" />
    <glyph glyph-name="g" unicode="g" horiz-adv-x="410" 
d="M317 30q-44 -42 -116 -42q-78 0 -121 43q-53 53 -53 232v189q0 178 53 231q44 44 123 44q80 0 122 -44q27 -25 40 -70t13 -132v-4h-134v6q0 40 -0.5 56.5t-4 35.5t-11.5 24.5t-22 5.5q-28 0 -34.5 -26t-6.5 -99v-245q0 -72 7 -98.5t34 -26.5t33.5 23t6.5 80v45h-46v115
h180v-373h-8l-53 30h-2z" />
    <glyph glyph-name="h" unicode="h" horiz-adv-x="414" 
d="M245 715h138l-1 -73v-569l1 -73h-138l1 73v227h-78v-227l1 -73h-138l1 73v569l-1 73h138l-1 -73v-205h78v205z" />
    <glyph glyph-name="i" unicode="i" horiz-adv-x="200" 
d="M31 715h138l-1 -73v-569l1 -73h-138l1 73v569z" />
    <glyph glyph-name="j" unicode="j" horiz-adv-x="382" 
d="M216 715h138l-1 -73v-464q0 -91 -43.5 -140.5t-121.5 -49.5q-83 0 -128.5 49.5t-45.5 140.5v47l-1 73h133l-1 -73v-51q0 -64 38 -64q33 0 33 64v541z" />
    <glyph glyph-name="k" unicode="k" horiz-adv-x="404" 
d="M257 715h136l-105 -326l118 -389h-145l-89 304h-4v-231l1 -73h-138l1 73v569l-1 73h138l-1 -73v-161q0 -43 -1 -63h4l18 58z" />
    <glyph glyph-name="l" unicode="l" horiz-adv-x="322" 
d="M313 0h-282l1 73v569l-1 73h138l-1 -73v-519h145v-123z" />
    <glyph glyph-name="m" unicode="m" horiz-adv-x="507" 
d="M245 156l-83 191h-5q2 -52 2 -94v-180l1 -73h-129l1 73v569l-1 73h101l119 -281h3l119 281h103l-1 -73v-569l1 -73h-136l1 73v180q0 42 2 94h-5l-84 -191h-9z" />
    <glyph glyph-name="n" unicode="n" horiz-adv-x="408" 
d="M31 0l1 73v569l-1 73h89l98 -240q8 -17 12.5 -29t8.5 -23.5t8 -21.5h4q-2 48 -2 84v157l-2 73h131l-2 -73v-569l2 -73h-86l-107 255q-6 13 -15 37t-10 26h-4q3 -35 3 -84v-161l1 -73h-129z" />
    <glyph glyph-name="o" unicode="o" horiz-adv-x="415" 
d="M207 -12q-87 0 -127 43q-28 30 -40.5 79.5t-12.5 152.5v189q0 103 12.5 152.5t40.5 79.5q41 43 127 43t127 -43q28 -31 41 -80.5t13 -151.5v-189q0 -103 -12.5 -153t-41.5 -79q-40 -43 -127 -43zM165 480v-245q0 -71 7 -98t35 -27q27 0 34.5 27.5t7.5 97.5v245
q0 70 -7.5 97.5t-34.5 27.5q-28 0 -35 -27t-7 -98z" />
    <glyph glyph-name="p" unicode="p" horiz-adv-x="384" 
d="M31 0l1 73v569l-1 73h171q56 0 92.5 -17t54 -50.5t24 -70t6.5 -89.5v-2q0 -52 -7 -89.5t-25.5 -70.5t-54.5 -50t-90 -17h-34v-186l1 -73h-138zM168 379h7q43 0 55.5 27.5t12.5 78.5v4q0 55 -14 80.5t-54 25.5h-7v-216z" />
    <glyph glyph-name="q" unicode="q" horiz-adv-x="415" 
d="M207 -12q-87 0 -127 43q-28 30 -40.5 79.5t-12.5 152.5v189q0 103 12.5 152.5t40.5 79.5q41 43 127 43t127 -43q28 -31 41 -80.5t13 -151.5v-189q0 -101 -14 -157q10 -20 27 -20v-126q-54 0 -88 54q-40 -26 -106 -26zM165 480v-245q0 -71 7 -98t35 -27q27 0 34.5 27.5
t7.5 97.5v245q0 70 -7.5 97.5t-34.5 27.5q-28 0 -35 -27t-7 -98z" />
    <glyph glyph-name="r" unicode="r" 
d="M168 598v-186h11q36 0 50 23t14 68v3q0 92 -63 92h-12zM178 288h-10v-215l1 -73h-138l1 73v569l-1 73h153q196 0 196 -195v-2q0 -86 -24.5 -121t-71.5 -49v-5q40 -11 67 -44t28 -112q1 -117 16 -172v-15h-135q-12 38 -15 77.5t-5 131.5q-2 79 -62 79z" />
    <glyph glyph-name="s" unicode="s" horiz-adv-x="373" 
d="M11 212h135q0 -98 45 -98q37 0 37 58q0 71 -58 115l-46 35q-57 43 -82.5 91t-25.5 116q0 95 48.5 147t130.5 52q168 0 164 -219h-131q0 92 -38 92q-41 0 -41 -60q0 -59 58 -102l51 -38q52 -38 78.5 -83.5t26.5 -122.5q0 -102 -47.5 -155t-130.5 -53t-129.5 55t-44.5 170z
" />
    <glyph glyph-name="t" unicode="t" horiz-adv-x="346" 
d="M337 594h-95v-521l1 -73h-138l1 73v521h-97v121h328v-121z" />
    <glyph glyph-name="u" unicode="u" 
d="M241 715h138l-1 -73v-464q0 -91 -46.5 -140.5t-128.5 -49.5q-83 0 -128.5 49.5t-45.5 140.5v464l-1 73h138l-1 -73v-468q0 -64 38 -64t38 64v541z" />
    <glyph glyph-name="v" unicode="v" horiz-adv-x="382" 
d="M136 0l-136 715h133l48 -314q3 -17 7 -49.5t5 -37.5h3q1 5 5 37.5t7 49.5l49 314h125l-139 -715h-107z" />
    <glyph glyph-name="w" unicode="w" horiz-adv-x="533" 
d="M219 715h91l44 -287q2 -12 9 -74h4q3 38 8 74l38 287h123l-123 -715h-101l-32 221l-13 100h-5l-13 -100l-32 -221h-101l-118 715h125l38 -287l8 -74h4l9 74z" />
    <glyph glyph-name="x" unicode="x" horiz-adv-x="386" 
d="M193 225h-3l-20 -80l-39 -145h-134l117 366l-110 349h133l40 -140q12 -44 16 -68h3q4 24 16 68l40 140h130l-114 -349l121 -366h-143l-34 145q-3 12 -9.5 39.5t-9.5 40.5z" />
    <glyph glyph-name="y" unicode="y" horiz-adv-x="378" 
d="M185 463h4q5 26 16 71l40 181h133l-123 -429v-213l1 -73h-138l1 73v213l-119 429h136l35 -181q12 -60 14 -71z" />
    <glyph glyph-name="z" unicode="z" horiz-adv-x="314" 
d="M299 123v-123h-289v80l138 512h-122v123h273v-80l-137 -512h137z" />
    <glyph glyph-name="braceleft" unicode="{" horiz-adv-x="272" 
d="M83 503v131q0 74 41 105.5t103 31.5h33v-81h-1q-32 0 -41.5 -14.5t-9.5 -52.5v-134q-1 -54 -29.5 -87.5t-70.5 -37.5v-10q42 -4 71 -38t29 -88v-162q0 -41 9 -53.5t42 -12.5h1v-82h-33q-62 0 -103 31.5t-41 106.5v157q0 98 -55 98h-21v94h21q55 0 55 98z" />
    <glyph glyph-name="bar" unicode="|" horiz-adv-x="362" 
d="M114 840h134v-1000h-134v1000z" />
    <glyph glyph-name="braceright" unicode="}" horiz-adv-x="272" 
d="M66 489v134q0 38 -9.5 52.5t-41.5 14.5h-2v81h33q62 0 103 -31.5t41 -105.5v-131q0 -98 56 -98h21v-94h-21q-56 0 -56 -98v-157q0 -75 -40.5 -106.5t-103.5 -31.5h-33v82h2q32 0 41.5 12.5t9.5 53.5v162q0 54 28.5 88t70.5 38v10q-42 4 -70 37.5t-29 87.5z" />
    <glyph glyph-name="asciitilde" unicode="~" horiz-adv-x="482" 
d="M40 209q0 98 36.5 144.5t92.5 46.5q51 0 91 -45l17 -20q21 -23 32 -23q26 0 26 77h107q0 -98 -37 -144.5t-93 -46.5q-55 0 -90 44l-18 21q-17 24 -32 24q-26 0 -26 -78h-106z" />
    <glyph glyph-name="uni00A0" unicode="&#xa0;" horiz-adv-x="104" 
 />
    <glyph glyph-name="exclamdown" unicode="&#xa1;" horiz-adv-x="192" 
d="M140 507l31 -507h-150l27 507h92zM161 715v-146h-133v146h133z" />
    <glyph glyph-name="cent" unicode="&#xa2;" horiz-adv-x="349" 
d="M148 -104h-101l28 120q-30 20 -44.5 62t-16 70t-1.5 83v78q0 81 9.5 127.5t36.5 74.5q39 40 116 40h13l19 74h101l-26 -109q2 -1 6 -5q45 -45 45 -176v-3h-131v14q0 51 -4.5 69.5t-22.5 18.5q-19 0 -23.5 -17.5t-4.5 -77.5v-136q0 -61 4 -78.5t24 -17.5q19 0 23.5 20.5
t4.5 72.5v16h132v-6q0 -133 -47 -180q-39 -40 -113 -40h-5z" />
    <glyph glyph-name="sterling" unicode="&#xa3;" horiz-adv-x="438" 
d="M20 318v101h51q-17 68 -17 121q0 94 47 140.5t119 46.5q81 0 126.5 -56t44.5 -143h-133q-2 26 -4 40t-9.5 27t-20.5 13q-16 0 -23.5 -11.5t-7.5 -44.5q0 -54 23 -133h127v-101h-99q7 -40 7 -68q0 -63 -22 -119q11 -16 30 -16q24 0 32 22.5t8 84.5h126
q0 -111 -44.5 -172.5t-117.5 -61.5q-64 0 -104 52q-54 -40 -139 -40v132q49 0 70.5 18.5t21.5 74.5q0 37 -14 93h-78z" />
    <glyph glyph-name="currency" unicode="&#xa4;" horiz-adv-x="404" 
d="M17 0l41 137q-21 29 -29.5 79t-8.5 142q0 97 10 147.5t34 79.5l-40 130h132l17 -76q29 3 60 0l16 76h132l-41 -128q26 -29 36 -79t10 -151q0 -95 -9 -145t-32 -79l41 -133h-137l-18 75q-26 -3 -63 1l-17 -76h-134zM203 200q25 0 30.5 24t5.5 100v68q0 42 -0.5 59t-4 35.5
t-11 23.5t-20.5 5t-20 -5t-10.5 -23.5t-4 -35.5t-0.5 -59v-68q0 -42 0.5 -59t4 -35.5t10.5 -24t20 -5.5z" />
    <glyph glyph-name="yen" unicode="&#xa5;" horiz-adv-x="447" 
d="M18 392v84h85l-66 239h136l35 -181q14 -68 14 -71h4q5 26 16 71l40 181h133l-69 -239h84v-84h-108l-13 -47h121v-83h-138v-189l1 -73h-138l1 73v189h-138v83h121l-13 47h-108z" />
    <glyph glyph-name="brokenbar" unicode="&#xa6;" horiz-adv-x="362" 
d="M114 766h134v-351h-134v351zM114 266h134v-351h-134v351z" />
    <glyph glyph-name="section" unicode="&#xa7;" horiz-adv-x="494" 
d="M483 234q0 -105 -97 -140q36 -48 36 -103q0 -70 -46.5 -115t-125.5 -45q-83 0 -134.5 45.5t-52.5 141.5h128q13 -68 58 -68q18 0 28 11.5t10 26.5q0 31 -41 61l-99 72q-73 53 -104.5 99.5t-31.5 103.5q0 105 96 140q-35 49 -35 103q0 70 46.5 115t125.5 45
q83 0 134.5 -45.5t52.5 -141.5h-128q-13 68 -58 68q-18 0 -28 -11.5t-10 -26.5q0 -31 41 -61l99 -72q73 -53 104.5 -99.5t31.5 -103.5zM278 323q-50 37 -90 65q-15 11 -16 12q-29 -19 -29 -59q0 -59 73 -106l105 -77q30 17 30 59q0 59 -73 106z" />
    <glyph glyph-name="dieresis" unicode="&#xa8;" horiz-adv-x="289" 
d="M20 745v105h103v-105h-103zM164 745v105h103v-105h-103z" />
    <glyph glyph-name="copyright" unicode="&#xa9;" horiz-adv-x="711" 
d="M11 357q0 180 90.5 296t253.5 116q164 0 254.5 -116.5t90.5 -295.5t-90.5 -295.5t-254.5 -116.5q-163 0 -253.5 116t-90.5 296zM101 357q0 -148 67 -240.5t186 -92.5q120 0 188 92.5t68 240.5t-68 240.5t-188 92.5q-119 0 -186 -92.5t-67 -240.5zM353 97q-66 0 -102 36
q-47 44 -47 178v94q0 134 47 178q38 36 100 36q66 0 104 -36q49 -45 49 -163v-3h-104v3q0 28 -1 43t-5.5 31t-14 23t-25.5 7q-29 0 -37.5 -24.5t-8.5 -73.5v-137q0 -24 1 -37t5 -29t14 -23.5t26 -7.5q17 0 27 7.5t14 25t5 33t1 44.5v8h104v-3q0 -127 -48 -175
q-37 -35 -104 -35z" />
    <glyph glyph-name="ordfeminine" unicode="&#xaa;" horiz-adv-x="300" 
d="M16 540q5 65 39 102t99 37q128 0 128 -141v-231q0 -25 4 -55h-112q-2 28 -2 40h-3q-23 -25 -40 -35t-39 -10q-39 0 -62.5 28t-23.5 81q0 45 21.5 76t78.5 63q29 16 67 30v25q0 41 -21 41q-24 0 -26 -51h-108zM139 341q18 0 32 18v92q-20 -12 -26 -18q-29 -27 -29 -62
q0 -30 23 -30z" />
    <glyph glyph-name="guillemotleft" unicode="&#xab;" horiz-adv-x="399" 
d="M201 203h-101l-89 159v29l88 157h102l-66 -173zM381 203h-101l-88 159v29l87 157h102l-67 -173z" />
    <glyph glyph-name="logicalnot" unicode="&#xac;" horiz-adv-x="482" 
d="M20 470h429v-341h-123v231h-306v110z" />
    <glyph glyph-name="registered" unicode="&#xae;" horiz-adv-x="331" 
d="M13 560q0 76 41 125t111 49t111 -49t41 -125q0 -77 -41 -125.5t-111 -48.5q-71 0 -111.5 48.5t-40.5 125.5zM53 560q0 -62 30 -99.5t82 -37.5t81.5 37.5t29.5 99.5q0 60 -29.5 98t-81.5 38t-82 -38t-30 -98zM165 535h-17v-76h-46v205h60q73 0 73 -66v-1q0 -34 -27 -50
l29 -88h-46zM148 623v-48h16q26 0 26 24v1q0 23 -26 23h-16z" />
    <glyph glyph-name="macron" unicode="&#xaf;" horiz-adv-x="289" 
d="M242 753h-194v92h194v-92z" />
    <glyph glyph-name="degree" unicode="&#xb0;" horiz-adv-x="312" 
d="M156 334q-62 0 -98 33q-23 22 -31.5 54t-8.5 96v21q0 64 8.5 96t31.5 54q37 35 98 35q62 0 99 -35q23 -22 31.5 -54t8.5 -96v-21q0 -63 -8.5 -95.5t-31.5 -54.5q-38 -33 -99 -33zM130 558v-60q0 -21 0.5 -30.5t3 -22t8 -17t15.5 -4.5q9 0 15 4.5t8 17t2.5 22t0.5 30.5v60
q0 21 -0.5 30.5t-2.5 22t-8 17t-15 4.5q-10 0 -15.5 -4.5t-8 -17t-3 -22t-0.5 -30.5z" />
    <glyph glyph-name="plusminus" unicode="&#xb1;" horiz-adv-x="482" 
d="M42 315v109h139v159h121v-159h137v-109h-137v-162h-121v162h-139zM42 0v109h397v-109h-397z" />
    <glyph glyph-name="two.superior" unicode="&#xb2;" horiz-adv-x="286" 
d="M276 588v-1q0 -45 -19 -84t-67 -94l-46 -51h128v-97h-263v90l66 85q7 9 23 29t23 28.5t18 24.5t16 26t9 22.5t4 23.5v1q0 42 -23 42q-29 0 -29 -68v-2h-105v1q0 80 37 119t101 39t95.5 -36t31.5 -98z" />
    <glyph glyph-name="three.superior" unicode="&#xb3;" horiz-adv-x="292" 
d="M6 409h108v-1q0 -34 4.5 -49.5t22.5 -15.5q13 0 19.5 9t7.5 18.5t1 27.5v2q0 27 -8 37t-28 10h-28v97h27q17 0 24 9t7 34v1q0 23 -4 34t-20 11q-24 0 -24 -59v-1h-104v1q0 82 37 116q36 32 98 32q56 0 90 -29q36 -32 36 -98v-1q0 -65 -50 -92v-2q61 -25 61 -108v-2
q0 -71 -39 -104q-37 -33 -100 -33q-65 0 -99 32q-39 36 -39 123v1z" />
    <glyph glyph-name="acute" unicode="&#xb4;" horiz-adv-x="289" 
d="M157 745h-87l63 105h121z" />
    <glyph glyph-name="mu" unicode="&#xb5;" horiz-adv-x="352" 
d="M27 -164v631l-1 73h123l-1 -73v-331q0 -22 4 -26q6 -7 13 -7q13 0 38 17v347l-1 73h121l-1 -73v-394l1 -73h-116v59h-2q-47 -58 -78 -58h-8v-1q8 -15 8 -51v-40l1 -73h-101z" />
    <glyph glyph-name="mu" unicode="&#x3bc;" horiz-adv-x="352" 
d="M27 -164v631l-1 73h123l-1 -73v-331q0 -22 4 -26q6 -7 13 -7q13 0 38 17v347l-1 73h121l-1 -73v-394l1 -73h-116v59h-2q-47 -58 -78 -58h-8v-1q8 -15 8 -51v-40l1 -73h-101z" />
    <glyph glyph-name="paragraph" unicode="&#xb6;" horiz-adv-x="563" 
d="M203 715h328l-1 -73v-733l1 -73h-122l1 73v693h-68v-693l1 -73h-124l1 73v370h-23q-104 0 -145.5 58t-41.5 159v2q0 101 43 159t150 58zM205 393h15v209h-15q-60 0 -60 -103v-4q0 -102 60 -102z" />
    <glyph glyph-name="periodcentered" unicode="&#xb7;" horiz-adv-x="231" 
d="M41 377h149v-154h-149v154z" />
    <glyph glyph-name="cedilla" unicode="&#xb8;" horiz-adv-x="289" 
d="M113 21h78l-12 -51q55 -13 55 -61q0 -70 -116 -70q-30 0 -59 9v58q27 -9 52 -9q38 0 38 21q0 23 -52 23z" />
    <glyph glyph-name="one.superior" unicode="&#xb9;" horiz-adv-x="209" 
d="M65 574h-65v62q84 30 105 81h71v-456h-111v313z" />
    <glyph glyph-name="ordmasculine" unicode="&#xba;" horiz-adv-x="296" 
d="M147 244q-64 0 -97 33q-23 21 -30.5 55t-7.5 94v70q0 110 39 150q34 33 96 33q66 0 99 -33q23 -23 30.5 -56.5t7.5 -93.5v-70q0 -60 -7.5 -94t-30.5 -55q-33 -33 -99 -33zM123 522v-123q0 -19 0.5 -27.5t2.5 -18t7 -13t14 -3.5q17 0 21 13t4 49v123q0 25 -1 35.5
t-6.5 18.5t-17.5 8q-16 0 -20 -13t-4 -49z" />
    <glyph glyph-name="guillemotright" unicode="&#xbb;" horiz-adv-x="399" 
d="M299 203h-100l65 172l-65 173h102l87 -157v-29zM120 203h-102l67 172l-67 173h103l87 -157v-29z" />
    <glyph glyph-name="onequarter" unicode="&#xbc;" horiz-adv-x="646" 
d="M65 574h-65v62q84 30 105 81h71v-456h-111v313zM147 0l180 715h100l-179 -715h-101zM483 0l1 84h-144v99l132 271h121v-277h50v-93h-50v-84h-110zM427 177h56l2 36q2 37 9 98h-4q-24 -59 -32 -74z" />
    <glyph glyph-name="onehalf" unicode="&#xbd;" horiz-adv-x="653" 
d="M65 574h-65v62q84 30 105 81h71v-456h-111v313zM147 0l180 715h100l-179 -715h-101zM643 327v-1q0 -45 -19 -84t-67 -94l-46 -51h128v-97h-263v90l66 85q7 9 23 29t23 28.5t18 24.5t16 26t9 22.5t4 23.5v1q0 42 -23 42q-29 0 -29 -68v-2h-105v1q0 80 37 119t101 39
t95.5 -36t31.5 -98z" />
    <glyph glyph-name="threequarters" unicode="&#xbe;" horiz-adv-x="729" 
d="M6 409h108v-1q0 -34 4.5 -49.5t22.5 -15.5q13 0 19.5 9t7.5 18.5t1 27.5v2q0 27 -8 37t-28 10h-28v97h27q17 0 24 9t7 34v1q0 23 -4 34t-20 11q-24 0 -24 -59v-1h-104v1q0 82 37 116q36 32 98 32q56 0 90 -29q36 -32 36 -98v-1q0 -65 -50 -92v-2q61 -25 61 -108v-2
q0 -71 -39 -104q-37 -33 -100 -33q-65 0 -99 32q-39 36 -39 123v1zM230 0l180 715h100l-179 -715h-101zM566 0l1 84h-144v99l132 271h121v-277h50v-93h-50v-84h-110zM510 177h56l2 36q2 37 9 98h-4q-24 -59 -32 -74z" />
    <glyph glyph-name="questiondown" unicode="&#xbf;" horiz-adv-x="356" 
d="M144 193v-2q0 -53 13 -67q9 -10 24 -10q13 0 22 10q16 20 16 70v2h134v-2q0 -111 -53 -161q-45 -45 -121 -45q-75 0 -120 45q-53 53 -53 156v2q0 201 120 223v93h106l6 -193q-53 -2 -73.5 -24t-20.5 -97zM247 715v-146h-133v146h133z" />
    <glyph glyph-name="Agrave" unicode="&#xc0;" horiz-adv-x="406" 
d="M143 102l-18 -102h-130l154 715h107l156 -715h-138l-18 102h-113zM187 354l-23 -133h72l-22 133q-3 17 -7 49.5t-5 37.5h-3q-1 -5 -5 -37.5t-7 -49.5zM274 745h-85l-99 105h125z" />
    <glyph glyph-name="Aacute" unicode="&#xc1;" horiz-adv-x="406" 
d="M143 102l-18 -102h-130l154 715h107l156 -715h-138l-18 102h-113zM187 354l-23 -133h72l-22 133q-3 17 -7 49.5t-5 37.5h-3q-1 -5 -5 -37.5t-7 -49.5zM214 745h-87l63 105h121z" />
    <glyph glyph-name="Acircumflex" unicode="&#xc2;" horiz-adv-x="406" 
d="M143 102l-18 -102h-130l154 715h107l156 -715h-138l-18 102h-113zM187 354l-23 -133h72l-22 133q-3 17 -7 49.5t-5 37.5h-3q-1 -5 -5 -37.5t-7 -49.5zM322 745h-70l-51 41l-51 -41h-70l65 105h113z" />
    <glyph glyph-name="Atilde" unicode="&#xc3;" horiz-adv-x="406" 
d="M143 102l-18 -102h-130l154 715h107l156 -715h-138l-18 102h-113zM187 354l-23 -133h72l-22 133q-3 17 -7 49.5t-5 37.5h-3q-1 -5 -5 -37.5t-7 -49.5zM319 850v-68q-36 -44 -83 -44q-21 0 -45 19.5t-39 19.5q-19 0 -59 -32h-8v69q38 44 84 44q20 0 44.5 -19.5t39.5 -19.5
q19 0 58 31h8z" />
    <glyph glyph-name="Adieresis" unicode="&#xc4;" horiz-adv-x="406" 
d="M143 102l-18 -102h-130l154 715h107l156 -715h-138l-18 102h-113zM187 354l-23 -133h72l-22 133q-3 17 -7 49.5t-5 37.5h-3q-1 -5 -5 -37.5t-7 -49.5zM77 745v105h103v-105h-103zM221 745v105h103v-105h-103z" />
    <glyph glyph-name="Aring" unicode="&#xc5;" horiz-adv-x="406" 
d="M143 102l-18 -102h-130l154 715h107l156 -715h-138l-18 102h-113zM187 354l-23 -133h72l-22 133q-3 17 -7 49.5t-5 37.5h-3q-1 -5 -5 -37.5t-7 -49.5zM294 819q0 -35 -25 -60t-68 -25q-44 0 -68.5 25t-24.5 60q0 37 24.5 63t68.5 26q43 0 68 -26t25 -63zM231 819
q0 14 -8 24t-22 10q-15 0 -23 -10t-8 -24q0 -12 8 -20.5t23 -8.5q14 0 22 8.5t8 20.5z" />
    <glyph glyph-name="AE" unicode="&#xc6;" horiz-adv-x="565" 
d="M155 123l-30 -123h-134l203 715h356v-121h-143v-160h115v-136h-115v-175h146v-123h-283l1 73v50h-116zM236 455l-52 -213h87v353h-7q-11 -69 -28 -140z" />
    <glyph glyph-name="Ccedilla" unicode="&#xc7;" horiz-adv-x="394" 
d="M325 31q-32 -34 -87 -41l-4 -20q55 -13 55 -61q0 -70 -116 -70q-30 0 -59 9v58q27 -9 52 -9q38 0 38 21q0 23 -52 23l10 51q-54 9 -82 39q-53 53 -53 232v189q0 96 12.5 149.5t40.5 81.5q44 44 122 44q79 0 124 -43q52 -50 52 -203v-4h-134v6q0 39 -0.5 55.5t-4 35.5
t-11.5 25t-22 6q-27 0 -34 -26.5t-7 -98.5v-245q0 -38 0.5 -55t4.5 -36.5t12.5 -26.5t23.5 -7q28 0 34 29.5t6 123.5v6h134v-4q0 -101 -13.5 -153t-41.5 -81z" />
    <glyph glyph-name="Egrave" unicode="&#xc8;" horiz-adv-x="326" 
d="M283 298h-115v-175h146v-123h-283l1 73v569l-1 73h280v-121h-143v-160h115v-136zM243 745h-85l-99 105h125z" />
    <glyph glyph-name="Eacute" unicode="&#xc9;" horiz-adv-x="326" 
d="M283 298h-115v-175h146v-123h-283l1 73v569l-1 73h280v-121h-143v-160h115v-136zM184 745h-87l63 105h121z" />
    <glyph glyph-name="Ecircumflex" unicode="&#xca;" horiz-adv-x="326" 
d="M283 298h-115v-175h146v-123h-283l1 73v569l-1 73h280v-121h-143v-160h115v-136zM292 745h-70l-51 41l-51 -41h-70l65 105h113z" />
    <glyph glyph-name="Edieresis" unicode="&#xcb;" horiz-adv-x="326" 
d="M283 298h-115v-175h146v-123h-283l1 73v569l-1 73h280v-121h-143v-160h115v-136zM47 745v105h103v-105h-103zM191 745v105h103v-105h-103z" />
    <glyph glyph-name="Igrave" unicode="&#xcc;" horiz-adv-x="200" 
d="M31 715h138l-1 -73v-569l1 -73h-138l1 73v569zM172 745h-85l-99 105h125z" />
    <glyph glyph-name="Iacute" unicode="&#xcd;" horiz-adv-x="200" 
d="M31 715h138l-1 -73v-569l1 -73h-138l1 73v569zM112 745h-87l63 105h121z" />
    <glyph glyph-name="Icircumflex" unicode="&#xce;" horiz-adv-x="200" 
d="M31 715h138l-1 -73v-569l1 -73h-138l1 73v569zM220 745h-70l-51 41l-51 -41h-70l65 105h113z" />
    <glyph glyph-name="Idieresis" unicode="&#xcf;" horiz-adv-x="200" 
d="M31 715h138l-1 -73v-569l1 -73h-138l1 73v569zM-24 745v105h103v-105h-103zM120 745v105h103v-105h-103z" />
    <glyph glyph-name="Eth" unicode="&#xd0;" horiz-adv-x="424" 
d="M210 715q80 0 126 -41q62 -54 62 -200v-233q0 -146 -62 -200q-46 -41 -126 -41h-162l1 73v246h-48v106h48v217l-1 73h162zM202 595h-17v-170h45v-106h-45v-199h17q20 0 32.5 8.5t18 26t7 33t1.5 41.5v257q0 26 -1 39.5t-6 32.5t-18 28t-34 9z" />
    <glyph glyph-name="Ntilde" unicode="&#xd1;" horiz-adv-x="408" 
d="M31 0l1 73v569l-1 73h89l98 -240q8 -17 12.5 -29t8.5 -23.5t8 -21.5h4q-2 48 -2 84v157l-2 73h131l-2 -73v-569l2 -73h-86l-107 255q-6 13 -15 37t-10 26h-4q3 -35 3 -84v-161l1 -73h-129zM323 850v-68q-36 -44 -83 -44q-21 0 -45 19.5t-39 19.5q-19 0 -59 -32h-8v69
q38 44 84 44q20 0 44.5 -19.5t39.5 -19.5q19 0 58 31h8z" />
    <glyph glyph-name="Ograve" unicode="&#xd2;" horiz-adv-x="415" 
d="M207 -12q-87 0 -127 43q-28 30 -40.5 79.5t-12.5 152.5v189q0 103 12.5 152.5t40.5 79.5q41 43 127 43t127 -43q28 -31 41 -80.5t13 -151.5v-189q0 -103 -12.5 -153t-41.5 -79q-40 -43 -127 -43zM165 480v-245q0 -71 7 -98t35 -27q27 0 34.5 27.5t7.5 97.5v245
q0 70 -7.5 97.5t-34.5 27.5q-28 0 -35 -27t-7 -98zM279 745h-85l-99 105h125z" />
    <glyph glyph-name="Oacute" unicode="&#xd3;" horiz-adv-x="415" 
d="M207 -12q-87 0 -127 43q-28 30 -40.5 79.5t-12.5 152.5v189q0 103 12.5 152.5t40.5 79.5q41 43 127 43t127 -43q28 -31 41 -80.5t13 -151.5v-189q0 -103 -12.5 -153t-41.5 -79q-40 -43 -127 -43zM165 480v-245q0 -71 7 -98t35 -27q27 0 34.5 27.5t7.5 97.5v245
q0 70 -7.5 97.5t-34.5 27.5q-28 0 -35 -27t-7 -98zM220 745h-87l63 105h121z" />
    <glyph glyph-name="Ocircumflex" unicode="&#xd4;" horiz-adv-x="415" 
d="M207 -12q-87 0 -127 43q-28 30 -40.5 79.5t-12.5 152.5v189q0 103 12.5 152.5t40.5 79.5q41 43 127 43t127 -43q28 -31 41 -80.5t13 -151.5v-189q0 -103 -12.5 -153t-41.5 -79q-40 -43 -127 -43zM165 480v-245q0 -71 7 -98t35 -27q27 0 34.5 27.5t7.5 97.5v245
q0 70 -7.5 97.5t-34.5 27.5q-28 0 -35 -27t-7 -98zM328 745h-70l-51 41l-51 -41h-70l65 105h113z" />
    <glyph glyph-name="Otilde" unicode="&#xd5;" horiz-adv-x="415" 
d="M207 -12q-87 0 -127 43q-28 30 -40.5 79.5t-12.5 152.5v189q0 103 12.5 152.5t40.5 79.5q41 43 127 43t127 -43q28 -31 41 -80.5t13 -151.5v-189q0 -103 -12.5 -153t-41.5 -79q-40 -43 -127 -43zM165 480v-245q0 -71 7 -98t35 -27q27 0 34.5 27.5t7.5 97.5v245
q0 70 -7.5 97.5t-34.5 27.5q-28 0 -35 -27t-7 -98zM325 850v-68q-36 -44 -83 -44q-21 0 -45 19.5t-39 19.5q-19 0 -59 -32h-8v69q38 44 84 44q20 0 44.5 -19.5t39.5 -19.5q19 0 58 31h8z" />
    <glyph glyph-name="Odieresis" unicode="&#xd6;" horiz-adv-x="415" 
d="M207 -12q-87 0 -127 43q-28 30 -40.5 79.5t-12.5 152.5v189q0 103 12.5 152.5t40.5 79.5q41 43 127 43t127 -43q28 -31 41 -80.5t13 -151.5v-189q0 -103 -12.5 -153t-41.5 -79q-40 -43 -127 -43zM165 480v-245q0 -71 7 -98t35 -27q27 0 34.5 27.5t7.5 97.5v245
q0 70 -7.5 97.5t-34.5 27.5q-28 0 -35 -27t-7 -98zM84 745v105h103v-105h-103zM228 745v105h103v-105h-103z" />
    <glyph glyph-name="multiply" unicode="&#xd7;" horiz-adv-x="482" 
d="M375 544l84 -72l-139 -170l142 -172l-87 -75l-134 165l-134 -164l-85 72l142 170l-143 173l87 74l135 -164z" />
    <glyph glyph-name="Oslash" unicode="&#xd8;" horiz-adv-x="415" 
d="M175 -88h-101l23 104q-10 7 -17 15q-28 30 -40.5 79.5t-12.5 152.5v189q0 103 12.5 152.5t40.5 79.5q41 43 127 43q11 0 29 -2l16 61h100l-23 -97l5 -5q28 -31 41 -80.5t13 -151.5v-189q0 -103 -12.5 -153t-41.5 -79q-40 -43 -127 -43q-2 0 -7 0.5t-8 0.5zM160 480v-217
l83 314q-10 28 -36 28q-28 0 -37.5 -28.5t-9.5 -96.5zM207 110q27 0 37 29t10 96v176l-76 -289q11 -12 29 -12z" />
    <glyph glyph-name="Ugrave" unicode="&#xd9;" 
d="M241 715h138l-1 -73v-464q0 -91 -46.5 -140.5t-128.5 -49.5q-83 0 -128.5 49.5t-45.5 140.5v464l-1 73h138l-1 -73v-468q0 -64 38 -64t38 64v541zM277 745h-85l-99 105h125z" />
    <glyph glyph-name="Uacute" unicode="&#xda;" 
d="M241 715h138l-1 -73v-464q0 -91 -46.5 -140.5t-128.5 -49.5q-83 0 -128.5 49.5t-45.5 140.5v464l-1 73h138l-1 -73v-468q0 -64 38 -64t38 64v541zM217 745h-87l63 105h121z" />
    <glyph glyph-name="Ucircumflex" unicode="&#xdb;" 
d="M241 715h138l-1 -73v-464q0 -91 -46.5 -140.5t-128.5 -49.5q-83 0 -128.5 49.5t-45.5 140.5v464l-1 73h138l-1 -73v-468q0 -64 38 -64t38 64v541zM325 745h-70l-51 41l-51 -41h-70l65 105h113z" />
    <glyph glyph-name="Udieresis" unicode="&#xdc;" 
d="M241 715h138l-1 -73v-464q0 -91 -46.5 -140.5t-128.5 -49.5q-83 0 -128.5 49.5t-45.5 140.5v464l-1 73h138l-1 -73v-468q0 -64 38 -64t38 64v541zM80 745v105h103v-105h-103zM224 745v105h103v-105h-103z" />
    <glyph glyph-name="Yacute" unicode="&#xdd;" horiz-adv-x="378" 
d="M185 463h4q5 26 16 71l40 181h133l-123 -429v-213l1 -73h-138l1 73v213l-119 429h136l35 -181q12 -60 14 -71zM201 745h-87l63 105h121z" />
    <glyph glyph-name="Thorn" unicode="&#xde;" horiz-adv-x="389" 
d="M168 600l34 -1q56 0 92.5 -17t54 -50.5t24 -70t6.5 -89.5v-22q0 -52 -7 -89.5t-25.5 -70.5t-54.5 -50t-90 -17h-34v-50l1 -73h-138l1 73v569l-1 73h138l-1 -73v-42zM168 243h7q43 0 55.5 27.5t12.5 78.5v24q0 55 -14 80.5t-54 25.5h-7v-236z" />
    <glyph glyph-name="germandbls" unicode="&#xdf;" horiz-adv-x="746" 
d="M11 212h135q0 -98 45 -98q37 0 37 58q0 71 -58 115l-46 35q-57 43 -82.5 91t-25.5 116q0 95 48.5 147t130.5 52q168 0 164 -219h-131q0 92 -38 92q-41 0 -41 -60q0 -59 58 -102l51 -38q52 -38 78.5 -83.5t26.5 -122.5q0 -102 -47.5 -155t-130.5 -53t-129.5 55t-44.5 170z
M384 212h135q0 -98 45 -98q37 0 37 58q0 71 -58 115l-46 35q-57 43 -82.5 91t-25.5 116q0 95 48.5 147t130.5 52q168 0 164 -219h-131q0 92 -38 92q-41 0 -41 -60q0 -59 58 -102l51 -38q52 -38 78.5 -83.5t26.5 -122.5q0 -102 -47.5 -155t-130.5 -53t-129.5 55t-44.5 170z
" />
    <glyph glyph-name="agrave" unicode="&#xe0;" horiz-adv-x="406" 
d="M143 102l-18 -102h-130l154 715h107l156 -715h-138l-18 102h-113zM187 354l-23 -133h72l-22 133q-3 17 -7 49.5t-5 37.5h-3q-1 -5 -5 -37.5t-7 -49.5zM274 745h-85l-99 105h125z" />
    <glyph glyph-name="aacute" unicode="&#xe1;" horiz-adv-x="406" 
d="M143 102l-18 -102h-130l154 715h107l156 -715h-138l-18 102h-113zM187 354l-23 -133h72l-22 133q-3 17 -7 49.5t-5 37.5h-3q-1 -5 -5 -37.5t-7 -49.5zM214 745h-87l63 105h121z" />
    <glyph glyph-name="acircumflex" unicode="&#xe2;" horiz-adv-x="406" 
d="M143 102l-18 -102h-130l154 715h107l156 -715h-138l-18 102h-113zM187 354l-23 -133h72l-22 133q-3 17 -7 49.5t-5 37.5h-3q-1 -5 -5 -37.5t-7 -49.5zM322 745h-70l-51 41l-51 -41h-70l65 105h113z" />
    <glyph glyph-name="atilde" unicode="&#xe3;" horiz-adv-x="406" 
d="M143 102l-18 -102h-130l154 715h107l156 -715h-138l-18 102h-113zM187 354l-23 -133h72l-22 133q-3 17 -7 49.5t-5 37.5h-3q-1 -5 -5 -37.5t-7 -49.5zM319 850v-68q-36 -44 -83 -44q-21 0 -45 19.5t-39 19.5q-19 0 -59 -32h-8v69q38 44 84 44q20 0 44.5 -19.5t39.5 -19.5
q19 0 58 31h8z" />
    <glyph glyph-name="adieresis" unicode="&#xe4;" horiz-adv-x="406" 
d="M143 102l-18 -102h-130l154 715h107l156 -715h-138l-18 102h-113zM187 354l-23 -133h72l-22 133q-3 17 -7 49.5t-5 37.5h-3q-1 -5 -5 -37.5t-7 -49.5zM77 745v105h103v-105h-103zM221 745v105h103v-105h-103z" />
    <glyph glyph-name="aring" unicode="&#xe5;" horiz-adv-x="406" 
d="M143 102l-18 -102h-130l154 715h107l156 -715h-138l-18 102h-113zM187 354l-23 -133h72l-22 133q-3 17 -7 49.5t-5 37.5h-3q-1 -5 -5 -37.5t-7 -49.5zM294 819q0 -35 -25 -60t-68 -25q-44 0 -68.5 25t-24.5 60q0 37 24.5 63t68.5 26q43 0 68 -26t25 -63zM231 819
q0 14 -8 24t-22 10q-15 0 -23 -10t-8 -24q0 -12 8 -20.5t23 -8.5q14 0 22 8.5t8 20.5z" />
    <glyph glyph-name="ae" unicode="&#xe6;" horiz-adv-x="565" 
d="M155 123l-30 -123h-134l203 715h356v-121h-143v-160h115v-136h-115v-175h146v-123h-283l1 73v50h-116zM236 455l-52 -213h87v353h-7q-11 -69 -28 -140z" />
    <glyph glyph-name="ccedilla" unicode="&#xe7;" horiz-adv-x="394" 
d="M325 31q-32 -34 -87 -41l-4 -20q55 -13 55 -61q0 -70 -116 -70q-30 0 -59 9v58q27 -9 52 -9q38 0 38 21q0 23 -52 23l10 51q-54 9 -82 39q-53 53 -53 232v189q0 96 12.5 149.5t40.5 81.5q44 44 122 44q79 0 124 -43q52 -50 52 -203v-4h-134v6q0 39 -0.5 55.5t-4 35.5
t-11.5 25t-22 6q-27 0 -34 -26.5t-7 -98.5v-245q0 -38 0.5 -55t4.5 -36.5t12.5 -26.5t23.5 -7q28 0 34 29.5t6 123.5v6h134v-4q0 -101 -13.5 -153t-41.5 -81z" />
    <glyph glyph-name="egrave" unicode="&#xe8;" horiz-adv-x="326" 
d="M283 298h-115v-175h146v-123h-283l1 73v569l-1 73h280v-121h-143v-160h115v-136zM243 745h-85l-99 105h125z" />
    <glyph glyph-name="eacute" unicode="&#xe9;" horiz-adv-x="326" 
d="M283 298h-115v-175h146v-123h-283l1 73v569l-1 73h280v-121h-143v-160h115v-136zM184 745h-87l63 105h121z" />
    <glyph glyph-name="ecircumflex" unicode="&#xea;" horiz-adv-x="326" 
d="M283 298h-115v-175h146v-123h-283l1 73v569l-1 73h280v-121h-143v-160h115v-136zM292 745h-70l-51 41l-51 -41h-70l65 105h113z" />
    <glyph glyph-name="edieresis" unicode="&#xeb;" horiz-adv-x="326" 
d="M283 298h-115v-175h146v-123h-283l1 73v569l-1 73h280v-121h-143v-160h115v-136zM47 745v105h103v-105h-103zM191 745v105h103v-105h-103z" />
    <glyph glyph-name="igrave" unicode="&#xec;" horiz-adv-x="200" 
d="M31 715h138l-1 -73v-569l1 -73h-138l1 73v569zM172 745h-85l-99 105h125z" />
    <glyph glyph-name="iacute" unicode="&#xed;" horiz-adv-x="200" 
d="M31 715h138l-1 -73v-569l1 -73h-138l1 73v569zM112 745h-87l63 105h121z" />
    <glyph glyph-name="icircumflex" unicode="&#xee;" horiz-adv-x="200" 
d="M31 715h138l-1 -73v-569l1 -73h-138l1 73v569zM220 745h-70l-51 41l-51 -41h-70l65 105h113z" />
    <glyph glyph-name="idieresis" unicode="&#xef;" horiz-adv-x="200" 
d="M31 715h138l-1 -73v-569l1 -73h-138l1 73v569zM-24 745v105h103v-105h-103zM120 745v105h103v-105h-103z" />
    <glyph glyph-name="eth" unicode="&#xf0;" horiz-adv-x="424" 
d="M210 715q80 0 126 -41q62 -54 62 -200v-233q0 -146 -62 -200q-46 -41 -126 -41h-162l1 73v246h-48v106h48v217l-1 73h162zM202 595h-17v-170h45v-106h-45v-199h17q20 0 32.5 8.5t18 26t7 33t1.5 41.5v257q0 26 -1 39.5t-6 32.5t-18 28t-34 9z" />
    <glyph glyph-name="ntilde" unicode="&#xf1;" horiz-adv-x="408" 
d="M31 0l1 73v569l-1 73h89l98 -240q8 -17 12.5 -29t8.5 -23.5t8 -21.5h4q-2 48 -2 84v157l-2 73h131l-2 -73v-569l2 -73h-86l-107 255q-6 13 -15 37t-10 26h-4q3 -35 3 -84v-161l1 -73h-129zM323 850v-68q-36 -44 -83 -44q-21 0 -45 19.5t-39 19.5q-19 0 -59 -32h-8v69
q38 44 84 44q20 0 44.5 -19.5t39.5 -19.5q19 0 58 31h8z" />
    <glyph glyph-name="ograve" unicode="&#xf2;" horiz-adv-x="415" 
d="M207 -12q-87 0 -127 43q-28 30 -40.5 79.5t-12.5 152.5v189q0 103 12.5 152.5t40.5 79.5q41 43 127 43t127 -43q28 -31 41 -80.5t13 -151.5v-189q0 -103 -12.5 -153t-41.5 -79q-40 -43 -127 -43zM165 480v-245q0 -71 7 -98t35 -27q27 0 34.5 27.5t7.5 97.5v245
q0 70 -7.5 97.5t-34.5 27.5q-28 0 -35 -27t-7 -98zM279 745h-85l-99 105h125z" />
    <glyph glyph-name="oacute" unicode="&#xf3;" horiz-adv-x="415" 
d="M207 -12q-87 0 -127 43q-28 30 -40.5 79.5t-12.5 152.5v189q0 103 12.5 152.5t40.5 79.5q41 43 127 43t127 -43q28 -31 41 -80.5t13 -151.5v-189q0 -103 -12.5 -153t-41.5 -79q-40 -43 -127 -43zM165 480v-245q0 -71 7 -98t35 -27q27 0 34.5 27.5t7.5 97.5v245
q0 70 -7.5 97.5t-34.5 27.5q-28 0 -35 -27t-7 -98zM220 745h-87l63 105h121z" />
    <glyph glyph-name="ocircumflex" unicode="&#xf4;" horiz-adv-x="415" 
d="M207 -12q-87 0 -127 43q-28 30 -40.5 79.5t-12.5 152.5v189q0 103 12.5 152.5t40.5 79.5q41 43 127 43t127 -43q28 -31 41 -80.5t13 -151.5v-189q0 -103 -12.5 -153t-41.5 -79q-40 -43 -127 -43zM165 480v-245q0 -71 7 -98t35 -27q27 0 34.5 27.5t7.5 97.5v245
q0 70 -7.5 97.5t-34.5 27.5q-28 0 -35 -27t-7 -98zM328 745h-70l-51 41l-51 -41h-70l65 105h113z" />
    <glyph glyph-name="otilde" unicode="&#xf5;" horiz-adv-x="415" 
d="M207 -12q-87 0 -127 43q-28 30 -40.5 79.5t-12.5 152.5v189q0 103 12.5 152.5t40.5 79.5q41 43 127 43t127 -43q28 -31 41 -80.5t13 -151.5v-189q0 -103 -12.5 -153t-41.5 -79q-40 -43 -127 -43zM165 480v-245q0 -71 7 -98t35 -27q27 0 34.5 27.5t7.5 97.5v245
q0 70 -7.5 97.5t-34.5 27.5q-28 0 -35 -27t-7 -98zM325 850v-68q-36 -44 -83 -44q-21 0 -45 19.5t-39 19.5q-19 0 -59 -32h-8v69q38 44 84 44q20 0 44.5 -19.5t39.5 -19.5q19 0 58 31h8z" />
    <glyph glyph-name="odieresis" unicode="&#xf6;" horiz-adv-x="415" 
d="M207 -12q-87 0 -127 43q-28 30 -40.5 79.5t-12.5 152.5v189q0 103 12.5 152.5t40.5 79.5q41 43 127 43t127 -43q28 -31 41 -80.5t13 -151.5v-189q0 -103 -12.5 -153t-41.5 -79q-40 -43 -127 -43zM165 480v-245q0 -71 7 -98t35 -27q27 0 34.5 27.5t7.5 97.5v245
q0 70 -7.5 97.5t-34.5 27.5q-28 0 -35 -27t-7 -98zM84 745v105h103v-105h-103zM228 745v105h103v-105h-103z" />
    <glyph glyph-name="divide" unicode="&#xf7;" horiz-adv-x="483" 
d="M31 244v110h418v-110h-418zM175 41v121h130v-121h-130zM175 437v121h130v-121h-130z" />
    <glyph glyph-name="oslash" unicode="&#xf8;" horiz-adv-x="415" 
d="M175 -88h-101l23 104q-10 7 -17 15q-28 30 -40.5 79.5t-12.5 152.5v189q0 103 12.5 152.5t40.5 79.5q41 43 127 43q11 0 29 -2l16 61h100l-23 -97l5 -5q28 -31 41 -80.5t13 -151.5v-189q0 -103 -12.5 -153t-41.5 -79q-40 -43 -127 -43q-2 0 -7 0.5t-8 0.5zM160 480v-217
l83 314q-10 28 -36 28q-28 0 -37.5 -28.5t-9.5 -96.5zM207 110q27 0 37 29t10 96v176l-76 -289q11 -12 29 -12z" />
    <glyph glyph-name="ugrave" unicode="&#xf9;" 
d="M241 715h138l-1 -73v-464q0 -91 -46.5 -140.5t-128.5 -49.5q-83 0 -128.5 49.5t-45.5 140.5v464l-1 73h138l-1 -73v-468q0 -64 38 -64t38 64v541zM277 745h-85l-99 105h125z" />
    <glyph glyph-name="uacute" unicode="&#xfa;" 
d="M241 715h138l-1 -73v-464q0 -91 -46.5 -140.5t-128.5 -49.5q-83 0 -128.5 49.5t-45.5 140.5v464l-1 73h138l-1 -73v-468q0 -64 38 -64t38 64v541zM217 745h-87l63 105h121z" />
    <glyph glyph-name="ucircumflex" unicode="&#xfb;" 
d="M241 715h138l-1 -73v-464q0 -91 -46.5 -140.5t-128.5 -49.5q-83 0 -128.5 49.5t-45.5 140.5v464l-1 73h138l-1 -73v-468q0 -64 38 -64t38 64v541zM325 745h-70l-51 41l-51 -41h-70l65 105h113z" />
    <glyph glyph-name="udieresis" unicode="&#xfc;" 
d="M241 715h138l-1 -73v-464q0 -91 -46.5 -140.5t-128.5 -49.5q-83 0 -128.5 49.5t-45.5 140.5v464l-1 73h138l-1 -73v-468q0 -64 38 -64t38 64v541zM80 745v105h103v-105h-103zM224 745v105h103v-105h-103z" />
    <glyph glyph-name="yacute" unicode="&#xfd;" horiz-adv-x="378" 
d="M185 463h4q5 26 16 71l40 181h133l-123 -429v-213l1 -73h-138l1 73v213l-119 429h136l35 -181q12 -60 14 -71zM201 745h-87l63 105h121z" />
    <glyph glyph-name="thorn" unicode="&#xfe;" horiz-adv-x="389" 
d="M168 600l34 -1q56 0 92.5 -17t54 -50.5t24 -70t6.5 -89.5v-22q0 -52 -7 -89.5t-25.5 -70.5t-54.5 -50t-90 -17h-34v-50l1 -73h-138l1 73v569l-1 73h138l-1 -73v-42zM168 243h7q43 0 55.5 27.5t12.5 78.5v24q0 55 -14 80.5t-54 25.5h-7v-236z" />
    <glyph glyph-name="ydieresis" unicode="&#xff;" horiz-adv-x="378" 
d="M185 463h4q5 26 16 71l40 181h133l-123 -429v-213l1 -73h-138l1 73v213l-119 429h136l35 -181q12 -60 14 -71zM64 745v105h103v-105h-103zM208 745v105h103v-105h-103z" />
    <glyph glyph-name="Amacron" unicode="&#x100;" horiz-adv-x="406" 
d="M143 102l-18 -102h-130l154 715h107l156 -715h-138l-18 102h-113zM187 354l-23 -133h72l-22 133q-3 17 -7 49.5t-5 37.5h-3q-1 -5 -5 -37.5t-7 -49.5zM299 753h-194v92h194v-92z" />
    <glyph glyph-name="amacron" unicode="&#x101;" horiz-adv-x="406" 
d="M143 102l-18 -102h-130l154 715h107l156 -715h-138l-18 102h-113zM187 354l-23 -133h72l-22 133q-3 17 -7 49.5t-5 37.5h-3q-1 -5 -5 -37.5t-7 -49.5zM299 753h-194v92h194v-92z" />
    <glyph glyph-name="Abreve" unicode="&#x102;" horiz-adv-x="406" 
d="M143 102l-18 -102h-130l154 715h107l156 -715h-138l-18 102h-113zM187 354l-23 -133h72l-22 133q-3 17 -7 49.5t-5 37.5h-3q-1 -5 -5 -37.5t-7 -49.5zM229 850h70v-17q0 -44 -29 -66.5t-69 -22.5q-42 0 -72.5 22.5t-30.5 66.5v17h72v-6q0 -31 31 -31q28 0 28 31v6z" />
    <glyph glyph-name="abreve" unicode="&#x103;" horiz-adv-x="406" 
d="M143 102l-18 -102h-130l154 715h107l156 -715h-138l-18 102h-113zM187 354l-23 -133h72l-22 133q-3 17 -7 49.5t-5 37.5h-3q-1 -5 -5 -37.5t-7 -49.5zM229 850h70v-17q0 -44 -29 -66.5t-69 -22.5q-42 0 -72.5 22.5t-30.5 66.5v17h72v-6q0 -31 31 -31q28 0 28 31v6z" />
    <glyph glyph-name="Aogonek" unicode="&#x104;" horiz-adv-x="406" 
d="M143 102l-18 -102h-130l154 715h107l156 -715h-56q-33 -39 -33 -66q0 -26 31 -26q17 0 33 8v-66q-24 -12 -57 -12q-43 0 -74.5 17.5t-31.5 55.5q0 48 50 89l-18 102h-113zM187 354l-23 -133h72l-22 133q-3 17 -7 49.5t-5 37.5h-3q-1 -5 -5 -37.5t-7 -49.5z" />
    <glyph glyph-name="aogonek" unicode="&#x105;" horiz-adv-x="406" 
d="M143 102l-18 -102h-130l154 715h107l156 -715h-56q-33 -39 -33 -66q0 -26 31 -26q17 0 33 8v-66q-24 -12 -57 -12q-43 0 -74.5 17.5t-31.5 55.5q0 48 50 89l-18 102h-113zM187 354l-23 -133h72l-22 133q-3 17 -7 49.5t-5 37.5h-3q-1 -5 -5 -37.5t-7 -49.5z" />
    <glyph glyph-name="Cacute" unicode="&#x106;" horiz-adv-x="394" 
d="M204 -12q-81 0 -124 43q-53 53 -53 232v189q0 96 12.5 149.5t40.5 81.5q44 44 122 44q79 0 124 -43q52 -50 52 -203v-4h-134v6q0 39 -0.5 55.5t-4 35.5t-11.5 25t-22 6q-27 0 -34 -26.5t-7 -98.5v-245q0 -38 0.5 -55t4.5 -36.5t12.5 -26.5t23.5 -7q28 0 34 29.5t6 123.5
v6h134v-4q0 -101 -13.5 -153t-41.5 -81q-42 -43 -121 -43zM215 745h-87l63 105h121z" />
    <glyph glyph-name="cacute" unicode="&#x107;" horiz-adv-x="394" 
d="M204 -12q-81 0 -124 43q-53 53 -53 232v189q0 96 12.5 149.5t40.5 81.5q44 44 122 44q79 0 124 -43q52 -50 52 -203v-4h-134v6q0 39 -0.5 55.5t-4 35.5t-11.5 25t-22 6q-27 0 -34 -26.5t-7 -98.5v-245q0 -38 0.5 -55t4.5 -36.5t12.5 -26.5t23.5 -7q28 0 34 29.5t6 123.5
v6h134v-4q0 -101 -13.5 -153t-41.5 -81q-42 -43 -121 -43zM215 745h-87l63 105h121z" />
    <glyph glyph-name="Ccircumflex" unicode="&#x108;" horiz-adv-x="394" 
d="M204 -12q-81 0 -124 43q-53 53 -53 232v189q0 96 12.5 149.5t40.5 81.5q44 44 122 44q79 0 124 -43q52 -50 52 -203v-4h-134v6q0 39 -0.5 55.5t-4 35.5t-11.5 25t-22 6q-27 0 -34 -26.5t-7 -98.5v-245q0 -38 0.5 -55t4.5 -36.5t12.5 -26.5t23.5 -7q28 0 34 29.5t6 123.5
v6h134v-4q0 -101 -13.5 -153t-41.5 -81q-42 -43 -121 -43zM323 745h-70l-51 41l-51 -41h-70l65 105h113z" />
    <glyph glyph-name="ccircumflex" unicode="&#x109;" horiz-adv-x="394" 
d="M204 -12q-81 0 -124 43q-53 53 -53 232v189q0 96 12.5 149.5t40.5 81.5q44 44 122 44q79 0 124 -43q52 -50 52 -203v-4h-134v6q0 39 -0.5 55.5t-4 35.5t-11.5 25t-22 6q-27 0 -34 -26.5t-7 -98.5v-245q0 -38 0.5 -55t4.5 -36.5t12.5 -26.5t23.5 -7q28 0 34 29.5t6 123.5
v6h134v-4q0 -101 -13.5 -153t-41.5 -81q-42 -43 -121 -43zM323 745h-70l-51 41l-51 -41h-70l65 105h113z" />
    <glyph glyph-name="Cdotaccent" unicode="&#x10a;" horiz-adv-x="394" 
d="M204 -12q-81 0 -124 43q-53 53 -53 232v189q0 96 12.5 149.5t40.5 81.5q44 44 122 44q79 0 124 -43q52 -50 52 -203v-4h-134v6q0 39 -0.5 55.5t-4 35.5t-11.5 25t-22 6q-27 0 -34 -26.5t-7 -98.5v-245q0 -38 0.5 -55t4.5 -36.5t12.5 -26.5t23.5 -7q28 0 34 29.5t6 123.5
v6h134v-4q0 -101 -13.5 -153t-41.5 -81q-42 -43 -121 -43zM151 745v105h103v-105h-103z" />
    <glyph glyph-name="cdotaccent" unicode="&#x10b;" horiz-adv-x="394" 
d="M204 -12q-81 0 -124 43q-53 53 -53 232v189q0 96 12.5 149.5t40.5 81.5q44 44 122 44q79 0 124 -43q52 -50 52 -203v-4h-134v6q0 39 -0.5 55.5t-4 35.5t-11.5 25t-22 6q-27 0 -34 -26.5t-7 -98.5v-245q0 -38 0.5 -55t4.5 -36.5t12.5 -26.5t23.5 -7q28 0 34 29.5t6 123.5
v6h134v-4q0 -101 -13.5 -153t-41.5 -81q-42 -43 -121 -43zM151 745v105h103v-105h-103z" />
    <glyph glyph-name="Ccaron" unicode="&#x10c;" horiz-adv-x="394" 
d="M204 -12q-81 0 -124 43q-53 53 -53 232v189q0 96 12.5 149.5t40.5 81.5q44 44 122 44q79 0 124 -43q52 -50 52 -203v-4h-134v6q0 39 -0.5 55.5t-4 35.5t-11.5 25t-22 6q-27 0 -34 -26.5t-7 -98.5v-245q0 -38 0.5 -55t4.5 -36.5t12.5 -26.5t23.5 -7q28 0 34 29.5t6 123.5
v6h134v-4q0 -101 -13.5 -153t-41.5 -81q-42 -43 -121 -43zM253 850h70l-64 -105h-113l-65 105h70l51 -40z" />
    <glyph glyph-name="ccaron" unicode="&#x10d;" horiz-adv-x="394" 
d="M204 -12q-81 0 -124 43q-53 53 -53 232v189q0 96 12.5 149.5t40.5 81.5q44 44 122 44q79 0 124 -43q52 -50 52 -203v-4h-134v6q0 39 -0.5 55.5t-4 35.5t-11.5 25t-22 6q-27 0 -34 -26.5t-7 -98.5v-245q0 -38 0.5 -55t4.5 -36.5t12.5 -26.5t23.5 -7q28 0 34 29.5t6 123.5
v6h134v-4q0 -101 -13.5 -153t-41.5 -81q-42 -43 -121 -43zM253 850h70l-64 -105h-113l-65 105h70l51 -40z" />
    <glyph glyph-name="Dcaron" unicode="&#x10e;" horiz-adv-x="408" 
d="M193 715q80 0 126 -41q62 -54 62 -200v-233q0 -146 -62 -200q-46 -41 -126 -41h-162l1 73v569l-1 73h162zM185 595h-17v-475h17q20 0 32.5 8.5t18 26t7 33t1.5 41.5v257q0 26 -1 39.5t-6 32.5t-18 28t-34 9zM248 850h70l-64 -105h-113l-65 105h70l51 -40z" />
    <glyph glyph-name="dcaron" unicode="&#x10f;" horiz-adv-x="408" 
d="M193 715q80 0 126 -41q62 -54 62 -200v-233q0 -146 -62 -200q-46 -41 -126 -41h-162l1 73v569l-1 73h162zM185 595h-17v-475h17q20 0 32.5 8.5t18 26t7 33t1.5 41.5v257q0 26 -1 39.5t-6 32.5t-18 28t-34 9zM248 850h70l-64 -105h-113l-65 105h70l51 -40z" />
    <glyph glyph-name="Dcroat" unicode="&#x110;" horiz-adv-x="424" 
d="M210 715q80 0 126 -41q62 -54 62 -200v-233q0 -146 -62 -200q-46 -41 -126 -41h-162l1 73v246h-48v106h48v217l-1 73h162zM202 595h-17v-170h45v-106h-45v-199h17q20 0 32.5 8.5t18 26t7 33t1.5 41.5v257q0 26 -1 39.5t-6 32.5t-18 28t-34 9z" />
    <glyph glyph-name="dcroat" unicode="&#x111;" horiz-adv-x="424" 
d="M210 715q80 0 126 -41q62 -54 62 -200v-233q0 -146 -62 -200q-46 -41 -126 -41h-162l1 73v246h-48v106h48v217l-1 73h162zM202 595h-17v-170h45v-106h-45v-199h17q20 0 32.5 8.5t18 26t7 33t1.5 41.5v257q0 26 -1 39.5t-6 32.5t-18 28t-34 9z" />
    <glyph glyph-name="Emacron" unicode="&#x112;" horiz-adv-x="326" 
d="M283 298h-115v-175h146v-123h-283l1 73v569l-1 73h280v-121h-143v-160h115v-136zM269 753h-194v92h194v-92z" />
    <glyph glyph-name="emacron" unicode="&#x113;" horiz-adv-x="326" 
d="M283 298h-115v-175h146v-123h-283l1 73v569l-1 73h280v-121h-143v-160h115v-136zM269 753h-194v92h194v-92z" />
    <glyph glyph-name="Ebreve" unicode="&#x114;" horiz-adv-x="326" 
d="M283 298h-115v-175h146v-123h-283l1 73v569l-1 73h280v-121h-143v-160h115v-136zM199 850h70v-17q0 -44 -29 -66.5t-69 -22.5q-42 0 -72.5 22.5t-30.5 66.5v17h72v-6q0 -31 31 -31q28 0 28 31v6z" />
    <glyph glyph-name="ebreve" unicode="&#x115;" horiz-adv-x="326" 
d="M283 298h-115v-175h146v-123h-283l1 73v569l-1 73h280v-121h-143v-160h115v-136zM199 850h70v-17q0 -44 -29 -66.5t-69 -22.5q-42 0 -72.5 22.5t-30.5 66.5v17h72v-6q0 -31 31 -31q28 0 28 31v6z" />
    <glyph glyph-name="Edotaccent" unicode="&#x116;" horiz-adv-x="326" 
d="M283 298h-115v-175h146v-123h-283l1 73v569l-1 73h280v-121h-143v-160h115v-136zM120 745v105h103v-105h-103z" />
    <glyph glyph-name="edotaccent" unicode="&#x117;" horiz-adv-x="326" 
d="M283 298h-115v-175h146v-123h-283l1 73v569l-1 73h280v-121h-143v-160h115v-136zM120 745v105h103v-105h-103z" />
    <glyph glyph-name="Eogonek" unicode="&#x118;" horiz-adv-x="326" 
d="M314 -84v-66q-24 -12 -57 -12q-43 0 -74.5 17.5t-31.5 55.5q0 48 50 89h-170l1 73v569l-1 73h280v-121h-143v-160h115v-136h-115v-175h146v-123h-31q-33 -39 -33 -66q0 -26 31 -26q17 0 33 8z" />
    <glyph glyph-name="eogonek" unicode="&#x119;" horiz-adv-x="326" 
d="M314 -84v-66q-24 -12 -57 -12q-43 0 -74.5 17.5t-31.5 55.5q0 48 50 89h-170l1 73v569l-1 73h280v-121h-143v-160h115v-136h-115v-175h146v-123h-31q-33 -39 -33 -66q0 -26 31 -26q17 0 33 8z" />
    <glyph glyph-name="Ecaron" unicode="&#x11a;" horiz-adv-x="326" 
d="M283 298h-115v-175h146v-123h-283l1 73v569l-1 73h280v-121h-143v-160h115v-136zM222 850h70l-64 -105h-113l-65 105h70l51 -40z" />
    <glyph glyph-name="ecaron" unicode="&#x11b;" horiz-adv-x="326" 
d="M283 298h-115v-175h146v-123h-283l1 73v569l-1 73h280v-121h-143v-160h115v-136zM222 850h70l-64 -105h-113l-65 105h70l51 -40z" />
    <glyph glyph-name="Gcircumflex" unicode="&#x11c;" horiz-adv-x="410" 
d="M317 30q-44 -42 -116 -42q-78 0 -121 43q-53 53 -53 232v189q0 178 53 231q44 44 123 44q80 0 122 -44q27 -25 40 -70t13 -132v-4h-134v6q0 40 -0.5 56.5t-4 35.5t-11.5 24.5t-22 5.5q-28 0 -34.5 -26t-6.5 -99v-245q0 -72 7 -98.5t34 -26.5t33.5 23t6.5 80v45h-46v115
h180v-373h-8l-53 30h-2zM325 745h-70l-51 41l-51 -41h-70l65 105h113z" />
    <glyph glyph-name="gcircumflex" unicode="&#x11d;" horiz-adv-x="410" 
d="M317 30q-44 -42 -116 -42q-78 0 -121 43q-53 53 -53 232v189q0 178 53 231q44 44 123 44q80 0 122 -44q27 -25 40 -70t13 -132v-4h-134v6q0 40 -0.5 56.5t-4 35.5t-11.5 24.5t-22 5.5q-28 0 -34.5 -26t-6.5 -99v-245q0 -72 7 -98.5t34 -26.5t33.5 23t6.5 80v45h-46v115
h180v-373h-8l-53 30h-2zM325 745h-70l-51 41l-51 -41h-70l65 105h113z" />
    <glyph glyph-name="Gbreve" unicode="&#x11e;" horiz-adv-x="410" 
d="M317 30q-44 -42 -116 -42q-78 0 -121 43q-53 53 -53 232v189q0 178 53 231q44 44 123 44q80 0 122 -44q27 -25 40 -70t13 -132v-4h-134v6q0 40 -0.5 56.5t-4 35.5t-11.5 24.5t-22 5.5q-28 0 -34.5 -26t-6.5 -99v-245q0 -72 7 -98.5t34 -26.5t33.5 23t6.5 80v45h-46v115
h180v-373h-8l-53 30h-2zM233 850h70v-17q0 -44 -29 -66.5t-69 -22.5q-42 0 -72.5 22.5t-30.5 66.5v17h72v-6q0 -31 31 -31q28 0 28 31v6z" />
    <glyph glyph-name="gbreve" unicode="&#x11f;" horiz-adv-x="410" 
d="M317 30q-44 -42 -116 -42q-78 0 -121 43q-53 53 -53 232v189q0 178 53 231q44 44 123 44q80 0 122 -44q27 -25 40 -70t13 -132v-4h-134v6q0 40 -0.5 56.5t-4 35.5t-11.5 24.5t-22 5.5q-28 0 -34.5 -26t-6.5 -99v-245q0 -72 7 -98.5t34 -26.5t33.5 23t6.5 80v45h-46v115
h180v-373h-8l-53 30h-2zM233 850h70v-17q0 -44 -29 -66.5t-69 -22.5q-42 0 -72.5 22.5t-30.5 66.5v17h72v-6q0 -31 31 -31q28 0 28 31v6z" />
    <glyph glyph-name="Gdotaccent" unicode="&#x120;" horiz-adv-x="410" 
d="M317 30q-44 -42 -116 -42q-78 0 -121 43q-53 53 -53 232v189q0 178 53 231q44 44 123 44q80 0 122 -44q27 -25 40 -70t13 -132v-4h-134v6q0 40 -0.5 56.5t-4 35.5t-11.5 24.5t-22 5.5q-28 0 -34.5 -26t-6.5 -99v-245q0 -72 7 -98.5t34 -26.5t33.5 23t6.5 80v45h-46v115
h180v-373h-8l-53 30h-2zM155 745v105h103v-105h-103z" />
    <glyph glyph-name="gdotaccent" unicode="&#x121;" horiz-adv-x="410" 
d="M317 30q-44 -42 -116 -42q-78 0 -121 43q-53 53 -53 232v189q0 178 53 231q44 44 123 44q80 0 122 -44q27 -25 40 -70t13 -132v-4h-134v6q0 40 -0.5 56.5t-4 35.5t-11.5 24.5t-22 5.5q-28 0 -34.5 -26t-6.5 -99v-245q0 -72 7 -98.5t34 -26.5t33.5 23t6.5 80v45h-46v115
h180v-373h-8l-53 30h-2zM155 745v105h103v-105h-103z" />
    <glyph glyph-name="uni0122" unicode="&#x122;" horiz-adv-x="410" 
d="M317 30q-44 -42 -116 -42q-78 0 -121 43q-53 53 -53 232v189q0 178 53 231q44 44 123 44q80 0 122 -44q27 -25 40 -70t13 -132v-4h-134v6q0 40 -0.5 56.5t-4 35.5t-11.5 24.5t-22 5.5q-28 0 -34.5 -26t-6.5 -99v-245q0 -72 7 -98.5t34 -26.5t33.5 23t6.5 80v45h-46v115
h180v-373h-8l-53 30h-2zM191 -156h-86l62 124h122z" />
    <glyph glyph-name="uni0123" unicode="&#x123;" horiz-adv-x="410" 
d="M317 30q-44 -42 -116 -42q-78 0 -121 43q-53 53 -53 232v189q0 178 53 231q44 44 123 44q80 0 122 -44q27 -25 40 -70t13 -132v-4h-134v6q0 40 -0.5 56.5t-4 35.5t-11.5 24.5t-22 5.5q-28 0 -34.5 -26t-6.5 -99v-245q0 -72 7 -98.5t34 -26.5t33.5 23t6.5 80v45h-46v115
h180v-373h-8l-53 30h-2zM191 -156h-86l62 124h122z" />
    <glyph glyph-name="Hcircumflex" unicode="&#x124;" horiz-adv-x="414" 
d="M245 715h138l-1 -73v-569l1 -73h-138l1 73v227h-78v-227l1 -73h-138l1 73v569l-1 73h138l-1 -73v-205h78v205zM328 745h-70l-51 41l-51 -41h-70l65 105h113z" />
    <glyph glyph-name="hcircumflex" unicode="&#x125;" horiz-adv-x="414" 
d="M245 715h138l-1 -73v-569l1 -73h-138l1 73v227h-78v-227l1 -73h-138l1 73v569l-1 73h138l-1 -73v-205h78v205zM328 745h-70l-51 41l-51 -41h-70l65 105h113z" />
    <glyph glyph-name="Hbar" unicode="&#x126;" horiz-adv-x="446" 
d="M261 715h138l-1 -73v-15h47v-101h-47v-453l1 -73h-138l1 73v227h-78v-227l1 -73h-138l1 73v453h-48v101h48v15l-1 73h138l-1 -73v-15h78v15zM184 526v-89h78v89h-78z" />
    <glyph glyph-name="hbar" unicode="&#x127;" horiz-adv-x="446" 
d="M261 715h138l-1 -73v-15h47v-101h-47v-453l1 -73h-138l1 73v227h-78v-227l1 -73h-138l1 73v453h-48v101h48v15l-1 73h138l-1 -73v-15h78v15zM184 526v-89h78v89h-78z" />
    <glyph glyph-name="Itilde" unicode="&#x128;" horiz-adv-x="200" 
d="M31 715h138l-1 -73v-569l1 -73h-138l1 73v569zM218 850v-68q-36 -44 -83 -44q-21 0 -45 19.5t-39 19.5q-19 0 -59 -32h-8v69q38 44 84 44q20 0 44.5 -19.5t39.5 -19.5q19 0 58 31h8z" />
    <glyph glyph-name="itilde" unicode="&#x129;" horiz-adv-x="200" 
d="M31 715h138l-1 -73v-569l1 -73h-138l1 73v569zM218 850v-68q-36 -44 -83 -44q-21 0 -45 19.5t-39 19.5q-19 0 -59 -32h-8v69q38 44 84 44q20 0 44.5 -19.5t39.5 -19.5q19 0 58 31h8z" />
    <glyph glyph-name="Imacron" unicode="&#x12a;" horiz-adv-x="200" 
d="M31 715h138l-1 -73v-569l1 -73h-138l1 73v569zM197 753h-194v92h194v-92z" />
    <glyph glyph-name="imacron" unicode="&#x12b;" horiz-adv-x="200" 
d="M31 715h138l-1 -73v-569l1 -73h-138l1 73v569zM197 753h-194v92h194v-92z" />
    <glyph glyph-name="Ibreve" unicode="&#x12c;" horiz-adv-x="200" 
d="M31 715h138l-1 -73v-569l1 -73h-138l1 73v569zM128 850h70v-17q0 -44 -29 -66.5t-69 -22.5q-42 0 -72.5 22.5t-30.5 66.5v17h72v-6q0 -31 31 -31q28 0 28 31v6z" />
    <glyph glyph-name="ibreve" unicode="&#x12d;" horiz-adv-x="200" 
d="M31 715h138l-1 -73v-569l1 -73h-138l1 73v569zM128 850h70v-17q0 -44 -29 -66.5t-69 -22.5q-42 0 -72.5 22.5t-30.5 66.5v17h72v-6q0 -31 31 -31q28 0 28 31v6z" />
    <glyph glyph-name="Iogonek" unicode="&#x12e;" horiz-adv-x="200" 
d="M174 -84v-66q-24 -12 -57 -12q-43 0 -74.5 17.5t-31.5 55.5q0 48 50 89h-30l1 73v569l-1 73h138l-1 -73v-569l1 -73h-26q-33 -39 -33 -66q0 -26 31 -26q17 0 33 8z" />
    <glyph glyph-name="iogonek" unicode="&#x12f;" horiz-adv-x="200" 
d="M174 -84v-66q-24 -12 -57 -12q-43 0 -74.5 17.5t-31.5 55.5q0 48 50 89h-30l1 73v569l-1 73h138l-1 -73v-569l1 -73h-26q-33 -39 -33 -66q0 -26 31 -26q17 0 33 8z" />
    <glyph glyph-name="Idotaccent" unicode="&#x130;" horiz-adv-x="200" 
d="M31 715h138l-1 -73v-569l1 -73h-138l1 73v569zM32 760v106h136v-106h-136z" />
    <glyph glyph-name="dotlessi" unicode="&#x131;" horiz-adv-x="200" 
d="M31 715h138l-1 -73v-569l1 -73h-138l1 73v569z" />
    <glyph glyph-name="IJ" unicode="&#x132;" horiz-adv-x="582" 
d="M31 715h138l-1 -73v-569l1 -73h-138l1 73v569zM416 715h138l-1 -73v-464q0 -91 -43.5 -140.5t-121.5 -49.5q-83 0 -128.5 49.5t-45.5 140.5v47l-1 73h133l-1 -73v-51q0 -64 38 -64q33 0 33 64v541z" />
    <glyph glyph-name="ij" unicode="&#x133;" horiz-adv-x="582" 
d="M31 715h138l-1 -73v-569l1 -73h-138l1 73v569zM416 715h138l-1 -73v-464q0 -91 -43.5 -140.5t-121.5 -49.5q-83 0 -128.5 49.5t-45.5 140.5v47l-1 73h133l-1 -73v-51q0 -64 38 -64q33 0 33 64v541z" />
    <glyph glyph-name="Jcircumflex" unicode="&#x134;" horiz-adv-x="382" 
d="M216 715h138l-1 -73v-464q0 -91 -43.5 -140.5t-121.5 -49.5q-83 0 -128.5 49.5t-45.5 140.5v47l-1 73h133l-1 -73v-51q0 -64 38 -64q33 0 33 64v541zM406 745h-70l-51 41l-51 -41h-70l65 105h113z" />
    <glyph glyph-name="jcircumflex" unicode="&#x135;" horiz-adv-x="382" 
d="M216 715h138l-1 -73v-464q0 -91 -43.5 -140.5t-121.5 -49.5q-83 0 -128.5 49.5t-45.5 140.5v47l-1 73h133l-1 -73v-51q0 -64 38 -64q33 0 33 64v541zM406 745h-70l-51 41l-51 -41h-70l65 105h113z" />
    <glyph glyph-name="uni0136" unicode="&#x136;" horiz-adv-x="404" 
d="M257 715h136l-105 -326l118 -389h-145l-89 304h-4v-231l1 -73h-138l1 73v569l-1 73h138l-1 -73v-161q0 -43 -1 -63h4l18 58zM188 -156h-86l62 124h122z" />
    <glyph glyph-name="uni0137" unicode="&#x137;" horiz-adv-x="404" 
d="M257 715h136l-105 -326l118 -389h-145l-89 304h-4v-231l1 -73h-138l1 73v569l-1 73h138l-1 -73v-161q0 -43 -1 -63h4l18 58zM188 -156h-86l62 124h122z" />
    <glyph glyph-name="kgreenlandic" unicode="&#x138;" horiz-adv-x="511" 
d="M410 715h100l-34 -180h-66v180zM257 715h136l-105 -326l118 -389h-145l-89 304h-4v-231l1 -73h-138l1 73v569l-1 73h138l-1 -73v-161q0 -43 -1 -63h4l18 58z" />
    <glyph glyph-name="Lacute" unicode="&#x139;" horiz-adv-x="321" 
d="M313 0h-282l1 73v569l-1 73h138l-1 -73v-519h145v-123zM111 745h-87l63 105h121z" />
    <glyph glyph-name="lacute" unicode="&#x13a;" horiz-adv-x="321" 
d="M313 0h-282l1 73v569l-1 73h138l-1 -73v-519h145v-123zM111 745h-87l63 105h121z" />
    <glyph glyph-name="uni013B" unicode="&#x13b;" horiz-adv-x="322" 
d="M313 0h-282l1 73v569l-1 73h138l-1 -73v-519h145v-123zM148 -156h-86l62 124h122z" />
    <glyph glyph-name="uni013C" unicode="&#x13c;" horiz-adv-x="322" 
d="M313 0h-282l1 73v569l-1 73h138l-1 -73v-519h145v-123zM148 -156h-86l62 124h122z" />
    <glyph glyph-name="Lcaron" unicode="&#x13d;" horiz-adv-x="333" 
d="M313 0h-282l1 73v569l-1 73h138l-1 -73v-519h145v-123zM214 715h100l-34 -180h-66v180z" />
    <glyph glyph-name="lcaron" unicode="&#x13e;" horiz-adv-x="333" 
d="M313 0h-282l1 73v569l-1 73h138l-1 -73v-519h145v-123zM214 715h100l-34 -180h-66v180z" />
    <glyph glyph-name="Ldot" unicode="&#x13f;" horiz-adv-x="343" 
d="M209 304v105h104v-105h-104zM313 0h-282l1 73v569l-1 73h138l-1 -73v-519h145v-123z" />
    <glyph glyph-name="ldot" unicode="&#x140;" horiz-adv-x="343" 
d="M209 304v105h104v-105h-104zM313 0h-282l1 73v569l-1 73h138l-1 -73v-519h145v-123z" />
    <glyph glyph-name="Lslash" unicode="&#x141;" horiz-adv-x="341" 
d="M2 235v116l47 21v270l-1 73h138l-1 -73v-209l74 34v-117l-74 -33v-194h145v-123h-282l1 73v183z" />
    <glyph glyph-name="lslash" unicode="&#x142;" horiz-adv-x="341" 
d="M2 235v116l47 21v270l-1 73h138l-1 -73v-209l74 34v-117l-74 -33v-194h145v-123h-282l1 73v183z" />
    <glyph glyph-name="Nacute" unicode="&#x143;" horiz-adv-x="408" 
d="M31 0l1 73v569l-1 73h89l98 -240q8 -17 12.5 -29t8.5 -23.5t8 -21.5h4q-2 48 -2 84v157l-2 73h131l-2 -73v-569l2 -73h-86l-107 255q-6 13 -15 37t-10 26h-4q3 -35 3 -84v-161l1 -73h-129zM218 745h-87l63 105h121z" />
    <glyph glyph-name="nacute" unicode="&#x144;" horiz-adv-x="408" 
d="M31 0l1 73v569l-1 73h89l98 -240q8 -17 12.5 -29t8.5 -23.5t8 -21.5h4q-2 48 -2 84v157l-2 73h131l-2 -73v-569l2 -73h-86l-107 255q-6 13 -15 37t-10 26h-4q3 -35 3 -84v-161l1 -73h-129zM218 745h-87l63 105h121z" />
    <glyph glyph-name="uni0145" unicode="&#x145;" horiz-adv-x="408" 
d="M31 0l1 73v569l-1 73h89l98 -240q8 -17 12.5 -29t8.5 -23.5t8 -21.5h4q-2 48 -2 84v157l-2 73h131l-2 -73v-569l2 -73h-86l-107 255q-6 13 -15 37t-10 26h-4q3 -35 3 -84v-161l1 -73h-129zM191 -156h-86l62 124h122z" />
    <glyph glyph-name="uni0146" unicode="&#x146;" horiz-adv-x="408" 
d="M31 0l1 73v569l-1 73h89l98 -240q8 -17 12.5 -29t8.5 -23.5t8 -21.5h4q-2 48 -2 84v157l-2 73h131l-2 -73v-569l2 -73h-86l-107 255q-6 13 -15 37t-10 26h-4q3 -35 3 -84v-161l1 -73h-129zM191 -156h-86l62 124h122z" />
    <glyph glyph-name="Ncaron" unicode="&#x147;" horiz-adv-x="408" 
d="M31 0l1 73v569l-1 73h89l98 -240q8 -17 12.5 -29t8.5 -23.5t8 -21.5h4q-2 48 -2 84v157l-2 73h131l-2 -73v-569l2 -73h-86l-107 255q-6 13 -15 37t-10 26h-4q3 -35 3 -84v-161l1 -73h-129zM256 850h70l-64 -105h-113l-65 105h70l51 -40z" />
    <glyph glyph-name="ncaron" unicode="&#x148;" horiz-adv-x="408" 
d="M31 0l1 73v569l-1 73h89l98 -240q8 -17 12.5 -29t8.5 -23.5t8 -21.5h4q-2 48 -2 84v157l-2 73h131l-2 -73v-569l2 -73h-86l-107 255q-6 13 -15 37t-10 26h-4q3 -35 3 -84v-161l1 -73h-129zM256 850h70l-64 -105h-113l-65 105h70l51 -40z" />
    <glyph glyph-name="napostrophe" unicode="&#x149;" horiz-adv-x="504" 
d="M5 715h100l-34 -180h-66v180zM127 0l1 73v569l-1 73h89l98 -240q8 -17 12.5 -29t8.5 -23.5t8 -21.5h4q-2 48 -2 84v157l-2 73h131l-2 -73v-569l2 -73h-86l-107 255q-6 13 -15 37t-10 26h-4q3 -34 3 -84v-161l1 -73h-129z" />
    <glyph glyph-name="Eng" unicode="&#x14a;" horiz-adv-x="408" 
d="M249 22v81l-64 152q-6 13 -15 37t-10 26h-4q3 -35 3 -84v-161l1 -73h-129l1 73v569l-1 73h89l98 -240q8 -17 12.5 -29t8.5 -23.5t8 -21.5h4q-2 48 -2 84v157l-2 73h131l-2 -73v-616q0 -91 -44 -140.5t-126 -49.5v122q24 0 33.5 15.5t9.5 48.5z" />
    <glyph glyph-name="eng" unicode="&#x14b;" horiz-adv-x="408" 
d="M249 22v81l-64 152q-6 13 -15 37t-10 26h-4q3 -35 3 -84v-161l1 -73h-129l1 73v569l-1 73h89l98 -240q8 -17 12.5 -29t8.5 -23.5t8 -21.5h4q-2 48 -2 84v157l-2 73h131l-2 -73v-616q0 -91 -44 -140.5t-126 -49.5v122q24 0 33.5 15.5t9.5 48.5z" />
    <glyph glyph-name="Omacron" unicode="&#x14c;" horiz-adv-x="415" 
d="M207 -12q-87 0 -127 43q-28 30 -40.5 79.5t-12.5 152.5v189q0 103 12.5 152.5t40.5 79.5q41 43 127 43t127 -43q28 -31 41 -80.5t13 -151.5v-189q0 -103 -12.5 -153t-41.5 -79q-40 -43 -127 -43zM165 480v-245q0 -71 7 -98t35 -27q27 0 34.5 27.5t7.5 97.5v245
q0 70 -7.5 97.5t-34.5 27.5q-28 0 -35 -27t-7 -98zM304 753h-194v92h194v-92z" />
    <glyph glyph-name="omacron" unicode="&#x14d;" horiz-adv-x="415" 
d="M207 -12q-87 0 -127 43q-28 30 -40.5 79.5t-12.5 152.5v189q0 103 12.5 152.5t40.5 79.5q41 43 127 43t127 -43q28 -31 41 -80.5t13 -151.5v-189q0 -103 -12.5 -153t-41.5 -79q-40 -43 -127 -43zM165 480v-245q0 -71 7 -98t35 -27q27 0 34.5 27.5t7.5 97.5v245
q0 70 -7.5 97.5t-34.5 27.5q-28 0 -35 -27t-7 -98zM304 753h-194v92h194v-92z" />
    <glyph glyph-name="Obreve" unicode="&#x14e;" horiz-adv-x="415" 
d="M207 -12q-87 0 -127 43q-28 30 -40.5 79.5t-12.5 152.5v189q0 103 12.5 152.5t40.5 79.5q41 43 127 43t127 -43q28 -31 41 -80.5t13 -151.5v-189q0 -103 -12.5 -153t-41.5 -79q-40 -43 -127 -43zM165 480v-245q0 -71 7 -98t35 -27q27 0 34.5 27.5t7.5 97.5v245
q0 70 -7.5 97.5t-34.5 27.5q-28 0 -35 -27t-7 -98zM235 850h70v-17q0 -44 -29 -66.5t-69 -22.5q-42 0 -72.5 22.5t-30.5 66.5v17h72v-6q0 -31 31 -31q28 0 28 31v6z" />
    <glyph glyph-name="obreve" unicode="&#x14f;" horiz-adv-x="415" 
d="M207 -12q-87 0 -127 43q-28 30 -40.5 79.5t-12.5 152.5v189q0 103 12.5 152.5t40.5 79.5q41 43 127 43t127 -43q28 -31 41 -80.5t13 -151.5v-189q0 -103 -12.5 -153t-41.5 -79q-40 -43 -127 -43zM165 480v-245q0 -71 7 -98t35 -27q27 0 34.5 27.5t7.5 97.5v245
q0 70 -7.5 97.5t-34.5 27.5q-28 0 -35 -27t-7 -98zM235 850h70v-17q0 -44 -29 -66.5t-69 -22.5q-42 0 -72.5 22.5t-30.5 66.5v17h72v-6q0 -31 31 -31q28 0 28 31v6z" />
    <glyph glyph-name="Ohungarumlaut" unicode="&#x150;" horiz-adv-x="415" 
d="M207 -12q-87 0 -127 43q-28 30 -40.5 79.5t-12.5 152.5v189q0 103 12.5 152.5t40.5 79.5q41 43 127 43t127 -43q28 -31 41 -80.5t13 -151.5v-189q0 -103 -12.5 -153t-41.5 -79q-40 -43 -127 -43zM165 480v-245q0 -71 7 -98t35 -27q27 0 34.5 27.5t7.5 97.5v245
q0 70 -7.5 97.5t-34.5 27.5q-28 0 -35 -27t-7 -98zM175 745h-89l33 105h113zM308 745h-86l37 105h107z" />
    <glyph glyph-name="ohungarumlaut" unicode="&#x151;" horiz-adv-x="415" 
d="M207 -12q-87 0 -127 43q-28 30 -40.5 79.5t-12.5 152.5v189q0 103 12.5 152.5t40.5 79.5q41 43 127 43t127 -43q28 -31 41 -80.5t13 -151.5v-189q0 -103 -12.5 -153t-41.5 -79q-40 -43 -127 -43zM165 480v-245q0 -71 7 -98t35 -27q27 0 34.5 27.5t7.5 97.5v245
q0 70 -7.5 97.5t-34.5 27.5q-28 0 -35 -27t-7 -98zM175 745h-89l33 105h113zM308 745h-86l37 105h107z" />
    <glyph glyph-name="OE" unicode="&#x152;" horiz-adv-x="543" 
d="M500 434v-136h-115v-175h146v-123h-283v39h-3q-29 -43 -78 -43q-56 0 -91 41q-29 37 -39 92t-10 145v167q0 91 12 153t51 97q32 28 77 28q51 0 78 -43h3v39h280v-121h-143v-160h115zM165 480v-245q0 -71 7 -98t35 -27q27 0 34.5 27.5t7.5 97.5v245q0 70 -7.5 97.5
t-34.5 27.5q-28 0 -35 -27t-7 -98z" />
    <glyph glyph-name="oe" unicode="&#x153;" horiz-adv-x="543" 
d="M500 434v-136h-115v-175h146v-123h-283v39h-3q-29 -43 -78 -43q-56 0 -91 41q-29 37 -39 92t-10 145v167q0 91 12 153t51 97q32 28 77 28q51 0 78 -43h3v39h280v-121h-143v-160h115zM165 480v-245q0 -71 7 -98t35 -27q27 0 34.5 27.5t7.5 97.5v245q0 70 -7.5 97.5
t-34.5 27.5q-28 0 -35 -27t-7 -98z" />
    <glyph glyph-name="Racute" unicode="&#x154;" 
d="M168 598v-186h11q36 0 50 23t14 68v3q0 92 -63 92h-12zM178 288h-10v-215l1 -73h-138l1 73v569l-1 73h153q196 0 196 -195v-2q0 -86 -24.5 -121t-71.5 -49v-5q40 -11 67 -44t28 -112q1 -117 16 -172v-15h-135q-12 38 -15 77.5t-5 131.5q-2 79 -62 79zM209 745h-87l63 105
h121z" />
    <glyph glyph-name="racute" unicode="&#x155;" 
d="M168 598v-186h11q36 0 50 23t14 68v3q0 92 -63 92h-12zM178 288h-10v-215l1 -73h-138l1 73v569l-1 73h153q196 0 196 -195v-2q0 -86 -24.5 -121t-71.5 -49v-5q40 -11 67 -44t28 -112q1 -117 16 -172v-15h-135q-12 38 -15 77.5t-5 131.5q-2 79 -62 79zM209 745h-87l63 105
h121z" />
    <glyph glyph-name="uni0156" unicode="&#x156;" 
d="M168 598v-186h11q36 0 50 23t14 68v3q0 92 -63 92h-12zM178 288h-10v-215l1 -73h-138l1 73v569l-1 73h153q196 0 196 -195v-2q0 -86 -24.5 -121t-71.5 -49v-5q40 -11 67 -44t28 -112q1 -117 16 -172v-15h-135q-12 38 -15 77.5t-5 131.5q-2 79 -62 79zM184 -156h-86
l62 124h122z" />
    <glyph glyph-name="uni0157" unicode="&#x157;" 
d="M168 598v-186h11q36 0 50 23t14 68v3q0 92 -63 92h-12zM178 288h-10v-215l1 -73h-138l1 73v569l-1 73h153q196 0 196 -195v-2q0 -86 -24.5 -121t-71.5 -49v-5q40 -11 67 -44t28 -112q1 -117 16 -172v-15h-135q-12 38 -15 77.5t-5 131.5q-2 79 -62 79zM184 -156h-86
l62 124h122z" />
    <glyph glyph-name="Rcaron" unicode="&#x158;" 
d="M168 598v-186h11q36 0 50 23t14 68v3q0 92 -63 92h-12zM178 288h-10v-215l1 -73h-138l1 73v569l-1 73h153q196 0 196 -195v-2q0 -86 -24.5 -121t-71.5 -49v-5q40 -11 67 -44t28 -112q1 -117 16 -172v-15h-135q-12 38 -15 77.5t-5 131.5q-2 79 -62 79zM247 850h70
l-64 -105h-113l-65 105h70l51 -40z" />
    <glyph glyph-name="rcaron" unicode="&#x159;" 
d="M168 598v-186h11q36 0 50 23t14 68v3q0 92 -63 92h-12zM178 288h-10v-215l1 -73h-138l1 73v569l-1 73h153q196 0 196 -195v-2q0 -86 -24.5 -121t-71.5 -49v-5q40 -11 67 -44t28 -112q1 -117 16 -172v-15h-135q-12 38 -15 77.5t-5 131.5q-2 79 -62 79zM247 850h70
l-64 -105h-113l-65 105h70l51 -40z" />
    <glyph glyph-name="Sacute" unicode="&#x15a;" horiz-adv-x="373" 
d="M11 212h135q0 -98 45 -98q37 0 37 58q0 71 -58 115l-46 35q-57 43 -82.5 91t-25.5 116q0 95 48.5 147t130.5 52q168 0 164 -219h-131q0 92 -38 92q-41 0 -41 -60q0 -59 58 -102l51 -38q52 -38 78.5 -83.5t26.5 -122.5q0 -102 -47.5 -155t-130.5 -53t-129.5 55t-44.5 170z
M202 745h-87l63 105h121z" />
    <glyph glyph-name="sacute" unicode="&#x15b;" horiz-adv-x="373" 
d="M11 212h135q0 -98 45 -98q37 0 37 58q0 71 -58 115l-46 35q-57 43 -82.5 91t-25.5 116q0 95 48.5 147t130.5 52q168 0 164 -219h-131q0 92 -38 92q-41 0 -41 -60q0 -59 58 -102l51 -38q52 -38 78.5 -83.5t26.5 -122.5q0 -102 -47.5 -155t-130.5 -53t-129.5 55t-44.5 170z
M202 745h-87l63 105h121z" />
    <glyph glyph-name="Scircumflex" unicode="&#x15c;" horiz-adv-x="373" 
d="M11 212h135q0 -98 45 -98q37 0 37 58q0 71 -58 115l-46 35q-57 43 -82.5 91t-25.5 116q0 95 48.5 147t130.5 52q168 0 164 -219h-131q0 92 -38 92q-41 0 -41 -60q0 -59 58 -102l51 -38q52 -38 78.5 -83.5t26.5 -122.5q0 -102 -47.5 -155t-130.5 -53t-129.5 55t-44.5 170z
M310 745h-70l-51 41l-51 -41h-70l65 105h113z" />
    <glyph glyph-name="scircumflex" unicode="&#x15d;" horiz-adv-x="373" 
d="M11 212h135q0 -98 45 -98q37 0 37 58q0 71 -58 115l-46 35q-57 43 -82.5 91t-25.5 116q0 95 48.5 147t130.5 52q168 0 164 -219h-131q0 92 -38 92q-41 0 -41 -60q0 -59 58 -102l51 -38q52 -38 78.5 -83.5t26.5 -122.5q0 -102 -47.5 -155t-130.5 -53t-129.5 55t-44.5 170z
M310 745h-70l-51 41l-51 -41h-70l65 105h113z" />
    <glyph glyph-name="uni015E" unicode="&#x15e;" horiz-adv-x="373" 
d="M11 212h135q0 -98 45 -98q37 0 37 58q0 71 -58 115l-46 35q-57 43 -82.5 91t-25.5 116q0 95 48.5 147t130.5 52q168 0 164 -219h-131q0 92 -38 92q-41 0 -41 -60q0 -59 58 -102l51 -38q52 -38 78.5 -83.5t26.5 -122.5q0 -91 -38 -143t-106 -62l-4 -20q55 -13 55 -61
q0 -70 -116 -70q-30 0 -59 9v58q27 -9 52 -9q38 0 38 21q0 23 -52 23l10 50q-136 27 -132 221z" />
    <glyph glyph-name="uni015F" unicode="&#x15f;" horiz-adv-x="373" 
d="M11 212h135q0 -98 45 -98q37 0 37 58q0 71 -58 115l-46 35q-57 43 -82.5 91t-25.5 116q0 95 48.5 147t130.5 52q168 0 164 -219h-131q0 92 -38 92q-41 0 -41 -60q0 -59 58 -102l51 -38q52 -38 78.5 -83.5t26.5 -122.5q0 -91 -38 -143t-106 -62l-4 -20q55 -13 55 -61
q0 -70 -116 -70q-30 0 -59 9v58q27 -9 52 -9q38 0 38 21q0 23 -52 23l10 50q-136 27 -132 221z" />
    <glyph glyph-name="Scaron" unicode="&#x160;" horiz-adv-x="373" 
d="M11 212h135q0 -98 45 -98q37 0 37 58q0 71 -58 115l-46 35q-57 43 -82.5 91t-25.5 116q0 95 48.5 147t130.5 52q168 0 164 -219h-131q0 92 -38 92q-41 0 -41 -60q0 -59 58 -102l51 -38q52 -38 78.5 -83.5t26.5 -122.5q0 -102 -47.5 -155t-130.5 -53t-129.5 55t-44.5 170z
M240 850h70l-64 -105h-113l-65 105h70l51 -40z" />
    <glyph glyph-name="scaron" unicode="&#x161;" horiz-adv-x="373" 
d="M11 212h135q0 -98 45 -98q37 0 37 58q0 71 -58 115l-46 35q-57 43 -82.5 91t-25.5 116q0 95 48.5 147t130.5 52q168 0 164 -219h-131q0 92 -38 92q-41 0 -41 -60q0 -59 58 -102l51 -38q52 -38 78.5 -83.5t26.5 -122.5q0 -102 -47.5 -155t-130.5 -53t-129.5 55t-44.5 170z
M240 850h70l-64 -105h-113l-65 105h70l51 -40z" />
    <glyph glyph-name="uni0162" unicode="&#x162;" horiz-adv-x="346" 
d="M337 594h-95v-521l1 -73h-29l-7 -30q55 -13 55 -61q0 -70 -116 -70q-30 0 -59 9v58q27 -9 52 -9q38 0 38 21q0 23 -52 23l12 59h-32l1 73v521h-97v121h328v-121z" />
    <glyph glyph-name="uni0163" unicode="&#x163;" horiz-adv-x="346" 
d="M337 594h-95v-521l1 -73h-29l-7 -30q55 -13 55 -61q0 -70 -116 -70q-30 0 -59 9v58q27 -9 52 -9q38 0 38 21q0 23 -52 23l12 59h-32l1 73v521h-97v121h328v-121z" />
    <glyph glyph-name="Tcaron" unicode="&#x164;" horiz-adv-x="346" 
d="M337 594h-95v-521l1 -73h-138l1 73v521h-97v121h328v-121zM224 850h70l-64 -105h-113l-65 105h70l51 -40z" />
    <glyph glyph-name="tcaron" unicode="&#x165;" horiz-adv-x="346" 
d="M337 594h-95v-521l1 -73h-138l1 73v521h-97v121h328v-121zM224 850h70l-64 -105h-113l-65 105h70l51 -40z" />
    <glyph glyph-name="Tbar" unicode="&#x166;" horiz-adv-x="353" 
d="M339 594h-94v-169h74v-106h-74v-246l1 -73h-138l1 73v246h-76v106h76v169h-97v121h327v-121z" />
    <glyph glyph-name="tbar" unicode="&#x167;" horiz-adv-x="353" 
d="M339 594h-94v-169h74v-106h-74v-246l1 -73h-138l1 73v246h-76v106h76v169h-97v121h327v-121z" />
    <glyph glyph-name="Utilde" unicode="&#x168;" 
d="M241 715h138l-1 -73v-464q0 -91 -46.5 -140.5t-128.5 -49.5q-83 0 -128.5 49.5t-45.5 140.5v464l-1 73h138l-1 -73v-468q0 -64 38 -64t38 64v541zM322 850v-68q-36 -44 -83 -44q-21 0 -45 19.5t-39 19.5q-19 0 -59 -32h-8v69q38 44 84 44q20 0 44.5 -19.5t39.5 -19.5
q19 0 58 31h8z" />
    <glyph glyph-name="utilde" unicode="&#x169;" 
d="M241 715h138l-1 -73v-464q0 -91 -46.5 -140.5t-128.5 -49.5q-83 0 -128.5 49.5t-45.5 140.5v464l-1 73h138l-1 -73v-468q0 -64 38 -64t38 64v541zM322 850v-68q-36 -44 -83 -44q-21 0 -45 19.5t-39 19.5q-19 0 -59 -32h-8v69q38 44 84 44q20 0 44.5 -19.5t39.5 -19.5
q19 0 58 31h8z" />
    <glyph glyph-name="Umacron" unicode="&#x16a;" 
d="M241 715h138l-1 -73v-464q0 -91 -46.5 -140.5t-128.5 -49.5q-83 0 -128.5 49.5t-45.5 140.5v464l-1 73h138l-1 -73v-468q0 -64 38 -64t38 64v541zM302 753h-194v92h194v-92z" />
    <glyph glyph-name="umacron" unicode="&#x16b;" 
d="M241 715h138l-1 -73v-464q0 -91 -46.5 -140.5t-128.5 -49.5q-83 0 -128.5 49.5t-45.5 140.5v464l-1 73h138l-1 -73v-468q0 -64 38 -64t38 64v541zM302 753h-194v92h194v-92z" />
    <glyph glyph-name="Ubreve" unicode="&#x16c;" 
d="M241 715h138l-1 -73v-464q0 -91 -46.5 -140.5t-128.5 -49.5q-83 0 -128.5 49.5t-45.5 140.5v464l-1 73h138l-1 -73v-468q0 -64 38 -64t38 64v541zM232 850h70v-17q0 -44 -29 -66.5t-69 -22.5q-42 0 -72.5 22.5t-30.5 66.5v17h72v-6q0 -31 31 -31q28 0 28 31v6z" />
    <glyph glyph-name="ubreve" unicode="&#x16d;" 
d="M241 715h138l-1 -73v-464q0 -91 -46.5 -140.5t-128.5 -49.5q-83 0 -128.5 49.5t-45.5 140.5v464l-1 73h138l-1 -73v-468q0 -64 38 -64t38 64v541zM232 850h70v-17q0 -44 -29 -66.5t-69 -22.5q-42 0 -72.5 22.5t-30.5 66.5v17h72v-6q0 -31 31 -31q28 0 28 31v6z" />
    <glyph glyph-name="Uring" unicode="&#x16e;" 
d="M241 715h138l-1 -73v-464q0 -91 -46.5 -140.5t-128.5 -49.5q-83 0 -128.5 49.5t-45.5 140.5v464l-1 73h138l-1 -73v-468q0 -64 38 -64t38 64v541zM297 819q0 -35 -25 -60t-68 -25q-44 0 -68.5 25t-24.5 60q0 37 24.5 63t68.5 26q43 0 68 -26t25 -63zM234 819q0 14 -8 24
t-22 10q-15 0 -23 -10t-8 -24q0 -12 8 -20.5t23 -8.5q14 0 22 8.5t8 20.5z" />
    <glyph glyph-name="uring" unicode="&#x16f;" 
d="M241 715h138l-1 -73v-464q0 -91 -46.5 -140.5t-128.5 -49.5q-83 0 -128.5 49.5t-45.5 140.5v464l-1 73h138l-1 -73v-468q0 -64 38 -64t38 64v541zM297 819q0 -35 -25 -60t-68 -25q-44 0 -68.5 25t-24.5 60q0 37 24.5 63t68.5 26q43 0 68 -26t25 -63zM234 819q0 14 -8 24
t-22 10q-15 0 -23 -10t-8 -24q0 -12 8 -20.5t23 -8.5q14 0 22 8.5t8 20.5z" />
    <glyph glyph-name="Uhungarumlaut" unicode="&#x170;" 
d="M241 715h138l-1 -73v-464q0 -91 -46.5 -140.5t-128.5 -49.5q-83 0 -128.5 49.5t-45.5 140.5v464l-1 73h138l-1 -73v-468q0 -64 38 -64t38 64v541zM173 745h-89l33 105h113zM306 745h-86l37 105h107z" />
    <glyph glyph-name="uhungarumlaut" unicode="&#x171;" 
d="M241 715h138l-1 -73v-464q0 -91 -46.5 -140.5t-128.5 -49.5q-83 0 -128.5 49.5t-45.5 140.5v464l-1 73h138l-1 -73v-468q0 -64 38 -64t38 64v541zM173 745h-89l33 105h113zM306 745h-86l37 105h107z" />
    <glyph glyph-name="Uogonek" unicode="&#x172;" 
d="M282 -84v-66q-24 -12 -57 -12q-43 0 -74.5 17.5t-31.5 55.5q0 43 40 81q-63 12 -96.5 60t-33.5 126v464l-1 73h138l-1 -73v-468q0 -64 38 -64t38 64v541h138l-1 -73v-464q0 -79 -35 -127t-99 -59q-26 -33 -26 -58q0 -26 31 -26q17 0 33 8z" />
    <glyph glyph-name="uogonek" unicode="&#x173;" 
d="M282 -84v-66q-24 -12 -57 -12q-43 0 -74.5 17.5t-31.5 55.5q0 43 40 81q-63 12 -96.5 60t-33.5 126v464l-1 73h138l-1 -73v-468q0 -64 38 -64t38 64v541h138l-1 -73v-464q0 -79 -35 -127t-99 -59q-26 -33 -26 -58q0 -26 31 -26q17 0 33 8z" />
    <glyph glyph-name="Wcircumflex" unicode="&#x174;" horiz-adv-x="533" 
d="M219 715h91l44 -287q2 -12 9 -74h4q3 38 8 74l38 287h123l-123 -715h-101l-32 221l-13 100h-5l-13 -100l-32 -221h-101l-118 715h125l38 -287l8 -74h4l9 74zM385 745h-70l-51 41l-51 -41h-70l65 105h113z" />
    <glyph glyph-name="wcircumflex" unicode="&#x175;" horiz-adv-x="533" 
d="M219 715h91l44 -287q2 -12 9 -74h4q3 38 8 74l38 287h123l-123 -715h-101l-32 221l-13 100h-5l-13 -100l-32 -221h-101l-118 715h125l38 -287l8 -74h4l9 74zM385 745h-70l-51 41l-51 -41h-70l65 105h113z" />
    <glyph glyph-name="Ycircumflex" unicode="&#x176;" horiz-adv-x="378" 
d="M185 463h4q5 26 16 71l40 181h133l-123 -429v-213l1 -73h-138l1 73v213l-119 429h136l35 -181q12 -60 14 -71zM309 745h-70l-51 41l-51 -41h-70l65 105h113z" />
    <glyph glyph-name="ycircumflex" unicode="&#x177;" horiz-adv-x="378" 
d="M185 463h4q5 26 16 71l40 181h133l-123 -429v-213l1 -73h-138l1 73v213l-119 429h136l35 -181q12 -60 14 -71zM309 745h-70l-51 41l-51 -41h-70l65 105h113z" />
    <glyph glyph-name="Ydieresis" unicode="&#x178;" horiz-adv-x="378" 
d="M185 463h4q5 26 16 71l40 181h133l-123 -429v-213l1 -73h-138l1 73v213l-119 429h136l35 -181q12 -60 14 -71zM64 745v105h103v-105h-103zM208 745v105h103v-105h-103z" />
    <glyph glyph-name="Zacute" unicode="&#x179;" horiz-adv-x="314" 
d="M299 123v-123h-289v80l138 512h-122v123h273v-80l-137 -512h137zM175 745h-87l63 105h121z" />
    <glyph glyph-name="zacute" unicode="&#x17a;" horiz-adv-x="314" 
d="M299 123v-123h-289v80l138 512h-122v123h273v-80l-137 -512h137zM175 745h-87l63 105h121z" />
    <glyph glyph-name="Zdotaccent" unicode="&#x17b;" horiz-adv-x="314" 
d="M299 123v-123h-289v80l138 512h-122v123h273v-80l-137 -512h137zM111 745v105h103v-105h-103z" />
    <glyph glyph-name="zdotaccent" unicode="&#x17c;" horiz-adv-x="314" 
d="M299 123v-123h-289v80l138 512h-122v123h273v-80l-137 -512h137zM111 745v105h103v-105h-103z" />
    <glyph glyph-name="Zcaron" unicode="&#x17d;" horiz-adv-x="314" 
d="M299 123v-123h-289v80l138 512h-122v123h273v-80l-137 -512h137zM213 850h70l-64 -105h-113l-65 105h70l51 -40z" />
    <glyph glyph-name="zcaron" unicode="&#x17e;" horiz-adv-x="314" 
d="M299 123v-123h-289v80l138 512h-122v123h273v-80l-137 -512h137zM213 850h70l-64 -105h-113l-65 105h70l51 -40z" />
    <glyph glyph-name="uni018F" unicode="&#x18f;" 
d="M27 265v137h215v78q0 72 -6.5 98.5t-33.5 26.5q-26 0 -32.5 -25.5t-6.5 -96.5v-6h-134v4q0 87 13 132t40 70q42 44 122 44q83 0 122 -44q29 -30 41.5 -79t12.5 -152v-189q0 -103 -12.5 -152.5t-41.5 -79.5q-38 -43 -122 -43q-82 0 -122 43q-28 31 -41.5 81.5t-13.5 152.5
zM202 110q14 0 22.5 7.5t12 27t4.5 37t1 53.5v52h-81v-24q0 -90 6.5 -121.5t34.5 -31.5z" />
    <glyph glyph-name="uni0192" unicode="&#x192;" horiz-adv-x="307" 
d="M13 318v101h69v143q0 79 41 118t117 39q34 0 54 -5v-108q-7 1 -28 1q-25 0 -37 -13t-12 -43v-132h77v-101h-77v-335q0 -79 -39 -118t-111 -39q-29 0 -54 5v108q10 -1 25 -1q44 0 44 56v324h-69z" />
    <glyph glyph-name="Aringacute" unicode="&#x1fa;" horiz-adv-x="406" 
d="M143 102l-18 -102h-130l142 660q-29 24 -29 65q0 37 24.5 63t68.5 26q43 0 68 -26t25 -63q0 -38 -27 -62l145 -663h-138l-18 102h-113zM214 833h-87l63 105h121zM187 354l-23 -133h72l-22 133q-3 17 -7 49.5t-5 37.5h-3q-1 -5 -5 -37.5t-7 -49.5zM231 725q0 14 -8 24
t-22 10q-15 0 -23 -10t-8 -24q0 -12 8 -20.5t23 -8.5q14 0 22 8.5t8 20.5z" />
    <glyph glyph-name="aringacute" unicode="&#x1fb;" horiz-adv-x="406" 
d="M143 102l-18 -102h-130l142 660q-29 24 -29 65q0 37 24.5 63t68.5 26q43 0 68 -26t25 -63q0 -38 -27 -62l145 -663h-138l-18 102h-113zM214 833h-87l63 105h121zM187 354l-23 -133h72l-22 133q-3 17 -7 49.5t-5 37.5h-3q-1 -5 -5 -37.5t-7 -49.5zM231 725q0 14 -8 24
t-22 10q-15 0 -23 -10t-8 -24q0 -12 8 -20.5t23 -8.5q14 0 22 8.5t8 20.5z" />
    <glyph glyph-name="AEacute" unicode="&#x1fc;" horiz-adv-x="565" 
d="M155 123l-30 -123h-134l203 715h356v-121h-143v-160h115v-136h-115v-175h146v-123h-283l1 73v50h-116zM236 455l-52 -213h87v353h-7q-11 -69 -28 -140zM387 745h-87l63 105h121z" />
    <glyph glyph-name="aeacute" unicode="&#x1fd;" horiz-adv-x="565" 
d="M155 123l-30 -123h-134l203 715h356v-121h-143v-160h115v-136h-115v-175h146v-123h-283l1 73v50h-116zM236 455l-52 -213h87v353h-7q-11 -69 -28 -140zM387 745h-87l63 105h121z" />
    <glyph glyph-name="Oslashacute" unicode="&#x1fe;" horiz-adv-x="415" 
d="M175 -88h-101l23 104q-10 7 -17 15q-28 30 -40.5 79.5t-12.5 152.5v189q0 103 12.5 152.5t40.5 79.5q41 43 127 43q11 0 29 -2l8 30h-77l18 125h100l-30 -94h97l-23 -97l5 -5q28 -31 41 -80.5t13 -151.5v-189q0 -103 -12.5 -153t-41.5 -79q-40 -43 -127 -43q-2 0 -7 0.5
t-8 0.5zM160 480v-217l83 314q-10 28 -36 28q-28 0 -37.5 -28.5t-9.5 -96.5zM207 110q27 0 37 29t10 96v176l-76 -289q11 -12 29 -12z" />
    <glyph glyph-name="oslashacute" unicode="&#x1ff;" horiz-adv-x="415" 
d="M175 -88h-101l23 104q-10 7 -17 15q-28 30 -40.5 79.5t-12.5 152.5v189q0 103 12.5 152.5t40.5 79.5q41 43 127 43q11 0 29 -2l8 30h-77l18 125h100l-30 -94h97l-23 -97l5 -5q28 -31 41 -80.5t13 -151.5v-189q0 -103 -12.5 -153t-41.5 -79q-40 -43 -127 -43q-2 0 -7 0.5
t-8 0.5zM160 480v-217l83 314q-10 28 -36 28q-28 0 -37.5 -28.5t-9.5 -96.5zM207 110q27 0 37 29t10 96v176l-76 -289q11 -12 29 -12z" />
    <glyph glyph-name="uni0218" unicode="&#x218;" horiz-adv-x="373" 
d="M11 212h135q0 -98 45 -98q37 0 37 58q0 71 -58 115l-46 35q-57 43 -82.5 91t-25.5 116q0 95 48.5 147t130.5 52q168 0 164 -219h-131q0 92 -38 92q-41 0 -41 -60q0 -59 58 -102l51 -38q52 -38 78.5 -83.5t26.5 -122.5q0 -102 -47.5 -155t-130.5 -53t-129.5 55t-44.5 170z
M173 -156h-86l62 124h122z" />
    <glyph glyph-name="uni0219" unicode="&#x219;" horiz-adv-x="373" 
d="M11 212h135q0 -98 45 -98q37 0 37 58q0 71 -58 115l-46 35q-57 43 -82.5 91t-25.5 116q0 95 48.5 147t130.5 52q168 0 164 -219h-131q0 92 -38 92q-41 0 -41 -60q0 -59 58 -102l51 -38q52 -38 78.5 -83.5t26.5 -122.5q0 -102 -47.5 -155t-130.5 -53t-129.5 55t-44.5 170z
M173 -156h-86l62 124h122z" />
    <glyph glyph-name="uni021A" unicode="&#x21a;" horiz-adv-x="346" 
d="M337 594h-95v-521l1 -73h-138l1 73v521h-97v121h328v-121zM158 -156h-86l62 124h122z" />
    <glyph glyph-name="uni021B" unicode="&#x21b;" horiz-adv-x="346" 
d="M337 594h-95v-521l1 -73h-138l1 73v521h-97v121h328v-121zM158 -156h-86l62 124h122z" />
    <glyph glyph-name="uni0237" unicode="&#x237;" horiz-adv-x="382" 
d="M216 715h138l-1 -73v-464q0 -91 -43.5 -140.5t-121.5 -49.5q-83 0 -128.5 49.5t-45.5 140.5v47l-1 73h133l-1 -73v-51q0 -64 38 -64q33 0 33 64v541z" />
    <glyph glyph-name="h.superior" unicode="&#x2b0;" horiz-adv-x="313" 
d="M23 252v535h111v-162h1q50 53 90 53q67 0 67 -80v-346h-112v298q0 28 -16 28q-13 0 -30 -14v-312h-111z" />
    <glyph glyph-name="r.superior" unicode="&#x2b3;" horiz-adv-x="218" 
d="M203 678q6 0 12 -2v-121q-10 2 -25 2q-56 0 -56 -79v-226h-111v419h102v-63h3q40 70 75 70z" />
    <glyph glyph-name="circumflex" unicode="&#x2c6;" horiz-adv-x="289" 
d="M265 745h-70l-51 41l-51 -41h-70l65 105h113z" />
    <glyph glyph-name="caron" unicode="&#x2c7;" horiz-adv-x="289" 
d="M195 850h70l-64 -105h-113l-65 105h70l51 -40z" />
    <glyph glyph-name="breve" unicode="&#x2d8;" horiz-adv-x="287" 
d="M172 850h70v-17q0 -44 -29 -66.5t-69 -22.5q-42 0 -72.5 22.5t-30.5 66.5v17h72v-6q0 -31 31 -31q28 0 28 31v6z" />
    <glyph glyph-name="dotaccent" unicode="&#x2d9;" horiz-adv-x="289" 
d="M93 745v105h103v-105h-103z" />
    <glyph glyph-name="ring" unicode="&#x2da;" horiz-adv-x="289" 
d="M237 819q0 -35 -25 -60t-68 -25q-44 0 -68.5 25t-24.5 60q0 37 24.5 63t68.5 26q43 0 68 -26t25 -63zM174 819q0 14 -8 24t-22 10q-15 0 -23 -10t-8 -24q0 -12 8 -20.5t23 -8.5q14 0 22 8.5t8 20.5z" />
    <glyph glyph-name="ogonek" unicode="&#x2db;" horiz-adv-x="289" 
d="M221 -84v-66q-24 -12 -57 -12q-43 0 -74.5 17.5t-31.5 55.5q0 31 22.5 60.5t53.5 46.5h74q-19 -16 -35 -40.5t-16 -43.5q0 -26 31 -26q17 0 33 8z" />
    <glyph glyph-name="tilde" unicode="&#x2dc;" horiz-adv-x="289" 
d="M262 850v-68q-36 -44 -83 -44q-21 0 -45 19.5t-39 19.5q-19 0 -59 -32h-8v69q38 44 84 44q20 0 44.5 -19.5t39.5 -19.5q19 0 58 31h8z" />
    <glyph glyph-name="hungarumlaut" unicode="&#x2dd;" horiz-adv-x="289" 
d="M113 745h-89l33 105h113zM246 745h-86l37 105h107z" />
    <glyph glyph-name="Delta" unicode="&#x394;" horiz-adv-x="408" 
d="M398 0h-388l102 715h185zM191 438l-36 -320h100l-37 320q-1 10 -5.5 55.5t-6.5 61.5h-3q-5 -62 -12 -117z" />
    <glyph glyph-name="Delta" unicode="&#x2206;" horiz-adv-x="408" 
d="M398 0h-388l102 715h185zM191 438l-36 -320h100l-37 320q-1 10 -5.5 55.5t-6.5 61.5h-3q-5 -62 -12 -117z" />
    <glyph glyph-name="Omega" unicode="&#x3a9;" horiz-adv-x="396" 
d="M20 0v116h58v5q-29 20 -42.5 55.5t-13.5 107.5v168q0 103 12.5 153t41.5 79q38 43 121 43t123 -43q28 -30 41 -80t13 -152v-168q0 -72 -13 -107.5t-44 -55.5v-5h58v-116h-160v113q21 11 21 68v299q0 74 -6.5 99.5t-32.5 25.5q-13 0 -20.5 -6t-11 -24t-4 -36.5t-0.5 -58.5
v-299q0 -59 21 -68v-113h-162z" />
    <glyph glyph-name="Omega" unicode="&#x2126;" horiz-adv-x="396" 
d="M20 0v116h58v5q-29 20 -42.5 55.5t-13.5 107.5v168q0 103 12.5 153t41.5 79q38 43 121 43t123 -43q28 -30 41 -80t13 -152v-168q0 -72 -13 -107.5t-44 -55.5v-5h58v-116h-160v113q21 11 21 68v299q0 74 -6.5 99.5t-32.5 25.5q-13 0 -20.5 -6t-11 -24t-4 -36.5t-0.5 -58.5
v-299q0 -59 21 -68v-113h-162z" />
    <glyph glyph-name="pi" unicode="&#x3c0;" horiz-adv-x="387" 
d="M230 436h-50l-53 -436h-121l57 436h-32v104h346v-104h-30l-46 -363q-3 -29 -1 -73h-120q-2 40 3 73z" />
    <glyph glyph-name="uni04D9" unicode="&#x4d9;" 
d="M27 265v137h215v78q0 72 -6.5 98.5t-33.5 26.5q-26 0 -32.5 -25.5t-6.5 -96.5v-6h-134v4q0 87 13 132t40 70q42 44 122 44q83 0 122 -44q29 -30 41.5 -79t12.5 -152v-189q0 -103 -12.5 -152.5t-41.5 -79.5q-38 -43 -122 -43q-82 0 -122 43q-28 31 -41.5 81.5t-13.5 152.5
zM202 110q14 0 22.5 7.5t12 27t4.5 37t1 53.5v52h-81v-24q0 -90 6.5 -121.5t34.5 -31.5z" />
    <glyph glyph-name="Wgrave" unicode="&#x1e80;" horiz-adv-x="533" 
d="M219 715h91l44 -287q2 -12 9 -74h4q3 38 8 74l38 287h123l-123 -715h-101l-32 221l-13 100h-5l-13 -100l-32 -221h-101l-118 715h125l38 -287l8 -74h4l9 74zM337 745h-85l-99 105h125z" />
    <glyph glyph-name="wgrave" unicode="&#x1e81;" horiz-adv-x="533" 
d="M219 715h91l44 -287q2 -12 9 -74h4q3 38 8 74l38 287h123l-123 -715h-101l-32 221l-13 100h-5l-13 -100l-32 -221h-101l-118 715h125l38 -287l8 -74h4l9 74zM337 745h-85l-99 105h125z" />
    <glyph glyph-name="Wacute" unicode="&#x1e82;" horiz-adv-x="533" 
d="M219 715h91l44 -287q2 -12 9 -74h4q3 38 8 74l38 287h123l-123 -715h-101l-32 221l-13 100h-5l-13 -100l-32 -221h-101l-118 715h125l38 -287l8 -74h4l9 74zM277 745h-87l63 105h121z" />
    <glyph glyph-name="wacute" unicode="&#x1e83;" horiz-adv-x="533" 
d="M219 715h91l44 -287q2 -12 9 -74h4q3 38 8 74l38 287h123l-123 -715h-101l-32 221l-13 100h-5l-13 -100l-32 -221h-101l-118 715h125l38 -287l8 -74h4l9 74zM277 745h-87l63 105h121z" />
    <glyph glyph-name="Wdieresis" unicode="&#x1e84;" horiz-adv-x="533" 
d="M219 715h91l44 -287q2 -12 9 -74h4q3 38 8 74l38 287h123l-123 -715h-101l-32 221l-13 100h-5l-13 -100l-32 -221h-101l-118 715h125l38 -287l8 -74h4l9 74zM140 745v105h103v-105h-103zM284 745v105h103v-105h-103z" />
    <glyph glyph-name="wdieresis" unicode="&#x1e85;" horiz-adv-x="533" 
d="M219 715h91l44 -287q2 -12 9 -74h4q3 38 8 74l38 287h123l-123 -715h-101l-32 221l-13 100h-5l-13 -100l-32 -221h-101l-118 715h125l38 -287l8 -74h4l9 74zM140 745v105h103v-105h-103zM284 745v105h103v-105h-103z" />
    <glyph glyph-name="Ygrave" unicode="&#x1ef2;" horiz-adv-x="378" 
d="M185 463h4q5 26 16 71l40 181h133l-123 -429v-213l1 -73h-138l1 73v213l-119 429h136l35 -181q12 -60 14 -71zM261 745h-85l-99 105h125z" />
    <glyph glyph-name="ygrave" unicode="&#x1ef3;" horiz-adv-x="378" 
d="M185 463h4q5 26 16 71l40 181h133l-123 -429v-213l1 -73h-138l1 73v213l-119 429h136l35 -181q12 -60 14 -71zM261 745h-85l-99 105h125z" />
    <glyph glyph-name="uni2009" unicode="&#x2009;" horiz-adv-x="30" 
 />
    <glyph glyph-name="endash" unicode="&#x2013;" horiz-adv-x="265" 
d="M24 317v110h217v-110h-217z" />
    <glyph glyph-name="emdash" unicode="&#x2014;" horiz-adv-x="489" 
d="M24 317v110h440v-110h-440z" />
    <glyph glyph-name="quoteleft" unicode="&#x2018;" horiz-adv-x="167" 
d="M149 580v-146h-133v139l66 142h61l-34 -135h40z" />
    <glyph glyph-name="quoteright" unicode="&#x2019;" horiz-adv-x="168" 
d="M19 569v146h133v-139l-66 -142h-61l34 135h-40z" />
    <glyph glyph-name="quotesinglbase" unicode="&#x201a;" horiz-adv-x="174" 
d="M21 0v146h133v-139l-66 -142h-61l34 135h-40z" />
    <glyph glyph-name="quotedblleft" unicode="&#x201c;" horiz-adv-x="331" 
d="M149 581v-146h-133v139l66 142h61l-34 -135h40zM314 581v-146h-133v139l66 142h61l-34 -135h40z" />
    <glyph glyph-name="quotedblright" unicode="&#x201d;" horiz-adv-x="331" 
d="M183 570v146h133v-139l-66 -142h-61l34 135h-40zM18 570v146h133v-139l-66 -142h-61l34 135h-40z" />
    <glyph glyph-name="quotedblbase" unicode="&#x201e;" horiz-adv-x="338" 
d="M186 0v146h133v-139l-66 -142h-61l34 135h-40zM21 0v146h133v-139l-66 -142h-61l34 135h-40z" />
    <glyph glyph-name="dagger" unicode="&#x2020;" horiz-adv-x="288" 
d="M12 516v100l89 -6l-2 105h91l-3 -105l89 6v-100l-89 6l3 -334h-91l2 334z" />
    <glyph glyph-name="daggerdbl" unicode="&#x2021;" horiz-adv-x="288" 
d="M12 516v100l89 -6l-2 105h91l-3 -105l88 6v-100l-88 6v-99l88 9v-100l-88 6l3 -150h-91l2 150l-89 -6v100l89 -9v99z" />
    <glyph glyph-name="bullet" unicode="&#x2022;" horiz-adv-x="341" 
d="M30 372q0 64 40 107.5t101 43.5q58 0 100 -44t42 -107t-42 -106t-100 -43q-61 0 -101 42.5t-40 106.5z" />
    <glyph glyph-name="ellipsis" unicode="&#x2026;" horiz-adv-x="571" 
d="M32 0v146h133v-146h-133zM219 0v146h133v-146h-133zM406 0v146h133v-146h-133z" />
    <glyph glyph-name="perthousand" unicode="&#x2030;" horiz-adv-x="1104" 
d="M164 300q-68 0 -107 36q-25 23 -35 58.5t-10 97.5v38q0 62 9.5 97.5t35.5 58.5q40 37 107 37t107 -37q25 -23 34.5 -58.5t9.5 -97.5v-38q0 -64 -9.5 -98.5t-34.5 -57.5q-38 -36 -107 -36zM139 552v-82q0 -40 4.5 -55t20.5 -15q15 0 19.5 15.5t4.5 54.5v82q0 39 -4.5 54.5
t-19.5 15.5q-16 0 -20.5 -15t-4.5 -55zM231 0l195 715h113l-196 -715h-112zM607 -8q-68 0 -107 36q-25 23 -35 58.5t-10 97.5v38q0 62 9.5 97.5t35.5 58.5q40 37 107 37t107 -37q25 -23 34.5 -58.5t9.5 -97.5v-38q0 -64 -9.5 -98.5t-34.5 -57.5q-38 -36 -107 -36zM582 244
v-82q0 -40 4.5 -55t20.5 -15q15 0 19.5 15.5t4.5 54.5v82q0 39 -4.5 54.5t-19.5 15.5q-16 0 -20.5 -15t-4.5 -55zM941 -8q-68 0 -107 36q-25 23 -35 58.5t-10 97.5v38q0 62 9.5 97.5t35.5 58.5q40 37 107 37t107 -37q25 -23 34.5 -58.5t9.5 -97.5v-38q0 -64 -9.5 -98.5
t-34.5 -57.5q-38 -36 -107 -36zM916 244v-82q0 -40 4.5 -55t20.5 -15q15 0 19.5 15.5t4.5 54.5v82q0 39 -4.5 54.5t-19.5 15.5q-16 0 -20.5 -15t-4.5 -55z" />
    <glyph glyph-name="guilsinglleft" unicode="&#x2039;" horiz-adv-x="218" 
d="M201 203h-101l-89 159v29l88 157h102l-66 -173z" />
    <glyph glyph-name="guilsinglright" unicode="&#x203a;" horiz-adv-x="218" 
d="M120 203h-102l67 172l-67 173h103l87 -157v-29z" />
    <glyph glyph-name="fraction" unicode="&#x2044;" horiz-adv-x="158" 
d="M-62 0l180 715h100l-179 -715h-101z" />
    <glyph glyph-name="zero.superior" unicode="&#x2070;" horiz-adv-x="304" 
d="M152 253q-61 0 -98 35q-23 22 -32 54.5t-9 95.5v101q0 62 9.5 94.5t31.5 53.5q37 35 98 35q63 0 100 -35q22 -21 30 -53t8 -95v-101q0 -64 -8.5 -96t-30.5 -54q-35 -35 -99 -35zM126 559v-142q0 -25 1 -38t7 -24t18 -11q18 0 22.5 17.5t4.5 55.5v142q0 38 -4.5 55.5
t-22.5 17.5q-17 0 -21.5 -17.5t-4.5 -55.5z" />
    <glyph glyph-name="i.superior" unicode="&#x2071;" horiz-adv-x="156" 
d="M23 671h111v-419h-111v419zM23 701v86h111v-86h-111z" />
    <glyph glyph-name="four.superior" unicode="&#x2074;" horiz-adv-x="310" 
d="M147 261l1 84h-144v99l132 271h121v-277h50v-93h-50v-84h-110zM91 438h56l2 36q2 37 9 98h-4q-24 -59 -32 -74z" />
    <glyph glyph-name="five.superior" unicode="&#x2075;" horiz-adv-x="287" 
d="M142 253q-65 0 -92 27q-37 37 -37 125v4h103v-4q0 -62 25 -62q17 0 21.5 15t4.5 55v12q0 52 -8 61q-6 7 -17 7q-16 0 -31 -25h-95l11 247h236v-90h-138l-4 -73q33 25 69 25q35 0 57 -20q31 -30 31 -132v-12q0 -89 -43 -130q-32 -30 -93 -30z" />
    <glyph glyph-name="six.superior" unicode="&#x2076;" horiz-adv-x="296" 
d="M124 561v-40q25 28 61 28q40 0 66 -22q36 -31 36 -108v-11q0 -93 -42 -126q-35 -29 -96 -29q-56 0 -91 29q-46 35 -46 164v92q0 120 47 158q34 26 88 26q60 0 91 -28q41 -37 41 -114v-1h-112v1q0 29 -3.5 39.5t-16.5 10.5q-16 0 -19.5 -14t-3.5 -55zM144 458
q-14 0 -20 -6v-31q0 -21 0.5 -32.5t3 -23.5t8 -17t14.5 -5q23 0 23 49v11q0 16 -0.5 24.5t-7.5 19.5t-21 11z" />
    <glyph glyph-name="seven.superior" unicode="&#x2077;" horiz-adv-x="237" 
d="M147 261h-119q10 183 104 358h-129v96h231v-80q-74 -146 -87 -374z" />
    <glyph glyph-name="eight.superior" unicode="&#x2078;" horiz-adv-x="298" 
d="M9 387v8q0 81 70 107v2q-61 30 -61 93v6q0 64 47 97q32 22 82 22q57 0 87 -22q46 -33 46 -97v-6q0 -64 -62 -93v-2q71 -26 71 -107v-8q0 -69 -48 -108q-35 -26 -93 -26q-56 0 -91 26q-48 39 -48 108zM120 401v-5q0 -52 28 -52q29 0 29 52v5q0 51 -29 51q-28 0 -28 -51z
M127 589q0 -42 21 -42q23 0 23 42v3q0 13 -1 20t-6 13.5t-16 6.5q-10 0 -15 -6.5t-5.5 -13.5t-0.5 -20v-3z" />
    <glyph glyph-name="nine.superior" unicode="&#x2079;" horiz-adv-x="297" 
d="M171 414v40q-25 -28 -61 -28q-40 0 -66 22q-36 31 -36 108v11q0 93 42 126q35 29 96 29q56 0 91 -29q46 -35 46 -164v-92q0 -120 -47 -158q-34 -26 -88 -26q-60 0 -91 28q-41 37 -41 114v1h112v-1q0 -29 3.5 -39.5t16.5 -10.5q16 0 19.5 14t3.5 55zM151 517q14 0 20 6v31
q0 21 -0.5 32.5t-3 23.5t-8 17t-14.5 5q-23 0 -23 -49v-11q0 -16 0.5 -24.5t7.5 -19.5t21 -11z" />
    <glyph glyph-name="parenleft.superior" unicode="&#x207d;" horiz-adv-x="199" 
d="M192 203h-80q-40 43 -69 115t-29 157q0 84 29.5 158t68.5 111h80q-73 -128 -73 -270q0 -146 73 -271z" />
    <glyph glyph-name="parenright.superior" unicode="&#x207e;" horiz-adv-x="200" 
d="M88 203h-81q75 132 75 271q0 145 -75 270h81q39 -37 68.5 -111t29.5 -158q0 -85 -29 -157t-69 -115z" />
    <glyph glyph-name="n.superior" unicode="&#x207f;" horiz-adv-x="312" 
d="M23 252v419h107v-50h1q54 57 94 57q67 0 67 -80v-346h-112v298q0 28 -16 28q-13 0 -30 -14v-312h-111z" />
    <glyph glyph-name="zero.inferior" unicode="&#x2080;" horiz-adv-x="304" 
d="M152 -80q-61 0 -98 35q-23 22 -32 54.5t-9 95.5v101q0 62 9.5 94.5t31.5 53.5q37 35 98 35q63 0 100 -35q22 -21 30 -53t8 -95v-101q0 -64 -8.5 -96t-30.5 -54q-35 -35 -99 -35zM126 226v-142q0 -25 1 -38t7 -24t18 -11q18 0 22.5 17.5t4.5 55.5v142q0 38 -4.5 55.5
t-22.5 17.5q-17 0 -21.5 -17.5t-4.5 -55.5z" />
    <glyph glyph-name="one.inferior" unicode="&#x2081;" horiz-adv-x="209" 
d="M65 241h-65v62q84 30 105 81h71v-456h-111v313z" />
    <glyph glyph-name="two.inferior" unicode="&#x2082;" horiz-adv-x="286" 
d="M276 255v-1q0 -45 -19 -84t-67 -94l-46 -51h128v-97h-263v90l66 85q7 9 23 29t23 28.5t18 24.5t16 26t9 22.5t4 23.5v1q0 42 -23 42q-29 0 -29 -68v-2h-105v1q0 80 37 119t101 39t95.5 -36t31.5 -98z" />
    <glyph glyph-name="three.inferior" unicode="&#x2083;" horiz-adv-x="292" 
d="M6 76h108v-1q0 -34 4.5 -49.5t22.5 -15.5q13 0 19.5 9t7.5 18.5t1 27.5v2q0 27 -8 37t-28 10h-28v97h27q17 0 24 9t7 34v1q0 23 -4 34t-20 11q-24 0 -24 -59v-1h-104v1q0 82 37 116q36 32 98 32q56 0 90 -29q36 -32 36 -98v-1q0 -65 -50 -92v-2q61 -25 61 -108v-2
q0 -71 -39 -104q-37 -33 -100 -33q-65 0 -99 32q-39 36 -39 123v1z" />
    <glyph glyph-name="four.inferior" unicode="&#x2084;" horiz-adv-x="310" 
d="M147 -72l1 84h-144v99l132 271h121v-277h50v-93h-50v-84h-110zM91 105h56l2 36q2 37 9 98h-4q-24 -59 -32 -74z" />
    <glyph glyph-name="five.inferior" unicode="&#x2085;" horiz-adv-x="288" 
d="M142 -80q-65 0 -92 27q-37 37 -37 125v4h103v-4q0 -62 25 -62q17 0 21.5 15t4.5 55v12q0 52 -8 61q-6 7 -17 7q-16 0 -31 -25h-95l11 247h236v-90h-138l-4 -73q33 25 69 25q35 0 57 -20q31 -30 31 -132v-12q0 -89 -43 -130q-32 -30 -93 -30z" />
    <glyph glyph-name="six.inferior" unicode="&#x2086;" horiz-adv-x="297" 
d="M124 228v-40q25 28 61 28q40 0 66 -22q36 -31 36 -108v-11q0 -93 -42 -126q-35 -29 -96 -29q-56 0 -91 29q-46 35 -46 164v92q0 120 47 158q34 26 88 26q60 0 91 -28q41 -37 41 -114v-1h-112v1q0 29 -3.5 39.5t-16.5 10.5q-16 0 -19.5 -14t-3.5 -55zM144 125
q-14 0 -20 -6v-31q0 -21 0.5 -32.5t3 -23.5t8 -17t14.5 -5q23 0 23 49v11q0 16 -0.5 24.5t-7.5 19.5t-21 11z" />
    <glyph glyph-name="seven.inferior" unicode="&#x2087;" horiz-adv-x="238" 
d="M147 -72h-119q10 183 104 358h-129v96h231v-80q-74 -146 -87 -374z" />
    <glyph glyph-name="eight.inferior" unicode="&#x2088;" horiz-adv-x="298" 
d="M9 54v8q0 81 70 107v2q-61 30 -61 93v6q0 64 47 97q32 22 82 22q57 0 87 -22q46 -33 46 -97v-6q0 -64 -62 -93v-2q71 -26 71 -107v-8q0 -69 -48 -108q-35 -26 -93 -26q-56 0 -91 26q-48 39 -48 108zM120 68v-5q0 -52 28 -52q29 0 29 52v5q0 51 -29 51q-28 0 -28 -51z
M127 256q0 -42 21 -42q23 0 23 42v3q0 13 -1 20t-6 13.5t-16 6.5q-10 0 -15 -6.5t-5.5 -13.5t-0.5 -20v-3z" />
    <glyph glyph-name="nine.inferior" unicode="&#x2089;" horiz-adv-x="297" 
d="M171 81v40q-25 -28 -61 -28q-40 0 -66 22q-36 31 -36 108v11q0 93 42 126q35 29 96 29q56 0 91 -29q46 -35 46 -164v-92q0 -120 -47 -158q-34 -26 -88 -26q-60 0 -91 28q-41 37 -41 114v1h112v-1q0 -29 3.5 -39.5t16.5 -10.5q16 0 19.5 14t3.5 55zM151 184q14 0 20 6v31
q0 21 -0.5 32.5t-3 23.5t-8 17t-14.5 5q-23 0 -23 -49v-11q0 -16 0.5 -24.5t7.5 -19.5t21 -11z" />
    <glyph glyph-name="colonmonetary" unicode="&#x20a1;" horiz-adv-x="383" 
d="M168 -70h-81v122q-9 6 -17 16q-29 30 -41.5 79.5t-12.5 152.5v115q0 102 14 158.5t57 87.5v88h81v-60q28 2 42 0v60h83v-86q45 -26 59.5 -81.5t14.5 -134.5v-4h-134v6q0 36 -1 53.5t-4.5 35.5t-11.5 24t-22 6q-27 0 -33.5 -26.5t-6.5 -98.5v-171q0 -39 0.5 -55.5
t4.5 -36.5t12 -26.5t23 -6.5q28 0 34.5 26t6.5 99v6v6h134v-4q0 -39 -1.5 -64t-8.5 -60t-23.5 -61.5t-42.5 -44.5v-120h-83v96q-20 -3 -42 0v-96z" />
    <glyph glyph-name="franc" unicode="&#x20a3;" horiz-adv-x="379" 
d="M331 328h-117v-105h98v-101h-98v-49l1 -73h-138l1 73v49h-64v101h64v419l-1 73h276v-128h-139v-123h117v-136z" />
    <glyph glyph-name="lira" unicode="&#x20a4;" horiz-adv-x="441" 
d="M23 392v84h38q-5 35 -5 64q0 94 47 140.5t119 46.5q81 0 126.5 -56t44.5 -143h-133q-2 26 -4 40t-9.5 27t-20.5 13q-16 0 -23.5 -11.5t-7.5 -44.5q0 -38 8 -76h143v-84h-120l14 -47h106v-83h-93v-12q0 -63 -22 -119q11 -16 30 -16q24 0 32 21t8 78h126q0 -106 -44.5 -166
t-116.5 -60q-65 0 -105 52q-54 -40 -139 -40v132q49 0 70.5 18.5t21.5 74.5q0 13 -2 37h-89v83h70l-12 47h-58z" />
    <glyph glyph-name="peseta" unicode="&#x20a7;" horiz-adv-x="965" 
d="M36 0l1 73v569l-1 73h171q92 0 130 -45t45 -129h41l9 138h121v-138h60v-112h-60v-263q0 -53 33 -53q13 0 27 2v-115q-43 -5 -61 -5q-133 0 -133 136v298h-37q-8 -82 -47.5 -126t-127.5 -44h-34v-186l1 -73h-138zM626 176h119q9 -76 46 -76q33 0 33 38q0 22 -12 36.5
t-38 30.5l-54 32q-86 58 -86 158q0 68 42 112t116 44q73 0 115.5 -42t40.5 -122h-120q-4 28 -12.5 41t-27.5 13q-29 0 -29 -32q0 -18 9.5 -30.5t32.5 -27.5l53 -31q103 -66 103 -170q0 -75 -44.5 -118t-120.5 -43q-73 0 -120.5 44t-45.5 143zM173 379h7q43 0 55.5 27.5
t12.5 78.5v4q0 55 -14 80.5t-54 25.5h-7v-216z" />
    <glyph glyph-name="Euro" unicode="&#x20ac;" horiz-adv-x="447" 
d="M15 392v84h65q3 145 57 205q44 46 125 46q77 0 117 -44q22 -24 36 -65t14 -86v-2h-131q0 75 -39 75q-27 0 -33.5 -26.5t-6.5 -102.5h154v-84h-154v-47h154v-83h-154v-27q0 -75 6.5 -100t33.5 -25q25 0 32.5 21t7.5 69h132v-1q0 -50 -14.5 -96t-39.5 -73q-41 -42 -118 -42
q-79 0 -122 45q-57 59 -57 229h-65v83h65v47h-65z" />
    <glyph glyph-name="uni20B1" unicode="&#x20b1;" horiz-adv-x="509" 
d="M14 440v101h65v101l-1 73h171q92 0 130 -45t45 -129h71v-101h-71q-6 -86 -45 -133.5t-130 -47.5h-34v-186l1 -73h-138l1 73v367h-65zM215 379h7q43 0 55.5 27.5t12.5 78.5v4q0 55 -14 80.5t-54 25.5h-7v-216z" />
    <glyph glyph-name="uni20B9" unicode="&#x20b9;" horiz-adv-x="361" 
d="M20 453v85h117q-12 60 -60 60h-57v117h326v-117h-103q23 -19 31 -60h72v-85h-73q-8 -60 -30.5 -86.5t-61.5 -38.5v-5q40 -11 67 -44t28 -112q1 -103 16 -152v-15h-135q-12 34 -15 70t-5 119q-2 79 -62 79h-55v124h56q51 0 61 61h-117z" />
    <glyph glyph-name="uni20BA" unicode="&#x20ba;" horiz-adv-x="438" 
d="M18 381v86l61 26v149l-1 73h138l-1 -73v-91l138 59v-88l-138 -58v-53l138 59v-88l-138 -58v-201h27q18 0 29 12q10 11 13.5 39.5t3.5 107.5v1h137v-1q0 -114 -14.5 -166t-54.5 -84q-41 -32 -119 -32h-159l1 73v193l-61 -25v86l61 26v53z" />
    <glyph glyph-name="uni20BD" unicode="&#x20bd;" horiz-adv-x="440" 
d="M14 287v119h64v236l-1 73h140q117 0 163 -56.5t46 -157.5v-2q0 -100 -42.5 -156t-149.5 -56h-20v-64h81v-101h-81v-49l1 -73h-138l1 73v49h-64v101h64v64h-64zM214 406h12q62 0 62 93v3q0 94 -62 94h-12v-190z" />
    <glyph glyph-name="uni2113" unicode="&#x2113;" horiz-adv-x="371" 
d="M339 133v-101q-44 -44 -131 -44q-149 0 -149 133v31l-44 -38v120l44 39v267q0 101 38.5 144t108.5 43q154 0 154 -183q0 -94 -41.5 -162.5t-127.5 -138.5v-87q0 -34 11 -46t36 -12q47 0 101 35zM191 365q30 38 44 79t14 102q0 83 -31 83q-16 0 -21.5 -16t-5.5 -59v-189z
" />
    <glyph glyph-name="uni2117" unicode="&#x2117;" horiz-adv-x="711" 
d="M232 107q0 9 0.5 28t0.5 29v388q0 10 -0.5 29t-0.5 28h126q99 0 138.5 -45.5t39.5 -123.5v-1q0 -80 -39 -125.5t-139 -45.5h-21v-104q0 -10 0.5 -29t0.5 -28h-106zM337 357h22q75 0 75 81v2q0 81 -75 81h-22v-164zM11 357q0 179 90.5 295.5t252.5 116.5q164 0 255 -116.5
t91 -295.5t-91 -295.5t-255 -116.5q-162 0 -252.5 116.5t-90.5 295.5zM101 357q0 -148 67 -240.5t186 -92.5q120 0 188 92.5t68 240.5t-68 240.5t-188 92.5q-119 0 -186 -92.5t-67 -240.5z" />
    <glyph glyph-name="uni2120" unicode="&#x2120;" horiz-adv-x="470" 
d="M304 418l-29 139l-7 39h-3q3 -30 3 -39v-139h-58v297h85l25 -126q5 -28 6 -38h3q1 10 6 38l25 126h84v-297h-60v139q0 19 2 39h-3q0 -1 -7 -39l-29 -139h-43zM12 516h61q4 -44 28 -44q19 0 19 17q0 20 -31 44l-29 23q-42 34 -42 82q0 37 24 59.5t61 22.5q39 0 61.5 -25
t21.5 -71h-59q-7 37 -25 37t-18 -18q0 -11 28 -36l29 -25q48 -44 48 -89q0 -37 -25 -59t-63 -21q-89 5 -89 103z" />
    <glyph glyph-name="trademark" unicode="&#x2122;" horiz-adv-x="476" 
d="M310 418l-29 139l-7 39h-3q3 -30 3 -39v-139h-58v297h85l25 -126q5 -28 6 -38h3q1 10 6 38l25 126h84v-297h-60v139q0 19 2 39h-3q0 -1 -7 -39l-29 -139h-43zM191 659h-48v-241h-65v241h-48v56h161v-56z" />
    <glyph glyph-name="estimated" unicode="&#x212e;" horiz-adv-x="876" 
d="M819 170q-71 -93 -169.5 -139t-207.5 -46q-173 0 -300 106t-126 266q0 109 62.5 195t159 130.5t204.5 44.5q112 0 207.5 -49t154 -142t58.5 -210h-656q-8 0 -8 -10v-122q0 -18 8 -34q25 -46 97 -77.5t146 -31.5q68 0 135.5 30t115.5 89h119zM208 396h461q10 0 10 9v123
q0 12 -7 25q-25 40 -91 73.5t-142 33.5q-81 0 -145.5 -34.5t-87.5 -72.5q-8 -13 -8 -25v-123q0 -9 10 -9z" />
    <glyph glyph-name="onethird" unicode="&#x2153;" horiz-adv-x="659" 
d="M65 574h-65v62q84 30 105 81h71v-456h-111v313zM147 0l180 715h100l-179 -715h-101zM373 148h108v-1q0 -34 4.5 -49.5t22.5 -15.5q13 0 19.5 9t7.5 18.5t1 27.5v2q0 27 -8 37t-28 10h-28v97h27q17 0 24 9t7 34v1q0 23 -4 34t-20 11q-24 0 -24 -59v-1h-104v1q0 82 37 116
q36 32 98 32q56 0 90 -29q36 -32 36 -98v-1q0 -65 -50 -92v-2q61 -25 61 -108v-2q0 -71 -39 -104q-37 -33 -100 -33q-65 0 -99 32q-39 36 -39 123v1z" />
    <glyph glyph-name="twothirds" unicode="&#x2154;" horiz-adv-x="736" 
d="M276 588v-1q0 -45 -19 -84t-67 -94l-46 -51h128v-97h-263v90l66 85q7 9 23 29t23 28.5t18 24.5t16 26t9 22.5t4 23.5v1q0 42 -23 42q-29 0 -29 -68v-2h-105v1q0 80 37 119t101 39t95.5 -36t31.5 -98zM224 0l180 715h100l-179 -715h-101zM450 148h108v-1q0 -34 4.5 -49.5
t22.5 -15.5q13 0 19.5 9t7.5 18.5t1 27.5v2q0 27 -8 37t-28 10h-28v97h27q17 0 24 9t7 34v1q0 23 -4 34t-20 11q-24 0 -24 -59v-1h-104v1q0 82 37 116q36 32 98 32q56 0 90 -29q36 -32 36 -98v-1q0 -65 -50 -92v-2q61 -25 61 -108v-2q0 -71 -39 -104q-37 -33 -100 -33
q-65 0 -99 32q-39 36 -39 123v1z" />
    <glyph glyph-name="oneeighth" unicode="&#x215b;" horiz-adv-x="665" 
d="M65 574h-65v62q84 30 105 81h71v-456h-111v313zM147 0l180 715h100l-179 -715h-101zM376 126v8q0 81 70 107v2q-61 30 -61 93v6q0 64 47 97q32 22 82 22q57 0 87 -22q46 -33 46 -97v-6q0 -64 -62 -93v-2q71 -26 71 -107v-8q0 -69 -48 -108q-35 -26 -93 -26q-56 0 -91 26
q-48 39 -48 108zM487 140v-5q0 -52 28 -52q29 0 29 52v5q0 51 -29 51q-28 0 -28 -51zM494 328q0 -42 21 -42q23 0 23 42v3q0 13 -1 20t-6 13.5t-16 6.5q-10 0 -15 -6.5t-5.5 -13.5t-0.5 -20v-3z" />
    <glyph glyph-name="threeeighths" unicode="&#x215c;" horiz-adv-x="748" 
d="M6 409h108v-1q0 -34 4.5 -49.5t22.5 -15.5q13 0 19.5 9t7.5 18.5t1 27.5v2q0 27 -8 37t-28 10h-28v97h27q17 0 24 9t7 34v1q0 23 -4 34t-20 11q-24 0 -24 -59v-1h-104v1q0 82 37 116q36 32 98 32q56 0 90 -29q36 -32 36 -98v-1q0 -65 -50 -92v-2q61 -25 61 -108v-2
q0 -71 -39 -104q-37 -33 -100 -33q-65 0 -99 32q-39 36 -39 123v1zM230 0l180 715h100l-179 -715h-101zM459 126v8q0 81 70 107v2q-61 30 -61 93v6q0 64 47 97q32 22 82 22q57 0 87 -22q46 -33 46 -97v-6q0 -64 -62 -93v-2q71 -26 71 -107v-8q0 -69 -48 -108
q-35 -26 -93 -26q-56 0 -91 26q-48 39 -48 108zM570 140v-5q0 -52 28 -52q29 0 29 52v5q0 51 -29 51q-28 0 -28 -51zM577 328q0 -42 21 -42q23 0 23 42v3q0 13 -1 20t-6 13.5t-16 6.5q-10 0 -15 -6.5t-5.5 -13.5t-0.5 -20v-3z" />
    <glyph glyph-name="fiveeighths" unicode="&#x215d;" horiz-adv-x="743" 
d="M142 253q-65 0 -92 27q-37 37 -37 125v4h103v-4q0 -62 25 -62q17 0 21.5 15t4.5 55v12q0 52 -8 61q-6 7 -17 7q-16 0 -31 -25h-95l11 247h236v-90h-138l-4 -73q33 25 69 25q35 0 57 -20q31 -30 31 -132v-12q0 -89 -43 -130q-32 -30 -93 -30zM225 0l180 715h100l-179 -715
h-101zM454 126v8q0 81 70 107v2q-61 30 -61 93v6q0 64 47 97q32 22 82 22q57 0 87 -22q46 -33 46 -97v-6q0 -64 -62 -93v-2q71 -26 71 -107v-8q0 -69 -48 -108q-35 -26 -93 -26q-56 0 -91 26q-48 39 -48 108zM565 140v-5q0 -52 28 -52q29 0 29 52v5q0 51 -29 51
q-28 0 -28 -51zM572 328q0 -42 21 -42q23 0 23 42v3q0 13 -1 20t-6 13.5t-16 6.5q-10 0 -15 -6.5t-5.5 -13.5t-0.5 -20v-3z" />
    <glyph glyph-name="seveneighths" unicode="&#x215e;" horiz-adv-x="672" 
d="M147 261h-119q10 183 104 358h-129v96h231v-80q-74 -146 -87 -374zM154 0l180 715h100l-179 -715h-101zM383 126v8q0 81 70 107v2q-61 30 -61 93v6q0 64 47 97q32 22 82 22q57 0 87 -22q46 -33 46 -97v-6q0 -64 -62 -93v-2q71 -26 71 -107v-8q0 -69 -48 -108
q-35 -26 -93 -26q-56 0 -91 26q-48 39 -48 108zM494 140v-5q0 -52 28 -52q29 0 29 52v5q0 51 -29 51q-28 0 -28 -51zM501 328q0 -42 21 -42q23 0 23 42v3q0 13 -1 20t-6 13.5t-16 6.5q-10 0 -15 -6.5t-5.5 -13.5t-0.5 -20v-3z" />
    <glyph glyph-name="partialdiff" unicode="&#x2202;" horiz-adv-x="390" 
d="M183 535q45 0 74 -42q-2 69 -18 98t-59 29q-26 0 -58 -6l-4 96q38 9 68 9q100 0 145 -74.5t45 -237.5q0 -196 -55 -306.5t-149 -110.5q-69 0 -114.5 59t-45.5 183q0 128 51 215.5t120 87.5zM182 92q10 0 19 7.5t19 28t18 53.5t13.5 88.5t6.5 127.5q-19 37 -50 37
q-36 0 -56 -57.5t-20 -142.5q0 -71 14 -106.5t36 -35.5z" />
    <glyph glyph-name="product" unicode="&#x220f;" 
d="M242 -164l1 73v685h-77v-685l1 -73h-137l1 73v733l-1 73h349l-1 -73v-733l1 -73h-137z" />
    <glyph glyph-name="summation" unicode="&#x2211;" horiz-adv-x="353" 
d="M14 -55l167 331l-167 330v109h322v-116h-168l146 -282v-81l-146 -284h168v-116h-322v109z" />
    <glyph glyph-name="minus" unicode="&#x2212;" horiz-adv-x="482" 
d="M32 354h417v-110h-417v110z" />
    <glyph glyph-name="radical" unicode="&#x221a;" horiz-adv-x="469" 
d="M10 320v108h154l68 -232h2l108 527h130l-190 -723h-100l-103 320h-69z" />
    <glyph glyph-name="infinity" unicode="&#x221e;" horiz-adv-x="625" 
d="M467 140q-49 0 -84 22t-72 66q-69 -88 -153 -88q-64 0 -105 42.5t-41 120.5q0 81 41 123t105 42q49 0 84 -23.5t69 -68.5q37 46 72.5 69t84.5 23q63 0 104.5 -42t41.5 -123q0 -78 -41.5 -120.5t-105.5 -42.5zM458 239q22 0 35 16.5t13 47.5q0 32 -13.5 49t-31.5 17
q-20 0 -38.5 -16t-45.5 -50q25 -33 43 -48.5t38 -15.5zM165 239q22 0 39.5 15t43.5 49q-27 35 -44.5 50.5t-37.5 15.5q-18 0 -32 -17.5t-14 -48.5q0 -30 13 -47t32 -17z" />
    <glyph glyph-name="integral" unicode="&#x222b;" horiz-adv-x="266" 
d="M75 0v564q0 151 130 151h56v-105h-30q-19 0 -27.5 -12.5t-8.5 -46.5v-564q0 -75 -35.5 -113t-99.5 -38h-55v105h31q39 0 39 59z" />
    <glyph glyph-name="approxequal" unicode="&#x2248;" horiz-adv-x="482" 
d="M32 330v112q56 59 120 59q44 0 91 -29.5t92 -29.5q60 0 114 59v-114q-25 -25 -60.5 -41t-64.5 -16q-41 0 -89 28.5t-96 28.5q-53 0 -107 -57zM32 101v112q56 58 120 58q44 0 91 -29t92 -29q61 0 114 58v-114q-25 -25 -60.5 -41t-64.5 -16q-41 0 -89 27.5t-96 27.5
q-53 0 -107 -54z" />
    <glyph glyph-name="notequal" unicode="&#x2260;" horiz-adv-x="482" 
d="M32 361v109h233l45 89h118l-45 -89h66v-109h-120l-61 -122h181v-110h-235l-43 -87h-121l44 87h-62v110h117l61 122h-178z" />
    <glyph glyph-name="lessequal" unicode="&#x2264;" horiz-adv-x="482" 
d="M42 399l397 186v-124l-180 -77l-49 -19v-9l49 -17l180 -77v-123l-397 183v77zM42 109h397v-109h-397v109z" />
    <glyph glyph-name="greaterequal" unicode="&#x2265;" horiz-adv-x="482" 
d="M42 0v109h397v-109h-397zM42 585l397 -186v-77l-397 -183v123l181 77l48 17v9l-48 19l-181 77v124z" />
    <glyph glyph-name="lozenge" unicode="&#x25ca;" horiz-adv-x="415" 
d="M283 270l-78 119l-76 -118l77 -121zM162 540h87l156 -247v-42l-156 -251h-87l-152 251v42z" />
    <glyph glyph-name="R_p" unicode="&#xf6dd;" horiz-adv-x="776" 
d="M418 468l-1 73h130v-48h4q29 31 49.5 44t43.5 13q37 0 59 -23q36 -37 36 -180v-139q0 -85 -7.5 -128t-29.5 -66q-23 -23 -60 -23q-40 0 -89 46v-128l1 -73h-137l1 73v559zM579 429q-11 0 -26 -3v-313q10 -2 28 -2q25 0 25 60v193q0 24 -1 35t-7 20.5t-19 9.5zM168 598
v-186h11q36 0 50 23t14 68v3q0 92 -63 92h-12zM178 288h-10v-215l1 -73h-138l1 73v569l-1 73h153q196 0 196 -195v-2q0 -86 -24.5 -121t-71.5 -49v-5q40 -11 67 -44t28 -112q1 -117 16 -172v-15h-135q-12 38 -15 77.5t-5 131.5q-2 79 -62 79z" />
    <glyph glyph-name="atftype.com" unicode="&#xf8ff;" horiz-adv-x="1100" 
d="M170 0v715h760v-715h-760zM318 248l9 58h52l10 -58h63l-55 303h-86l-56 -303h63zM760 376h63v55h-63v66h79v54h-143l1 -31v-241l-1 -31h65l-1 31v97zM588 497h54v54h-170v-54h54v-218l-1 -31h64l-1 31v218zM586 -63q8 0 8 -5q0 -1 -1.5 -5t-3.5 -9.5t-3 -11.5q0 -4 3 -4
q1 0 5.5 1t7.5 1q26 0 26 -21q0 -22 -18.5 -51.5t-41.5 -29.5q-3 0 -6.5 0.5t-4.5 0.5q-2 0 -4 -6q-10 -33 -10 -37q0 -8 18 -9q4 0 4 -4t-4 -4q-2 0 -12 1.5t-16 1.5l-6 -1q-6 -1 -14 -1q-6 0 -6 4t5 4q12 1 15 11q24 84 38 125q1 4 -2 4h-10q-3 0 -3 2q0 6 12 7q9 2 10 4
q2 6 6 28q0 4 8 4zM917 -129q0 5 15.5 20.5t24.5 15.5q8 0 8 -6l-10 -30q-1 -4 1 -4t3 2q19 39 36 39q14 0 14 -12q0 -2 -10 -29q-1 -4 1 -4t4 4q20 41 41 41q15 0 15 -15q0 -4 -14 -35q-17 -37 -17 -38q0 -2 2 -2q6 0 22 18q3 3 4 3q3 0 3 -4q0 -3 -17.5 -18.5t-27.5 -15.5
q-7 0 -7 6t21 46q15 29 15 39q0 6 -5 6q-12 0 -39 -47q-3 -4 -7.5 -14.5t-7.5 -15.5q-11 -21 -16 -21q-8 0 -8 5q0 1 2 4.5t7.5 15t11.5 28.5q13 33 13 37q0 6 -7 6q-6 0 -36 -45q-11 -20 -17 -34q-7 -17 -12 -17q-8 0 -8 7q0 1 0.5 2t2 3.5t3.5 6.5t5.5 13.5t8.5 21.5
q12 31 12 33q0 5 -2 5t-9 -7q-3 -3 -6 -6.5t-4.5 -6t-3 -4t-3.5 -1.5t-2 4zM851 -200q-11 0 -16.5 10t-5.5 20q0 31 17.5 54t32.5 23q21 0 21 -39q0 -25 -16.5 -46.5t-32.5 -21.5zM40 -186q0 -3 8 -5q6 -1 6 -4t-5 -3q-1 0 -9 1t-11 1q-2 0 -8.5 -0.5t-9.5 -0.5q-4 0 -4 3
q0 2 9 5q7 1 19 16q67 78 83 93q3 3 5 3q5 0 5 -3l-1 -4q-1 -3 -2 -8.5t-1 -10.5q-5 -43 -5 -77q0 -8 7 -9q8 -1 8 -4q0 -4 -5 -4l-8 1q-8 1 -14 1q-4 0 -11 -1t-9 -1q-3 0 -3 3t7 4q11 1 11 11l2 25q0 3 -3 3h-32q-2 0 -5 -3q-24 -29 -24 -32zM456 -129q0 10 10 26
q7 10 16 10q16 0 16 -60q0 -6 -0.5 -12.5t-1.5 -10.5v-5q0 -3 2 -3q7 0 18 48q5 22 5 36q0 7 7 7q6 0 6 -8q0 -10 -9 -38.5t-22 -53.5q-31 -58 -64 -58q-11 0 -11 10q0 9 10 9q5 0 7.5 -4t3.5 -4q11 0 23 18t12 28q0 82 -9 82q-8 0 -12 -16q-1 -4 -4 -4t-3 3zM266 -74
q5 0 5 -5l-1 -2q0 -2 -1 -5t-2 -5q0 -2 -1 -5t-1.5 -5l-1 -4t-2 -3t-3.5 -1q-4 0 -4 4q0 1 1 4t1 5q0 4 -25 4q-9 0 -11 -9l-17 -72q-2 -10 -0.5 -13t14.5 -5q7 -1 7 -4q0 -4 -4 -4l-11 2q-11 2 -18 2q-3 0 -12 -1.5t-13 -1.5q-7 0 -5 5q1 3 8 3q9 1 11 4t6 19l17 66
q3 9 -1 9q-25 0 -33 -6q-4 -2 -8 -8t-6 -6q-3 0 -3 3q0 2 7 16q1 3 2 7.5t2.5 7.5t4.5 3q2 0 3 -4t5 -4q2 0 15 -0.5t26 -0.5q9 0 22 0.5t15 0.5q5 0 7 4.5t5 4.5zM693 -93q16 0 16 -21q0 -32 -46 -39q-7 -1 -7 -13q0 -17 14 -17q6 0 16 10q5 5 7 5l2 -3q0 -4 -11.5 -16
t-20.5 -12t-15.5 6.5t-6.5 19.5q0 28 18 54t34 26zM319 -193q0 -4 -5 -4q-2 0 -10 1t-15 1q-3 0 -9 -1t-9 -1q-7 0 -7 4t6 4q9 1 11 3t4 13l17 72q2 10 -3 11q-11 1 -11 4q0 5 4 5q1 0 16 -1t20 -1q25 0 33 1q2 0 5 1l2 1q6 0 6 -8v-18q0 -3 -4 -3q-1 0 -10 14q-3 4 -34 4
q-6 0 -7 -5l-7 -34q-1 -7 3 -7h22q10 0 14 13q2 4 4 4q4 0 4 -3t-2.5 -10.5t-2.5 -10.5q-2 -17 -6 -17t-4 4q0 8 -2 10.5t-8 2.5h-21q-5 0 -6 -7l-5 -22q0 -3 -0.5 -5t-1.5 -4v-1q0 -6 12 -7q7 0 7 -3zM430 -108q-6 -16 -12 -33t-8.5 -24t-2.5 -8q0 -3 4 -3q6 0 16 13
q7 9 8 9q2 0 2 -3q0 -8 -18.5 -25t-26.5 -17q-7 0 -7 6q0 3 5 16.5t13 34t12 34.5q1 1 -0.5 2t-3.5 1h-13q-3 0 -3 4t4 4q2 0 7 -0.5t8 -0.5q5 0 7 4l7 23q2 8 10 8q6 0 6 -5q0 -3 -4 -11.5t-5 -14.5q-1 -4 2 -4h11l6 1q2 0 2 -2q0 -6 -3 -6h-17q-4 0 -6 -3zM592 -103
q-8 0 -11 -8q-18 -57 -18 -70q0 -10 7 -10q14 0 28 28t14 45q0 5 -5 10t-15 5zM880 -99q-10 0 -23.5 -28t-13.5 -48q0 -18 8 -18q12 0 25 27.5t13 48.5q0 18 -9 18zM812 -93q8 0 13 -4t5 -8q0 -10 -7 -10t-12.5 6.5t-7.5 6.5q-8 0 -20 -24.5t-12 -39.5q0 -16 11 -16
q6 0 13 8t9 8t2 -4q0 -5 -14 -17q-16 -13 -22 -13t-11 7t-5 20q0 37 28 65q15 15 30 15zM335 360l12 70l6 47h2l6 -47l10 -70h-36zM692 -101q-8 0 -18.5 -16t-10.5 -25q0 -3 3 -3q8 0 21 12t13 22t-8 10zM105 -138l3 29q2 9 0 9l-6 -6l-24 -31q-3 -5 1 -5h23q3 0 3 4z
M724 -174q8 0 8 -10q0 -16 -14 -16q-8 0 -8 10q0 16 14 16z" />
    <glyph glyph-name="fi" unicode="&#xfb01;" horiz-adv-x="513" 
d="M285 289h-117v-216l1 -73h-138l1 73v569l-1 73h276v-121h-139v-169h117v-136zM344 715h138l-1 -73v-569l1 -73h-138l1 73v569z" />
    <glyph glyph-name="fl" unicode="&#xfb02;" horiz-adv-x="635" 
d="M285 289h-117v-216l1 -73h-138l1 73v569l-1 73h276v-121h-139v-169h117v-136zM626 0h-282l1 73v569l-1 73h138l-1 -73v-519h145v-123z" />
    <glyph glyph-name="dollar.superior" horiz-adv-x="287" 
d="M108 735h74v-41q87 -19 93 -130h-96q-7 49 -34 49q-10 0 -16.5 -6.5t-6.5 -16.5q0 -9 6 -18t11.5 -13.5t20.5 -15.5l45 -34q71 -52 71 -119q0 -42 -26 -71t-68 -38v-64h-74v64q-46 10 -72 45.5t-27 93.5h93q8 -58 39 -58q26 0 26 22q0 24 -46 56l-44 31q-60 43 -60 111
q0 45 25 73.5t66 37.5v42z" />
    <glyph glyph-name="cent.superior" horiz-adv-x="263" 
d="M112 196h-76l22 78l-12 9q-20 19 -26.5 45.5t-6.5 75.5v56q0 49 6.5 75.5t26.5 45.5q31 28 85 28h11l14 52h77l-22 -75q39 -28 39 -121v-3h-99v22q0 16 -1 24t-5.5 13.5t-13.5 5.5t-13 -5.5t-5 -13.5t-1 -24v-105q0 -15 1 -22.5t5.5 -13t13.5 -5.5t13.5 5.5t5.5 13
t1 23.5v22h99v-6q0 -83 -33 -113q-28 -28 -90 -28z" />
    <glyph glyph-name="Euro.superior" horiz-adv-x="325" 
d="M9 510v54h47q0 93 44 129q34 29 90 29q54 0 86 -27q36 -30 36 -100v-1h-97v1q0 41 -26 41q-17 0 -21.5 -15.5t-4.5 -56.5h110v-54h-110v-32h110v-54h-110v-16q0 -40 4.5 -55t22.5 -15q26 0 26 49v2h97v-2q0 -76 -36 -108q-30 -26 -88 -26t-87 27q-46 42 -46 129v15h-47
v54h47v32h-47z" />
    <glyph glyph-name="sterling.superior" horiz-adv-x="320" 
d="M16 462v71h34q-10 37 -10 67q0 56 32.5 89t88.5 33q60 0 93 -37t32 -94h-95q-4 48 -28 48q-22 0 -22 -37q0 -28 16 -69h96v-71h-74q5 -30 5 -53q0 -29 -14 -62q8 -8 20 -8q18 0 24.5 14t6.5 52h90q0 -77 -32.5 -114.5t-86.5 -37.5q-47 0 -76 31q-42 -25 -100 -25v92
q38 0 52 10.5t14 43.5q0 25 -9 57h-57z" />
    <glyph glyph-name="yen.superior" horiz-adv-x="335" 
d="M15 510v54h50l-55 150h115l32 -113l10 -44h3q5 24 11 44l35 113h109l-55 -150h49v-54h-69l-11 -32h80v-54h-96v-163h-111v163h-97v54h81l-12 32h-69z" />
    <glyph glyph-name="numbersign.superior" horiz-adv-x="345" 
d="M247 714h73l-22 -105h37v-81h-53l-16 -80h32v-81h-49l-21 -106h-71l21 106h-59l-21 -106h-72l21 106h-37v81h53l16 80h-35v81h52l21 105h72l-21 -105h58zM151 528l-16 -80h59l16 80h-59z" />
    <glyph glyph-name="percent.superior" horiz-adv-x="594" 
d="M190 261l128 453h84l-129 -453h-83zM233 586v-32q0 -77 -31 -105q-28 -27 -80 -27t-80 27q-32 29 -32 105v32q0 76 32 105q30 28 80 28t80 -28q18 -16 24.5 -39t6.5 -66zM104 600v-58q0 -15 0.5 -22t2 -14.5t5 -10t10.5 -2.5q12 0 15 10t3 39v58q0 15 -0.5 22t-2 14.5
t-5 10t-10.5 2.5q-12 0 -15 -10t-3 -39zM582 420v-32q0 -77 -31 -105q-29 -27 -80 -27t-80 27q-32 29 -32 105v32q0 76 32 105q30 28 80 28t80 -28q18 -16 24.5 -39t6.5 -66zM453 434v-58q0 -15 0.5 -22t2 -14.5t5 -10t10.5 -2.5q12 0 15 10t3 39v58q0 15 -0.5 22t-2 14.5
t-5 10t-10.5 2.5q-12 0 -15 -10t-3 -39z" />
    <glyph glyph-name="period.superior" horiz-adv-x="134" 
d="M17 261v105h101v-105h-101z" />
    <glyph glyph-name="comma.superior" horiz-adv-x="137" 
d="M20 261v105h100v-105l-50 -99h-45l26 99h-31z" />
    <glyph glyph-name="hyphen.superior" horiz-adv-x="191" 
d="M18 408v85h154v-85h-154z" />
    <glyph glyph-name="zero.tl" horiz-adv-x="400" 
d="M200 -12q-87 0 -127 43q-28 30 -40.5 79.5t-12.5 152.5v189q0 103 12.5 152.5t40.5 79.5q41 43 127 43t127 -43q28 -31 41 -80.5t13 -151.5v-189q0 -103 -12.5 -153t-41.5 -79q-40 -43 -127 -43zM158 480v-245q0 -36 0.5 -52.5t4.5 -37t13 -28t24 -7.5t24 7.5t13 28
t4.5 37t0.5 52.5v245q0 36 -0.5 52.5t-4.5 37t-13 28t-24 7.5t-24 -7.5t-13 -28t-4.5 -37t-0.5 -52.5z" />
    <glyph glyph-name="one.tl" horiz-adv-x="400" 
d="M164 571h-108v78q122 25 160 70h85l-1 -73v-573l1 -73h-138l1 73v498z" />
    <glyph glyph-name="two.tl" horiz-adv-x="400" 
d="M239 522q0 79 -37 79q-39 0 -39 -121h-135q-2 136 44 192t129 56t130 -50t47 -146q0 -70 -26 -141t-88 -160l-72 -106h177v-125h-349v110l110 150q109 150 109 262z" />
    <glyph glyph-name="three.tl" horiz-adv-x="400" 
d="M18 217h140v-2q0 -29 1 -44.5t4.5 -30t12 -20.5t22.5 -6q26 0 32.5 24t6.5 83q-1 54 -16 71.5t-51 22.5l-29 3v116l39 2q30 2 42 19t12 67v4q0 75 -37 75q-38 0 -38 -80v-2h-134v2q0 111 53 161q45 45 121 45q73 0 118 -45q50 -50 50 -155v-3q0 -116 -78 -145v-5
q50 -15 69.5 -54.5t20.5 -111.5q0 -127 -51 -173q-47 -47 -129 -47q-81 0 -128 45q-53 50 -53 182v2z" />
    <glyph glyph-name="four.tl" horiz-adv-x="400" 
d="M188 0l3 73v101h-182v109l188 432h130l-1 -73v-353h59v-115h-59v-101l1 -73h-139zM128 289h70l3 90q1 34 11 122h-3q-30 -77 -34 -87z" />
    <glyph glyph-name="five.tl" horiz-adv-x="400" 
d="M194 -12q-75 0 -120 42q-54 51 -54 178v4h139v-4q0 -34 2 -52t11 -31t27 -13q28 0 34.5 26.5t6.5 96.5v9q0 27 -1 41t-5 33t-14.5 27.5t-27.5 8.5q-35 0 -53 -40h-109l7 401h321l-10 -125h-194l-3 -144q38 35 93 35q51 0 84 -30q56 -51 56 -207v-9q0 -147 -63 -204
q-48 -43 -127 -43z" />
    <glyph glyph-name="six.tl" horiz-adv-x="400" 
d="M162 487v-86q38 44 89 44q44 0 77 -30q28 -26 39 -68.5t11 -115.5v-9q0 -78 -13 -120.5t-46 -71.5q-48 -42 -118 -42q-74 0 -120 41q-31 27 -44.5 77t-13.5 156v188q0 183 62 238q43 39 117 39q71 0 114 -41q53 -49 53 -166v-2h-136v2q0 24 -1.5 38.5t-10 28t-24.5 13.5
q-22 0 -28.5 -24.5t-6.5 -88.5zM204 315q-19 0 -30.5 -19t-11.5 -54q0 -39 1 -57.5t4.5 -38t11 -26.5t21.5 -7t22.5 6t12 20.5t4 26.5t0.5 37v49q0 63 -35 63z" />
    <glyph glyph-name="seven.tl" horiz-adv-x="400" 
d="M208 0h-148q5 40 11 78.5t10.5 67.5t14.5 65.5t14 56t17.5 57t17.5 50t21 54t20.5 49.5l24.5 56t24 56h-210v125h350v-86q-6 -15 -31 -74t-32 -77t-26 -70t-26.5 -85t-20 -87t-19.5 -111t-12 -125z" />
    <glyph glyph-name="eight.tl" horiz-adv-x="400" 
d="M200 -12q-76 0 -120 42q-59 57 -59 168v13q0 130 88 167v3q-78 39 -78 148v11q0 102 58 150q42 37 111 37t111 -37q58 -50 58 -150v-11q0 -109 -78 -148v-3q88 -38 88 -167v-13q0 -112 -60 -168q-44 -42 -119 -42zM200 106q27 0 33.5 21.5t6.5 78.5v8q0 21 -1 34.5
t-4.5 29t-12 23.5t-22.5 8t-22.5 -8t-12 -24t-4.5 -29t-1 -34v-8v-30.5t1.5 -23.5t3.5 -20.5t6.5 -13.5t11.5 -9.5t17 -2.5zM200 442q19 0 27.5 17t8.5 62v10q0 26 -1.5 40.5t-10 26.5t-24.5 12q-17 0 -25.5 -12t-10 -26t-1.5 -41v-10q0 -45 8.5 -62t28.5 -17z" />
    <glyph glyph-name="nine.tl" horiz-adv-x="400" 
d="M238 228v86q-38 -44 -89 -44q-44 0 -77 30q-28 26 -39 68.5t-11 115.5v9q0 78 13 120.5t46 71.5q48 42 118 42q74 0 120 -41q31 -27 44.5 -77t13.5 -156v-188q0 -183 -62 -238q-43 -39 -117 -39q-71 0 -114 41q-53 49 -53 166v2h136v-2q0 -24 1.5 -38.5t10 -28
t24.5 -13.5q22 0 28.5 24.5t6.5 88.5zM196 400q19 0 30.5 19t11.5 54q0 39 -1 57.5t-4.5 38t-11 26.5t-21.5 7t-22.5 -6t-12 -20.5t-4 -26.5t-0.5 -37v-49q0 -63 35 -63z" />
    <glyph glyph-name="dollar.tl" horiz-adv-x="400" 
d="M148 743h109v-60q55 -16 86 -64t30 -125h-129q0 73 -45 73q-34 0 -34 -44q0 -27 15 -46t50 -44l55 -40q92 -67 92 -174q0 -63 -32 -107.5t-88 -59.5v-82h-109v81q-124 29 -120 195h129q3 -80 46 -80q37 0 37 45q0 39 -50 76l-55 40q-62 44 -84.5 89t-20.5 98q2 63 34 107
t84 60v62z" />
    <glyph glyph-name="cent.tl" horiz-adv-x="400" 
d="M173 -104h-101l28 120q-30 20 -44.5 62t-16 70t-1.5 83v78q0 81 9.5 127.5t36.5 74.5q39 40 116 40h13l19 74h101l-26 -109q2 -1 6 -5q45 -45 45 -176v-3h-131v14q0 51 -4.5 69.5t-22.5 18.5q-19 0 -23.5 -17.5t-4.5 -77.5v-136q0 -61 4 -78.5t24 -17.5q19 0 23.5 20.5
t4.5 72.5v16h132v-6q0 -133 -47 -180q-39 -40 -113 -40h-5z" />
    <glyph glyph-name="Euro.tl" horiz-adv-x="400" 
d="M8 392v84h57q1 148 52 206q38 45 113 45q70 0 108 -42q45 -52 45 -152v-3h-121v3q0 38 -6.5 57t-26.5 19q-22 0 -28 -25.5t-6 -100.5v-7h144v-84h-144v-47h144v-83h-144v-30q0 -78 6 -102t28 -24q21 0 28.5 22.5t7.5 68.5v3h121v-3q0 -115 -50 -168q-38 -41 -109 -41
q-74 0 -111 43q-51 57 -51 219v12h-57v83h57v47h-57z" />
    <glyph glyph-name="sterling.tl" horiz-adv-x="400" 
d="M14 318v101h48q-17 76 -17 123q0 94 42.5 139.5t110.5 45.5q78 0 120 -55t40 -144h-122q-2 24 -3.5 33.5t-5 25.5t-10 22.5t-16.5 6.5q-14 0 -20.5 -10.5t-6.5 -38.5q0 -72 23 -148h117v-101h-90q6 -41 6 -76q0 -63 -22 -117q9 -19 29 -19t27.5 25t7.5 91h120
q0 -109 -42.5 -171t-109.5 -62q-60 0 -97 49q-53 -39 -129 -38v122q46 0 64.5 22t18.5 82q0 41 -12 92h-71z" />
    <glyph glyph-name="uni20BD.tl" horiz-adv-x="400" 
d="M15 290v117h66v235l-1 73h114q110 0 152.5 -56t42.5 -156v-2q0 -96 -42.5 -153.5t-134.5 -57.5h-1v-69h94v-95h-94v-53l1 -73h-132l1 73v53h-66v95h66v69h-66zM211 407h3q30 0 39.5 23.5t9.5 69.5v5q0 46 -10 69.5t-39 23.5h-3v-191z" />
    <glyph glyph-name="yen.tl" horiz-adv-x="400" 
d="M12 392v84h67l-66 239h136l35 -181l14 -71h4q5 26 16 71l40 181h133l-69 -239h66v-84h-90l-13 -47h103v-83h-120v-189l1 -73h-138l1 73v189h-120v83h103l-13 47h-90z" />
    <glyph glyph-name="uni0192.tl" horiz-adv-x="400" 
d="M29 318v101h99v148q0 76 44 114t125 38q33 0 75 -5v-108q-28 2 -45 2q-33 0 -48.5 -13t-15.5 -45v-131h109v-101h-109v-340q0 -152 -169 -152q-22 0 -65 5v108q28 -2 35 -2q64 0 64 58v323h-99z" />
    <glyph glyph-name="colonmonetary.tl" horiz-adv-x="400" 
d="M177 -70h-81v122q-9 6 -17 16q-29 30 -41.5 79.5t-12.5 152.5v115q0 102 14 158.5t57 87.5v88h81v-60q28 2 42 0v60h83v-86q45 -26 59.5 -81.5t14.5 -134.5v-4h-134v6q0 36 -1 53.5t-4.5 35.5t-11.5 24t-22 6q-27 0 -33.5 -26.5t-6.5 -98.5v-171q0 -39 0.5 -55.5
t4.5 -36.5t12 -26.5t23 -6.5q28 0 34.5 26t6.5 99v6v6h134v-4q0 -39 -1.5 -64t-8.5 -60t-23.5 -61.5t-42.5 -44.5v-120h-83v96q-20 -3 -42 0v-96z" />
    <glyph glyph-name="franc.tl" horiz-adv-x="400" 
d="M344 328h-117v-105h98v-101h-98v-49l1 -73h-138l1 73v49h-64v101h64v419l-1 73h276v-128h-139v-123h117v-136z" />
    <glyph glyph-name="lira.tl" horiz-adv-x="400" 
d="M15 392v84h37q-5 35 -5 66q0 94 42.5 139.5t110.5 45.5q78 0 120 -55t40 -144h-122q-2 24 -3.5 33.5t-5 25.5t-10 22.5t-16.5 6.5q-14 0 -20.5 -10.5t-6.5 -38.5q0 -51 9 -91h131v-84h-109l13 -47h96v-83h-84v-20q0 -63 -23 -118q10 -18 30 -18q19 0 26 24.5t7 83.5h122
q0 -102 -43.5 -163.5t-109.5 -61.5q-57 0 -95 50q-53 -40 -130 -39v122q46 0 64.5 22t18.5 82q0 12 -2 36h-82v83h67l-11 47h-56z" />
    <glyph glyph-name="uni20B1.tl" horiz-adv-x="400" 
d="M3 440v101h47v101l-1 73h115q96 0 140.5 -46t51.5 -128h45v-101h-45q-7 -83 -49.5 -132t-124.5 -49h-1v-186l1 -73h-133l1 73v367h-47zM181 379h2q30 0 40 24t10 71v25q0 47 -10 71.5t-40 24.5h-2v-216z" />
    <glyph glyph-name="uni20B9.tl" horiz-adv-x="400" 
d="M41 453v85h117q-12 60 -60 60h-57v117h326v-117h-103q23 -19 31 -60h72v-85h-73q-8 -60 -30.5 -86.5t-61.5 -38.5v-5q40 -11 67 -44t28 -112q1 -103 16 -152v-15h-135q-12 34 -15 70t-5 119q-2 79 -62 79h-55v124h56q51 0 61 61h-117z" />
    <glyph glyph-name="uni20BA.tl" horiz-adv-x="400" 
d="M9 379v81l61 26v156l-1 73h138l-1 -73v-97l124 54v-82l-124 -54v-57l124 54v-82l-124 -54v-207h23q10 0 20 6q18 16 18 152v1h125v-1q0 -111 -14 -162t-52 -82q-42 -31 -117 -31h-140l1 73v193l-61 -26v81l61 26v58z" />
    <glyph glyph-name="section.tl" horiz-adv-x="400" 
d="M396 230q0 -103 -81 -136q39 -55 39 -113q0 -68 -40.5 -109.5t-112.5 -41.5q-148 0 -167 184h120q7 -36 18.5 -54.5t31.5 -18.5q31 0 31 39q0 47 -44 86l-62 53q-70 60 -97 108.5t-27 99.5q0 101 80 136q-38 53 -38 113q0 68 40.5 109.5t112.5 41.5q148 0 167 -184h-120
q-7 36 -18.5 54.5t-31.5 18.5q-31 0 -31 -39q0 -47 44 -86l62 -53q70 -60 97 -108.5t27 -99.5zM220 326l-77 72q-18 -20 -18 -57q0 -58 56 -110q64 -61 75 -71l1 -1q19 21 19 57q0 58 -56 110z" />
    <glyph glyph-name="numbersign.tl" horiz-adv-x="400" 
d="M256 0h-92l33 177h-63l-33 -177h-92l32 177h-35v108h55l27 146h-38v108h58l33 176h94l-33 -176h63l33 176h92l-33 -176h37v-108h-57l-28 -146h40v-108h-60zM182 431l-28 -146h63l28 146h-63z" />
    <glyph glyph-name="zero.numerator" horiz-adv-x="304" 
d="M152 253q-61 0 -98 35q-23 22 -32 54.5t-9 95.5v101q0 62 9.5 94.5t31.5 53.5q37 35 98 35q63 0 100 -35q22 -21 30 -53t8 -95v-101q0 -64 -8.5 -96t-30.5 -54q-35 -35 -99 -35zM126 559v-142q0 -25 1 -38t7 -24t18 -11q18 0 22.5 17.5t4.5 55.5v142q0 38 -4.5 55.5
t-22.5 17.5q-17 0 -21.5 -17.5t-4.5 -55.5z" />
    <glyph glyph-name="one.numerator" horiz-adv-x="209" 
d="M65 574h-65v62q84 30 105 81h71v-456h-111v313z" />
    <glyph glyph-name="two.numerator" horiz-adv-x="286" 
d="M276 588v-1q0 -45 -19 -84t-67 -94l-46 -51h128v-97h-263v90l66 85q7 9 23 29t23 28.5t18 24.5t16 26t9 22.5t4 23.5v1q0 42 -23 42q-29 0 -29 -68v-2h-105v1q0 80 37 119t101 39t95.5 -36t31.5 -98z" />
    <glyph glyph-name="three.numerator" horiz-adv-x="292" 
d="M6 409h108v-1q0 -34 4.5 -49.5t22.5 -15.5q13 0 19.5 9t7.5 18.5t1 27.5v2q0 27 -8 37t-28 10h-28v97h27q17 0 24 9t7 34v1q0 23 -4 34t-20 11q-24 0 -24 -59v-1h-104v1q0 82 37 116q36 32 98 32q56 0 90 -29q36 -32 36 -98v-1q0 -65 -50 -92v-2q61 -25 61 -108v-2
q0 -71 -39 -104q-37 -33 -100 -33q-65 0 -99 32q-39 36 -39 123v1z" />
    <glyph glyph-name="four.numerator" horiz-adv-x="310" 
d="M147 261l1 84h-144v99l132 271h121v-277h50v-93h-50v-84h-110zM91 438h56l2 36q2 37 9 98h-4q-24 -59 -32 -74z" />
    <glyph glyph-name="five.numerator" horiz-adv-x="287" 
d="M142 253q-65 0 -92 27q-37 37 -37 125v4h103v-4q0 -62 25 -62q17 0 21.5 15t4.5 55v12q0 52 -8 61q-6 7 -17 7q-16 0 -31 -25h-95l11 247h236v-90h-138l-4 -73q33 25 69 25q35 0 57 -20q31 -30 31 -132v-12q0 -89 -43 -130q-32 -30 -93 -30z" />
    <glyph glyph-name="six.numerator" horiz-adv-x="296" 
d="M124 561v-40q25 28 61 28q40 0 66 -22q36 -31 36 -108v-11q0 -93 -42 -126q-35 -29 -96 -29q-56 0 -91 29q-46 35 -46 164v92q0 120 47 158q34 26 88 26q60 0 91 -28q41 -37 41 -114v-1h-112v1q0 29 -3.5 39.5t-16.5 10.5q-16 0 -19.5 -14t-3.5 -55zM144 458
q-14 0 -20 -6v-31q0 -21 0.5 -32.5t3 -23.5t8 -17t14.5 -5q23 0 23 49v11q0 16 -0.5 24.5t-7.5 19.5t-21 11z" />
    <glyph glyph-name="seven.numerator" horiz-adv-x="237" 
d="M147 261h-119q10 183 104 358h-129v96h231v-80q-74 -146 -87 -374z" />
    <glyph glyph-name="eight.numerator" horiz-adv-x="298" 
d="M9 387v8q0 81 70 107v2q-61 30 -61 93v6q0 64 47 97q32 22 82 22q57 0 87 -22q46 -33 46 -97v-6q0 -64 -62 -93v-2q71 -26 71 -107v-8q0 -69 -48 -108q-35 -26 -93 -26q-56 0 -91 26q-48 39 -48 108zM120 401v-5q0 -52 28 -52q29 0 29 52v5q0 51 -29 51q-28 0 -28 -51z
M127 589q0 -42 21 -42q23 0 23 42v3q0 13 -1 20t-6 13.5t-16 6.5q-10 0 -15 -6.5t-5.5 -13.5t-0.5 -20v-3z" />
    <glyph glyph-name="nine.numerator" horiz-adv-x="297" 
d="M171 414v40q-25 -28 -61 -28q-40 0 -66 22q-36 31 -36 108v11q0 93 42 126q35 29 96 29q56 0 91 -29q46 -35 46 -164v-92q0 -120 -47 -158q-34 -26 -88 -26q-60 0 -91 28q-41 37 -41 114v1h112v-1q0 -29 3.5 -39.5t16.5 -10.5q16 0 19.5 14t3.5 55zM151 517q14 0 20 6v31
q0 21 -0.5 32.5t-3 23.5t-8 17t-14.5 5q-23 0 -23 -49v-11q0 -16 0.5 -24.5t7.5 -19.5t21 -11z" />
    <glyph glyph-name="zero.denominator" horiz-adv-x="304" 
d="M152 -8q-61 0 -98 35q-23 22 -32 54.5t-9 95.5v101q0 62 9.5 94.5t31.5 53.5q37 35 98 35q63 0 100 -35q22 -21 30 -53t8 -95v-101q0 -64 -8.5 -96t-30.5 -54q-35 -35 -99 -35zM126 298v-142q0 -25 1 -38t7 -24t18 -11q18 0 22.5 17.5t4.5 55.5v142q0 38 -4.5 55.5
t-22.5 17.5q-17 0 -21.5 -17.5t-4.5 -55.5z" />
    <glyph glyph-name="one.denominator" horiz-adv-x="209" 
d="M65 313h-65v62q84 30 105 81h71v-456h-111v313z" />
    <glyph glyph-name="two.denominator" horiz-adv-x="286" 
d="M276 327v-1q0 -45 -19 -84t-67 -94l-46 -51h128v-97h-263v90l66 85q7 9 23 29t23 28.5t18 24.5t16 26t9 22.5t4 23.5v1q0 42 -23 42q-29 0 -29 -68v-2h-105v1q0 80 37 119t101 39t95.5 -36t31.5 -98z" />
    <glyph glyph-name="three.denominator" horiz-adv-x="292" 
d="M6 148h108v-1q0 -34 4.5 -49.5t22.5 -15.5q13 0 19.5 9t7.5 18.5t1 27.5v2q0 27 -8 37t-28 10h-28v97h27q17 0 24 9t7 34v1q0 23 -4 34t-20 11q-24 0 -24 -59v-1h-104v1q0 82 37 116q36 32 98 32q56 0 90 -29q36 -32 36 -98v-1q0 -65 -50 -92v-2q61 -25 61 -108v-2
q0 -71 -39 -104q-37 -33 -100 -33q-65 0 -99 32q-39 36 -39 123v1z" />
    <glyph glyph-name="four.denominator" horiz-adv-x="310" 
d="M147 0l1 84h-144v99l132 271h121v-277h50v-93h-50v-84h-110zM91 177h56l2 36q2 37 9 98h-4q-24 -59 -32 -74z" />
    <glyph glyph-name="five.denominator" horiz-adv-x="288" 
d="M142 -8q-65 0 -92 27q-37 37 -37 125v4h103v-4q0 -62 25 -62q17 0 21.5 15t4.5 55v12q0 52 -8 61q-6 7 -17 7q-16 0 -31 -25h-95l11 247h236v-90h-138l-4 -73q33 25 69 25q35 0 57 -20q31 -30 31 -132v-12q0 -89 -43 -130q-32 -30 -93 -30z" />
    <glyph glyph-name="six.denominator" horiz-adv-x="297" 
d="M124 300v-40q25 28 61 28q40 0 66 -22q36 -31 36 -108v-11q0 -93 -42 -126q-35 -29 -96 -29q-56 0 -91 29q-46 35 -46 164v92q0 120 47 158q34 26 88 26q60 0 91 -28q41 -37 41 -114v-1h-112v1q0 29 -3.5 39.5t-16.5 10.5q-16 0 -19.5 -14t-3.5 -55zM144 197
q-14 0 -20 -6v-31q0 -21 0.5 -32.5t3 -23.5t8 -17t14.5 -5q23 0 23 49v11q0 16 -0.5 24.5t-7.5 19.5t-21 11z" />
    <glyph glyph-name="seven.denominator" horiz-adv-x="238" 
d="M147 0h-119q10 183 104 358h-129v96h231v-80q-74 -146 -87 -374z" />
    <glyph glyph-name="eight.denominator" horiz-adv-x="298" 
d="M9 126v8q0 81 70 107v2q-61 30 -61 93v6q0 64 47 97q32 22 82 22q57 0 87 -22q46 -33 46 -97v-6q0 -64 -62 -93v-2q71 -26 71 -107v-8q0 -69 -48 -108q-35 -26 -93 -26q-56 0 -91 26q-48 39 -48 108zM120 140v-5q0 -52 28 -52q29 0 29 52v5q0 51 -29 51q-28 0 -28 -51z
M127 328q0 -42 21 -42q23 0 23 42v3q0 13 -1 20t-6 13.5t-16 6.5q-10 0 -15 -6.5t-5.5 -13.5t-0.5 -20v-3z" />
    <glyph glyph-name="nine.denominator" horiz-adv-x="297" 
d="M171 153v40q-25 -28 -61 -28q-40 0 -66 22q-36 31 -36 108v11q0 93 42 126q35 29 96 29q56 0 91 -29q46 -35 46 -164v-92q0 -120 -47 -158q-34 -26 -88 -26q-60 0 -91 28q-41 37 -41 114v1h112v-1q0 -29 3.5 -39.5t16.5 -10.5q16 0 19.5 14t3.5 55zM151 256q14 0 20 6v31
q0 21 -0.5 32.5t-3 23.5t-8 17t-14.5 5q-23 0 -23 -49v-11q0 -16 0.5 -24.5t7.5 -19.5t21 -11z" />
    <glyph glyph-name="i.dot" horiz-adv-x="200" 
d="M31 715h138l-1 -73v-569l1 -73h-138l1 73v569zM32 760v106h136v-106h-136z" />
    <glyph glyph-name="uni00200326" horiz-adv-x="289" 
d="M130 -156h-86l62 124h122z" />
    <glyph glyph-name="caron.alt" horiz-adv-x="289" 
d="M95 715h100l-34 -180h-66v180z" />
    <glyph glyph-name="a.superior" horiz-adv-x="300" 
d="M16 540q5 65 39 102t99 37q128 0 128 -141v-231q0 -25 4 -55h-112q-2 28 -2 40h-3q-23 -25 -40 -35t-39 -10q-39 0 -62.5 28t-23.5 81q0 45 21.5 76t78.5 63q29 16 67 30v25q0 41 -21 41q-24 0 -26 -51h-108zM139 341q18 0 32 18v92q-20 -12 -26 -18q-29 -27 -29 -62
q0 -30 23 -30z" />
    <glyph glyph-name="b.superior" horiz-adv-x="308" 
d="M23 252v535h111v-147q43 38 78 38q32 0 52 -20q18 -18 24.5 -49.5t6.5 -91.5v-121q0 -106 -30 -134q-18 -18 -50 -18q-22 0 -38.5 9.5t-44.5 34.5h-2v-36h-107zM161 581q-13 0 -27 -10v-220q15 -11 27 -11q24 0 24 50v133q0 16 -0.5 24t-2.5 17.5t-7 13t-14 3.5z" />
    <glyph glyph-name="d.superior" horiz-adv-x="309" 
d="M286 787v-535h-107v36h-2q-28 -25 -44.5 -34.5t-38.5 -9.5q-32 0 -50 18q-30 28 -30 134v121q0 60 6.5 91.5t24.5 49.5q20 20 52 20q35 0 78 -38v147h111zM148 581q-16 0 -20 -13.5t-4 -44.5v-133q0 -50 24 -50q12 0 27 11v220q-14 10 -27 10z" />
    <glyph glyph-name="e.superior" horiz-adv-x="295" 
d="M284 432h-161v-31q0 -17 0.5 -25.5t2.5 -19t7 -15t14 -4.5q13 0 19.5 9.5t7.5 18t1 23.5v2h108v-2q0 -80 -38 -113q-31 -31 -98 -31q-64 0 -97 33q-23 21 -30.5 55t-7.5 94v70q0 110 39 150q34 33 96 33q66 0 99 -33q23 -23 30.5 -56.5t7.5 -93.5v-64zM123 527v-23h49v23
q0 19 -0.5 27.5t-2.5 18.5t-7.5 14t-14.5 4q-16 0 -20 -14.5t-4 -49.5z" />
    <glyph glyph-name="egrave.superior" horiz-adv-x="295" 
d="M210 699h-88l-74 89h120zM284 432h-161v-31q0 -17 0.5 -25.5t2.5 -19t7 -15t14 -4.5q13 0 19.5 9.5t7.5 18t1 23.5v2h108v-2q0 -80 -38 -113q-31 -31 -98 -31q-64 0 -97 33q-23 21 -30.5 55t-7.5 94v70q0 110 39 150q34 33 96 33q66 0 99 -33q23 -23 30.5 -56.5
t7.5 -93.5v-64zM123 527v-23h49v23q0 19 -0.5 27.5t-2.5 18.5t-7.5 14t-14.5 4q-16 0 -20 -14.5t-4 -49.5z" />
    <glyph glyph-name="l.superior" horiz-adv-x="157" 
d="M23 787h111v-535h-111v535z" />
    <glyph glyph-name="m.superior" horiz-adv-x="471" 
d="M23 252v419h107v-49h2q54 56 95 56q25 0 42.5 -15t19.5 -41h2q52 56 94 56q31 0 48 -22t17 -58v-346h-111v298q0 28 -16 28q-14 0 -31 -14v-312h-112v298q0 28 -16 28q-13 0 -30 -14v-312h-111z" />
    <glyph glyph-name="o.superior" horiz-adv-x="296" 
d="M147 244q-64 0 -97 33q-23 21 -30.5 55t-7.5 94v70q0 110 39 150q34 33 96 33q66 0 99 -33q23 -23 30.5 -56.5t7.5 -93.5v-70q0 -60 -7.5 -94t-30.5 -55q-33 -33 -99 -33zM123 522v-123q0 -19 0.5 -27.5t2.5 -18t7 -13t14 -3.5q17 0 21 13t4 49v123q0 25 -1 35.5
t-6.5 18.5t-17.5 8q-16 0 -20 -13t-4 -49z" />
    <glyph glyph-name="s.superior" horiz-adv-x="291" 
d="M4 388h99q7 -56 42 -56q32 0 32 29q0 27 -44 51l-47 25q-74 43 -74 124q0 52 35.5 85t97.5 33q125 0 132 -130h-99q-8 45 -39 45q-9 0 -17 -7t-8 -19q0 -26 37 -47l47 -26q85 -47 85 -129q0 -57 -38 -89.5t-98 -32.5q-63 0 -102 35t-41 109z" />
    <glyph glyph-name="t.superior" horiz-adv-x="224" 
d="M5 581v90h47l8 103h99v-103h51v-90h-51v-197q0 -44 30 -44q11 0 21 2v-90q-26 -4 -49 -4q-112 0 -112 114v219h-44z" />
    </font>
</defs>
</svg>
