<?xml version="1.0" standalone="no"?>
<!DOCTYPE svg PUBLIC "-//W3C//DTD SVG 1.1//EN" "http://www.w3.org/Graphics/SVG/1.1/DTD/svg11.dtd" >
<svg xmlns="http://www.w3.org/2000/svg" xmlns:xlink="http://www.w3.org/1999/xlink" version="1.1">
<metadata>
Created by FontForge 20190801 at Thu Feb  7 16:49:30 2002
 By www-data
Copyright (c) 1988, 1994, 2001 Adobe Systems Incorporated.  All Rights Reserved.
</metadata>
<defs>
<font id="ITCClearfaceStd" horiz-adv-x="500" >
  <font-face 
    font-family="ITCClearfaceStd"
    font-weight="400"
    font-stretch="normal"
    units-per-em="1000"
    panose-1="2 7 6 3 5 7 5 2 4 4"
    ascent="748"
    descent="-252"
    x-height="477"
    cap-height="700"
    bbox="-167 -250 1020 943"
    underline-thickness="50"
    underline-position="-100"
    unicode-range="U+0020-FB02"
  />
<missing-glyph 
d="M0 0v700h500v-700h-500zM250 395l170 255h-340zM280 350l170 -255v510zM80 50h340l-170 255zM50 605v-510l170 255z" />
    <glyph glyph-name="fi" unicode="fi" horiz-adv-x="556" 
d="M174 477h162q84 0 139 17q-3 -66 -3 -81v-376l50 -7v-30h-181v30l50 7v356q0 26 -22 33t-76 7h-122v-396l50 -7v-30h-181v30l50 7v396h-58v44h59q8 108 92.5 189.5t191.5 81.5q37 0 61.5 -14.5t24.5 -41.5q0 -45 -55 -45q-21 0 -47 25t-43 25q-66 0 -104 -66t-38 -154z
" />
    <glyph glyph-name="fl" unicode="fl" horiz-adv-x="556" 
d="M174 477h155v-40h-158v-400l50 -7v-30h-181v30l50 7v400h-58v40h59q5 65 36.5 125t97.5 103t153 43q12 0 25.5 -4.5t18.5 -4.5q4 0 22.5 4.5t27.5 4.5v-711l50 -7v-30h-181v30l50 7v619q-28 6 -55 40q-8 1 -22 1q-59 0 -99.5 -58.5t-40.5 -161.5z" />
    <glyph glyph-name=".notdef" 
d="M0 0v700h500v-700h-500zM250 395l170 255h-340zM280 350l170 -255v510zM80 50h340l-170 255zM50 605v-510l170 255z" />
    <glyph glyph-name=".null" horiz-adv-x="0" 
 />
    <glyph glyph-name="nonmarkingreturn" horiz-adv-x="333" 
 />
    <glyph glyph-name="space" unicode=" " horiz-adv-x="250" 
 />
    <glyph glyph-name="exclam" unicode="!" horiz-adv-x="278" 
d="M154 165h-30v61q0 91 -19.5 245.5t-19.5 184.5q0 25 14 42t40 17t40 -17t14 -42q0 -30 -19.5 -184.5t-19.5 -245.5v-61zM197 45q0 -25 -16 -42.5t-42 -17.5t-42 17.5t-16 42.5t16 42.5t42 17.5t42 -17.5t16 -42.5z" />
    <glyph glyph-name="quotedbl" unicode="&#x22;" horiz-adv-x="333" 
d="M272 634l-17 -205q-2 -30 -16 -30t-16 30l-17 205q-1 12 -1 32q0 49 34 49t34 -49q0 -20 -1 -32zM127 634l-17 -205q-2 -30 -16 -30t-16 30l-17 205q-1 12 -1 32q0 49 34 49t34 -49q0 -20 -1 -32z" />
    <glyph glyph-name="numbersign" unicode="#" 
d="M3 274h117l22 153h-107l-3 50h117l31 223h56l-31 -223h135l31 223h56l-31 -223h98l3 -50h-108l-21 -153h97l3 -50h-107l-32 -224h-56l32 224h-135l-32 -224h-56l32 224h-108zM333 427h-135l-22 -153h136z" />
    <glyph glyph-name="dollar" unicode="$" 
d="M224 34v304q-159 78 -159 193q0 68 46 111.5t113 54.5v81h42v-78q158 -9 158 -88q0 -50 -45 -50q-22 0 -35 8.5t-16.5 17.5t-7.5 26q-6 27 -17.5 39.5t-36.5 12.5v-247q1 -1 22.5 -10.5t29 -13.5t28.5 -16.5t31.5 -22t26.5 -27t23.5 -35t14 -41.5t6.5 -51q0 -82 -51 -137
t-131 -63v-104h-42v102q-87 0 -134 33t-47 70q0 55 51 55q16 0 27 -4.5t17.5 -16t9 -18t6.5 -23.5q5 -21 9.5 -31.5t19.5 -20.5t41 -10zM224 437v228q-92 -23 -92 -109q0 -78 92 -119zM266 319v-284q52 5 83.5 42.5t31.5 89.5q0 53 -32 91.5t-83 60.5z" />
    <glyph glyph-name="percent" unicode="%" horiz-adv-x="833" 
d="M203 304q38 0 55.5 45.5t17.5 147.5t-17.5 147.5t-55.5 45.5t-55.5 -45.5t-17.5 -147.5t17.5 -147.5t55.5 -45.5zM165 -15l416 730h49l-416 -730h-49zM589 396q-38 0 -55.5 -45.5t-17.5 -147.5t17.5 -147.5t55.5 -45.5t55.5 45.5t17.5 147.5t-17.5 147.5t-55.5 45.5z
M203 279q-39 0 -68.5 21.5t-45 55.5t-22.5 69.5t-7 71.5t7 71.5t22.5 69.5t45 55.5t68.5 21.5t68.5 -21.5t45 -55.5t22.5 -69.5t7 -71.5t-7 -71.5t-22.5 -69.5t-45 -55.5t-68.5 -21.5zM589 421q39 0 68.5 -21.5t45 -55.5t22.5 -69.5t7 -71.5t-7 -71.5t-22.5 -69.5t-45 -55.5
t-68.5 -21.5t-68.5 21.5t-45 55.5t-22.5 69.5t-7 71.5t7 71.5t22.5 69.5t45 55.5t68.5 21.5z" />
    <glyph glyph-name="ampersand" unicode="&#x26;" horiz-adv-x="722" 
d="M463 383v36h213v-36q-23 -1 -37.5 -5.5t-29.5 -22.5t-22 -51q-9 -42 -34 -97t-55 -85q12 -21 41 -39.5t53 -18.5q46 0 76 50l26 -23q-19 -41 -57 -73.5t-74 -32.5q-37 0 -65 17.5t-60 51.5q-78 -69 -187 -69q-86 0 -143.5 52.5t-57.5 145.5q0 44 13 80t39 64.5t53.5 48
t67.5 42.5q-21 58 -21 108q0 79 50.5 134t128.5 55q65 0 109.5 -32.5t44.5 -88.5q0 -23 -14.5 -37.5t-40.5 -14.5q-21 0 -36 20t-15 42q0 20 5.5 36t5.5 19q0 8 -19 14t-38 6q-51 0 -78 -34.5t-27 -92.5q0 -100 195 -400q25 24 47 76.5t22 86.5q0 64 -79 68zM304 38
q28 0 58.5 13.5t47.5 32.5q-103 137 -173 299q-98 -52 -98 -147q0 -84 46 -141t119 -57z" />
    <glyph glyph-name="quotesingle" unicode="'" horiz-adv-x="222" 
d="M95 429l-17 205q-1 12 -1 32q0 49 34 49t34 -49q0 -20 -1 -32l-17 -205q-2 -30 -16 -30t-16 30z" />
    <glyph glyph-name="parenleft" unicode="(" horiz-adv-x="333" 
d="M282 -153l-11 -16q-190 186 -190 459q0 264 194 458l12 -11q-120 -161 -120 -440q0 -146 24.5 -253t90.5 -197z" />
    <glyph glyph-name="parenright" unicode=")" horiz-adv-x="333" 
d="M51 732l11 16q190 -186 190 -459q0 -264 -194 -458l-12 11q120 161 120 440q0 146 -24.5 253t-90.5 197z" />
    <glyph glyph-name="asterisk" unicode="*" 
d="M432 426q0 -16 -9 -26.5t-23 -10.5q-26 0 -72.5 50t-67.5 55q0 -49 13 -94.5t13 -60.5q0 -17 -10.5 -26.5t-25.5 -9.5t-25.5 9.5t-10.5 26.5q0 15 13 60.5t13 94.5q-21 -5 -67.5 -55t-72.5 -50q-14 0 -23 10.5t-9 26.5q0 19 17.5 29.5t41.5 14.5t55.5 13.5t51.5 25.5
q-20 16 -51.5 25.5t-55.5 13.5t-41.5 14.5t-17.5 29.5q0 16 9.5 26.5t22.5 10.5q26 0 72.5 -50t67.5 -55q0 49 -13 94.5t-13 60.5q0 17 10.5 26.5t25.5 9.5t25.5 -9.5t10.5 -26.5q0 -15 -13 -60.5t-13 -94.5q21 5 67.5 55t72.5 50q13 0 22.5 -10.5t9.5 -26.5
q0 -19 -17.5 -29.5t-41.5 -14.5t-55.5 -13.5t-51.5 -25.5q20 -16 51.5 -25.5t55.5 -13.5t41.5 -14.5t17.5 -29.5z" />
    <glyph glyph-name="plus" unicode="+" horiz-adv-x="600" 
d="M273 266v211h55v-211h211v-55h-211v-211h-55v211h-211v55h211z" />
    <glyph glyph-name="comma" unicode="," horiz-adv-x="250" 
d="M51 -164l-17 15q89 89 89 121q0 10 -1 15q-56 25 -56 73q0 24 15.5 39.5t40.5 15.5q31 0 48 -21.5t17 -53.5q0 -94 -136 -204z" />
    <glyph glyph-name="hyphen" unicode="-" horiz-adv-x="333" 
d="M288 207h-243v64h243v-64z" />
    <glyph glyph-name="period" unicode="." horiz-adv-x="250" 
d="M187 50q0 -28 -17.5 -46.5t-44.5 -18.5t-44.5 18.5t-17.5 46.5t17.5 46.5t44.5 18.5t44.5 -18.5t17.5 -46.5z" />
    <glyph glyph-name="slash" unicode="/" horiz-adv-x="278" 
d="M-19 -15l262 730h54l-262 -730h-54z" />
    <glyph glyph-name="zero" unicode="0" 
d="M250 715q89 0 147 -105.5t58 -259.5q0 -78 -24 -160.5t-72.5 -143.5t-108.5 -61q-92 0 -148.5 107t-56.5 258q0 149 62.5 257t142.5 108zM250 681q-109 0 -109 -331q0 -192 22 -261.5t87 -69.5q58 0 83.5 78.5t25.5 252.5q0 179 -23 255t-86 76z" />
    <glyph glyph-name="one" unicode="1" 
d="M414 0h-319v36l125 12v512q0 40 -10.5 52.5t-52.5 12.5q-10 0 -30 -0.5t-30 -0.5v37l213 54v-670l104 -9v-36z" />
    <glyph glyph-name="two" unicode="2" 
d="M439 188l-47 -203q-23 10 -52 13q-19 2 -69 2h-246v53q77 123 177 227q68 71 104 126t36 114q0 70 -37 113t-91 43q-39 0 -68.5 -17.5t-29.5 -47.5q0 -8 16 -30t16 -47q0 -59 -49 -59q-28 0 -45.5 21.5t-17.5 51.5q0 72 61 119.5t141 47.5q92 0 146 -55t54 -136
q0 -31 -10 -60.5t-23.5 -51.5t-39.5 -49.5t-43.5 -43t-52 -44.5t-49.5 -43q-123 -110 -125 -146h173q44 0 70.5 14t38.5 33.5t28 60.5z" />
    <glyph glyph-name="three" unicode="3" 
d="M215 -15q-79 0 -136.5 34t-57.5 94q0 21 12 37t39 16q32 0 46.5 -26t14.5 -57q0 -6 -0.5 -18t-0.5 -18q0 -12 23.5 -20t51.5 -8q74 0 110 51t36 121q0 77 -40.5 124t-107.5 47q-4 0 -17 -3.5t-22 -3.5q-24 0 -24 21q0 9 7.5 14.5t16.5 5.5q8 0 18 -3t18 -3
q60 0 93.5 41.5t33.5 103.5q0 61 -29 103.5t-89 42.5q-48 0 -77 -25q8 -48 8 -53q0 -23 -12 -41t-37 -18q-55 0 -55 54q0 37 33 65t72.5 40t73.5 12q84 0 146 -47t62 -126q0 -117 -144 -163v-2q75 -16 121.5 -65t46.5 -124q0 -93 -65 -148t-169 -55z" />
    <glyph glyph-name="four" unicode="4" 
d="M245 715h111v-2q-108 -250 -303 -499h227v250l88 141h2v-391h95v-52h-95v-119l58 -7v-36h-215v36l67 7v119h-266v55q97 135 146 236t85 262z" />
    <glyph glyph-name="five" unicode="5" 
d="M404 614h-280l-12 -221q54 40 79 48q28 10 68 10q50 0 89 -20.5t61 -53.5t33.5 -71t11.5 -77q0 -102 -70 -173t-181 -71q-65 0 -117 30t-52 87q0 24 14.5 39.5t37.5 15.5q28 0 44 -18.5t16 -48.5q0 -10 -2 -21t-3 -14.5t0 -6.5q25 -29 78 -29q66 0 102.5 61.5t36.5 141.5
q0 84 -38 130.5t-97 46.5q-33 0 -61 -14t-38.5 -25t-32.5 -37l-26 20l22 357h233q28 0 41.5 4.5t24.5 19.5h42z" />
    <glyph glyph-name="six" unicode="6" 
d="M263 -15q-48 0 -86.5 21t-63 54t-40.5 77t-22.5 87.5t-6.5 88.5q0 175 76.5 288.5t192.5 113.5q49 0 80.5 -25.5t31.5 -62.5q0 -22 -12 -34t-29 -12q-28 0 -45.5 20t-17.5 51q0 16 -6.5 22.5t-22.5 6.5q-43 0 -78.5 -40t-54.5 -101t-19 -125q0 -10 0.5 -30.5t0.5 -30.5h2
q50 94 140 94q84 0 130 -65.5t46 -152.5q0 -98 -53 -171.5t-143 -73.5zM256 19q113 0 113 200q0 79 -29.5 128t-83.5 49q-53 0 -83 -52.5t-30 -124.5q0 -37 5.5 -69.5t17 -63.5t35 -49t55.5 -18z" />
    <glyph glyph-name="seven" unicode="7" 
d="M475 700v-37q-14 -24 -46.5 -81t-48 -85t-39.5 -79t-35.5 -88t-20.5 -87t-9 -99q0 -19 2 -42t2 -41q0 -76 -66 -76q-25 0 -41 19.5t-16 53.5q0 65 30 148t63 142.5t86 146t71 119.5h-212q-49 0 -73 -18t-47 -76l-32 5l46 190q11 -7 29 -10q22 -5 47 -5h310z" />
    <glyph glyph-name="eight" unicode="8" 
d="M250 19q62 0 103 39t41 98q0 22 -5.5 41.5t-18 36t-24 29t-32 25.5t-33 21t-36 20.5t-32.5 17.5q-56 -33 -81.5 -67.5t-25.5 -103.5t41 -113t103 -44zM248 681q-50 0 -80 -30t-30 -74q0 -15 2.5 -28t10 -25t13 -21t18.5 -19t20 -16t24 -15t23 -12.5t25 -12.5t23 -11
q69 50 69 135q0 61 -31.5 95t-86.5 34zM250 -15q-92 0 -151.5 52t-59.5 133q0 71 37 117t104 82q-109 73 -109 165q0 88 51 134.5t130 46.5q76 0 128.5 -44t52.5 -111q0 -48 -31 -91.5t-76 -69.5q135 -88 135 -203q0 -98 -58.5 -154.5t-152.5 -56.5z" />
    <glyph glyph-name="nine" unicode="9" 
d="M229 715q48 0 86.5 -20.5t63 -54t40.5 -78.5t22.5 -90.5t6.5 -93.5q0 -169 -76.5 -281t-192.5 -112q-49 0 -80.5 25.5t-31.5 62.5q0 21 15 33.5t34 12.5q21 0 38 -18.5t17 -40.5q0 -24 7 -32.5t22 -8.5q52 0 88.5 50.5t50 111t13.5 117.5q0 6 -0.5 21.5t-0.5 26.5h-2
q-50 -94 -140 -94q-84 0 -130 65.5t-46 152.5q0 90 54 167.5t142 77.5zM236 681q-32 0 -55.5 -18.5t-35 -49.5t-17 -63.5t-5.5 -68.5q0 -72 30 -124.5t83 -52.5q55 0 84 48.5t29 128.5q0 39 -5 72.5t-17.5 63.5t-35.5 47t-55 17z" />
    <glyph glyph-name="colon" unicode=":" horiz-adv-x="250" 
d="M187 412q0 -28 -17.5 -46.5t-44.5 -18.5t-44.5 18.5t-17.5 46.5t17.5 46.5t44.5 18.5t44.5 -18.5t17.5 -46.5zM187 50q0 -28 -17.5 -46.5t-44.5 -18.5t-44.5 18.5t-17.5 46.5t17.5 46.5t44.5 18.5t44.5 -18.5t17.5 -46.5z" />
    <glyph glyph-name="semicolon" unicode=";" horiz-adv-x="250" 
d="M51 -164l-17 15q89 89 89 121q0 10 -1 15q-56 25 -56 73q0 24 15.5 39.5t40.5 15.5q31 0 48 -21.5t17 -53.5q0 -94 -136 -204zM63 412q0 28 17.5 46.5t44.5 18.5t44.5 -18.5t17.5 -46.5t-17.5 -46.5t-44.5 -18.5t-44.5 18.5t-17.5 46.5z" />
    <glyph glyph-name="less" unicode="&#x3c;" horiz-adv-x="600" 
d="M134 238l398 -181v-57l-464 212v53l464 212v-57z" />
    <glyph glyph-name="equal" unicode="=" horiz-adv-x="600" 
d="M539 359v-55h-477v55h477zM539 173v-55h-477v55h477z" />
    <glyph glyph-name="greater" unicode="&#x3e;" horiz-adv-x="600" 
d="M68 57l398 181l-398 182v57l464 -212v-53l-464 -212v57z" />
    <glyph glyph-name="question" unicode="?" horiz-adv-x="389" 
d="M164 170h-32v220q62 13 102.5 57.5t40.5 104.5q0 47 -27 83.5t-59 36.5q-6 0 -15.5 -17t-26.5 -33.5t-41 -16.5t-37.5 14t-13.5 36q0 60 83 60q76 0 136.5 -60.5t60.5 -143.5q0 -74 -48 -129.5t-123 -77.5v-134zM204 45q0 -25 -16 -42.5t-42 -17.5t-42 17.5t-16 42.5
t16 42.5t42 17.5t42 -17.5t16 -42.5z" />
    <glyph glyph-name="at" unicode="@" horiz-adv-x="800" 
d="M392 195q49 0 87.5 77.5t38.5 152.5q0 68 -47 68q-49 0 -99.5 -59.5t-50.5 -150.5q0 -88 71 -88zM545 523h72l-64 -238q-9 -34 -9 -53q0 -47 42 -47q44 0 78.5 35t50.5 83.5t16 98.5q0 48 -21 97.5t-59 92t-99 69.5t-133 27q-128 0 -215.5 -98t-87.5 -267q0 -122 87 -212
t226 -90q64 0 109 12.5t101 38.5l14 -28q-44 -20 -69.5 -30t-68.5 -19.5t-85 -9.5q-100 0 -179.5 34.5t-125 88t-69 112t-23.5 114.5q0 70 24.5 136.5t71 122t122 89t168.5 33.5q153 0 250.5 -93t97.5 -219q0 -89 -54.5 -170.5t-142.5 -81.5q-32 0 -55.5 16.5t-32 33
t-7.5 25.5h-2q-24 -35 -56.5 -54.5t-65.5 -19.5q-14 0 -27 3.5t-32 15t-30.5 40.5t-11.5 72q0 36 15.5 79t41.5 82.5t66.5 66t84.5 26.5q30 0 45.5 -13.5t30.5 -42.5z" />
    <glyph glyph-name="A" unicode="A" horiz-adv-x="556" 
d="M567 0h-208v36l59 6l-53 182h-230l-31 -104q-5 -16 -5 -32q0 -28 17 -39.5t55 -12.5v-36h-193v36q36 6 51.5 18t25.5 45l170 541l-28 60l113 5l205 -663l52 -6v-36zM149 263h203l-101 330h-2z" />
    <glyph glyph-name="B" unicode="B" horiz-adv-x="611" 
d="M195 662v-263h34q35 0 60 2t54.5 10t48 22t31 39.5t12.5 60.5q0 74 -46 102.5t-144 28.5q-9 0 -25 -1t-25 -1zM97 43v614l-60 7v36h259q235 0 235 -162q0 -67 -42.5 -105t-107.5 -51v-2q80 -18 129 -66t49 -127q0 -91 -60 -139t-178 -48h-284v36zM193 360v-318
q31 -6 67 -6q97 0 145 36.5t48 126.5q0 80 -52 122t-141 42q-48 0 -67 -3z" />
    <glyph glyph-name="C" unicode="C" horiz-adv-x="611" 
d="M535 206l31 -9q-27 -92 -90.5 -152t-153.5 -60q-128 0 -202 100.5t-74 244.5q0 98 32 185t96 143.5t145 56.5q43 0 76 -11q38 -12 51 -12q27 0 64 23l47 -222l-34 -8q-18 34 -23.5 44t-23.5 40.5t-31 43t-34 30.5t-44.5 25t-50.5 7q-77 0 -120.5 -70.5t-43.5 -213.5
q0 -174 60 -257.5t142 -83.5q122 0 181 156z" />
    <glyph glyph-name="D" unicode="D" horiz-adv-x="667" 
d="M199 663v-624q44 -3 84 -3q51 0 91 14.5t73 49t50.5 97.5t17.5 153q0 91 -16 153.5t-47.5 97t-72 49t-96.5 14.5q-19 0 -46 -0.5t-38 -0.5zM103 43v614l-60 7v36h248q67 0 122 -19.5t93 -53t64.5 -78.5t38.5 -95t12 -104q0 -62 -20 -122.5t-57 -112t-98 -83.5t-136 -32
h-267v36z" />
    <glyph glyph-name="E" unicode="E" horiz-adv-x="611" 
d="M102 43v614l-60 7v36h338q79 0 125 15l44 -207l-31 -6q-45 93 -95.5 127.5t-141.5 34.5q-55 0 -83 -5v-267h46q51 0 73 21.5t37 89.5h33v-258h-33q-15 68 -37 89.5t-73 21.5h-48v-315q28 -5 83 -5q95 0 155 42.5t100 136.5l35 -4l-54 -226q-25 9 -57 12q-20 3 -68 3h-348
v36z" />
    <glyph glyph-name="F" unicode="F" horiz-adv-x="556" 
d="M260 0h-216v36l60 7v614l-60 7v36h327q79 0 125 15l49 -223l-34 -5q-40 90 -98.5 133.5t-144.5 43.5q-11 0 -33.5 -1t-32.5 -1v-284h46q51 0 73 21.5t37 89.5h33v-258h-33q-15 68 -37 89.5t-73 21.5h-48v-299l60 -7v-36z" />
    <glyph glyph-name="G" unicode="G" horiz-adv-x="667" 
d="M433 273h194v-36l-44 -7v-116q0 -50 5 -85h-35q-5 0 -83 -22t-110 -22q-138 0 -224 100t-86 240q0 176 85 283t205 107q41 0 76 -11q38 -12 51 -12q27 0 64 23l47 -215l-32 -7q-43 87 -64 114q-54 67 -137 68q-93 0 -141 -78t-48 -213q0 -89 21 -160.5t55 -113t73 -63.5
t78 -22q43 0 73.5 14.5t30.5 40.5v150l-54 7v36z" />
    <glyph glyph-name="H" unicode="H" horiz-adv-x="722" 
d="M104 43v614l-60 7v36h216v-36l-60 -7v-265h322v265l-60 7v36h216v-36l-60 -7v-614l60 -7v-36h-216v36l60 7v310h-322v-310l60 -7v-36h-216v36z" />
    <glyph glyph-name="I" unicode="I" horiz-adv-x="333" 
d="M289 0h-246v36l75 7v614l-75 7v36h246v-36l-75 -7v-614l75 -7v-36z" />
    <glyph glyph-name="J" unicode="J" horiz-adv-x="389" 
d="M125 700h216v-36l-60 -7v-420q0 -94 -61.5 -173t-145.5 -79q-21 0 -43 15t-22 38q0 58 52 58q23 0 41 -13t27.5 -26t12.5 -13q17 0 30 31.5t13 74.5v507l-60 7v36z" />
    <glyph glyph-name="K" unicode="K" horiz-adv-x="667" 
d="M388 469l216 -426l54 -7v-36h-229v36l68 7l-171 347l-123 -149v-198l60 -7v-36h-216v36l60 7v614l-60 7v36h216v-36l-60 -7v-351h4l194 248q3 4 10 12.5t10.5 13t9 11.5t8 11.5t6 10t4.5 10.5t1 9q0 27 -67 32v36h241v-36q-79 -5 -112 -45z" />
    <glyph glyph-name="L" unicode="L" horiz-adv-x="556" 
d="M104 43v614l-60 7v36h216v-36l-60 -7v-616q37 -5 65 -5q101 0 158 41t91 136l32 -5l-49 -223q-25 9 -57 12q-20 3 -68 3h-328v36z" />
    <glyph glyph-name="M" unicode="M" horiz-adv-x="778" 
d="M350 130l-191 481h-2l-10 -496q-1 -40 20.5 -57.5t61.5 -21.5v-36h-210v36q54 12 67.5 34t15.5 108l10 479l-59 7v36h167l168 -426l170 426h167v-36l-61 -7l19 -614l60 -7v-36h-218v36l60 7l-14 574h-2l-195 -487h-24z" />
    <glyph glyph-name="N" unicode="N" horiz-adv-x="667" 
d="M529 0l-372 563h-2v-424q0 -43 18.5 -73t64.5 -30v-36h-210v36q44 0 63.5 28.5t19.5 59.5v474q0 66 -83 66v36h150l343 -528h2v391q0 53 -13.5 75.5t-61.5 25.5v36h194v-36q-20 -1 -34 -8.5t-22 -17t-12.5 -25t-5.5 -28.5t-1 -33v-552h-38z" />
    <glyph glyph-name="O" unicode="O" horiz-adv-x="667" 
d="M333 715q82 0 150 -55t104 -138t36 -172t-36 -172t-104 -138t-150 -55t-150 55t-104 138t-36 172t36 172t104 138t150 55zM333 675q-184 0 -184 -325t184 -325t184 325t-184 325z" />
    <glyph glyph-name="P" unicode="P" horiz-adv-x="556" 
d="M100 43v614l-60 7v36h278q92 0 150.5 -47t58.5 -139q0 -100 -66.5 -146t-196.5 -46q-33 0 -68 3v-282l60 -7v-36h-216v36zM196 659v-296q25 -5 72 -5q76 0 119.5 43t43.5 110q0 72 -38 112.5t-101 40.5q-71 0 -96 -5z" />
    <glyph glyph-name="Q" unicode="Q" horiz-adv-x="667" 
d="M618 -48v-23q0 -18 -25.5 -32.5t-57.5 -14.5q-90 0 -128 116q-24 -8 -36 -10q-18 -3 -38 -3q-82 0 -150 55t-104 138t-36 172t36 172t104 138t150 55t150 -55t104 -138t36 -172q0 -90 -38.5 -176t-104.5 -136q1 -2 6.5 -12t7.5 -13.5t8 -13t9.5 -13.5t9.5 -12t11.5 -11.5
t12 -7.5t13.5 -6t15 -2q27 0 45 5zM313 118l5 32q69 0 113 -51l14 -16q72 87 72 267q0 325 -184 325t-184 -325t184 -325q33 0 57 14l-6 12q-4 9 -8.5 16.5t-9 13.5l-7.5 10t-8.5 8t-7.5 6t-8 4.5t-7 3t-8 3.5z" />
    <glyph glyph-name="R" unicode="R" horiz-adv-x="611" 
d="M99 43v614l-60 7v36h250q63 0 110.5 -13t74 -31.5t43 -44.5t21.5 -48t5 -45q0 -74 -37 -112.5t-107 -59.5l145 -303l50 -7v-36h-132l-157 332h-56q-26 0 -54 5v-294l60 -7v-36h-216v36zM197 659v-286q25 -5 71 -5q38 0 75.5 10.5t70.5 44t33 85.5q0 156 -165 156
q-60 0 -85 -5z" />
    <glyph glyph-name="S" unicode="S" horiz-adv-x="556" 
d="M80 -3l-38 218l32 7q91 -197 224 -197q50 0 92 34t42 89q0 56 -37 94t-89.5 60t-105 45.5t-89.5 68t-37 110.5q0 81 52.5 135t133.5 54q28 0 67 -15q41 -15 45 -15q23 0 63 22l40 -203l-35 -5q-15 37 -30 64t-38 54.5t-54.5 42.5t-69.5 15q-45 0 -74.5 -28.5t-29.5 -77.5
q0 -56 37.5 -92t91 -56t107 -43t91 -70.5t37.5 -120.5q0 -80 -58.5 -141t-159.5 -61q-31 0 -72 17.5t-66 17.5q-26 0 -72 -23z" />
    <glyph glyph-name="T" unicode="T" horiz-adv-x="556" 
d="M386 0h-216v36l60 7v621q-71 0 -112.5 -42.5t-75.5 -122.5l-28 4l37 212q31 -9 57 -12q30 -3 68 -3h204q79 0 125 15l37 -212l-28 -4q-34 80 -75.5 122.5t-112.5 42.5v-621l60 -7v-36z" />
    <glyph glyph-name="U" unicode="U" horiz-adv-x="611" 
d="M86 194v463l-60 7v36h216v-36l-60 -7v-459q0 -173 149 -173q68 0 108.5 42.5t40.5 130.5v363q0 51 -18 77t-65 26v36h202v-36q-48 -3 -61.5 -25.5t-13.5 -75.5v-369q0 -99 -57.5 -154t-161.5 -55q-100 0 -159.5 53.5t-59.5 155.5z" />
    <glyph glyph-name="V" unicode="V" horiz-adv-x="556" 
d="M-6 664v36h207v-36l-59 -7l156 -549h2l110 351q41 128 41 153q0 22 -22 37t-47 15v36h194v-36q-61 0 -90 -94l-162 -524l22 -61h-101l-204 672z" />
    <glyph glyph-name="W" unicode="W" horiz-adv-x="833" 
d="M-4 664v36h205v-36l-58 -7l129 -538h2l125 409l-40 151l89 29l160 -586h2l89 338l10 33q10 33 15 60.5t5 58.5q0 17 -22.5 34.5t-46.5 17.5v36h187v-36q-28 -6 -45 -22t-26 -51l-146 -536l20 -70h-98l-131 481h-2l-126 -411l23 -70h-100l-172 672z" />
    <glyph glyph-name="X" unicode="X" horiz-adv-x="611" 
d="M374 36l62 7l-153 272l-106 -189q-16 -28 -16 -44q0 -46 67 -46v-36h-215v36q69 1 116 86l128 231l-177 304l-60 7v36h224v-36l-57 -7l135 -232l56 100q7 12 18.5 31t16 27.5t8.5 20t4 22.5q0 38 -63 38v36h209v-36q-72 -10 -103 -63l-123 -212l202 -346l52 -7v-36h-225
v36z" />
    <glyph glyph-name="Y" unicode="Y" horiz-adv-x="556" 
d="M384 0h-217v36l61 7v243l-187 371l-49 7v36h217v-36l-61 -7l157 -318l93 188q32 64 32 91q0 17 -13 27.5t-22.5 12.5t-33.5 6v36h203v-36q-34 -6 -52.5 -21t-34.5 -48l-153 -310v-242l60 -7v-36z" />
    <glyph glyph-name="Z" unicode="Z" horiz-adv-x="556" 
d="M494 666l-339 -625q28 -5 60 -5q101 0 158 41t91 136l32 -5l-49 -223q-25 9 -57 12q-20 3 -68 3h-280v28l345 631q-5 0 -24.5 2.5t-29.5 2.5q-96 0 -146 -36.5t-87 -121.5l-31 8l44 194q18 -5 46 -7q16 -1 46 -1h289v-34z" />
    <glyph glyph-name="bracketleft" unicode="[" horiz-adv-x="333" 
d="M106 -154v887h165v-23q-64 -4 -78.5 -19t-14.5 -78v-656q0 -15 3 -27t6.5 -20.5t11.5 -15t13 -10t16.5 -6.5t15.5 -4t16.5 -3t14.5 -2v-23h-169z" />
    <glyph glyph-name="backslash" unicode="\" horiz-adv-x="278" 
d="M35 715l262 -730h-54l-262 730h54z" />
    <glyph glyph-name="bracketright" unicode="]" horiz-adv-x="333" 
d="M58 733h169v-887h-165v23q64 4 78.5 19t14.5 78v656q0 15 -3 27t-6.5 20.5t-11.5 15t-13 10t-16.5 6.5t-15.5 4t-16.5 3t-14.5 2v23z" />
    <glyph glyph-name="asciicircum" unicode="^" horiz-adv-x="600" 
d="M153 335h-62l183 365h52l183 -365h-62l-147 295z" />
    <glyph glyph-name="underscore" unicode="_" 
d="M500 -125h-500v50h500v-50z" />
    <glyph glyph-name="grave" unicode="`" horiz-adv-x="278" 
d="M215 543h-38l-152 94q-35 21 -35 44q0 33 30 33q27 0 53 -28z" />
    <glyph glyph-name="a" unicode="a" horiz-adv-x="444" 
d="M366 319v-248q0 -28 24 -28q17 0 32 18l21 -20q-40 -56 -94 -56q-25 0 -42 19.5t-19 46.5q-26 -29 -64.5 -47.5t-75.5 -18.5q-52 0 -89 33.5t-37 85.5q0 45 25.5 83t68 63t84 41t86.5 26q0 72 -32.5 105.5t-65.5 33.5q-12 0 -20 -10.5t-12.5 -23t-18 -23t-36.5 -10.5
q-19 0 -31 12.5t-12 33.5q0 32 20 44.5t70 12.5q21 0 46.5 -4.5t56.5 -16.5t56 -30.5t42 -50t17 -71.5zM285 96v184q-40 -7 -76.5 -22.5t-68 -50.5t-31.5 -81q0 -38 22 -60.5t59 -22.5q53 0 95 53z" />
    <glyph glyph-name="b" unicode="b" 
d="M17 702l138 46q-2 -42 -2 -61v-260q63 65 117 65q84 0 135.5 -64t51.5 -170q0 -105 -57 -189t-149 -84q-37 0 -72.5 18t-57.5 51l-61 -69l-17 10q29 69 29 215v379q0 50 -7 68.5t-23 18.5q-12 0 -25 -4v30zM151 376v-268q1 -34 31.5 -60.5t63.5 -26.5q46 0 76.5 30
t42 69.5t11.5 85.5q0 95 -37 157t-100 62q-24 0 -49.5 -14.5t-38.5 -34.5z" />
    <glyph glyph-name="c" unicode="c" horiz-adv-x="444" 
d="M399 130l28 -19q-77 -126 -187 -126q-91 0 -146 67.5t-55 158.5q0 115 61 198t167 83q58 0 94.5 -20.5t36.5 -61.5q0 -24 -14 -37t-38 -13q-23 0 -33.5 12t-19.5 36q-1 3 -4 11.5t-4.5 11.5t-5.5 9t-8 8.5t-11 5t-16 2.5q-50 0 -87 -54t-37 -123q0 -97 39.5 -162
t113.5 -65q43 0 71 19.5t55 58.5z" />
    <glyph glyph-name="d" unicode="d" 
d="M421 687v-576q0 -32 9.5 -46.5t41.5 -14.5v-30l-96 -35l-28 72q-36 -35 -67 -53.5t-73 -18.5q-72 0 -120.5 72.5t-48.5 165.5q0 114 57.5 191.5t136.5 77.5q57 0 108 -32v191q0 26 -16 26q-26 0 -39 -4v30l137 45q-2 -42 -2 -61zM340 102v278q0 30 -31 56t-66 26
q-46 0 -75.5 -33.5t-38.5 -71.5t-9 -79q0 -90 34 -154t96 -64q23 0 50.5 12.5t39.5 29.5z" />
    <glyph glyph-name="e" unicode="e" horiz-adv-x="444" 
d="M401 300l-274 -81q3 -61 39.5 -114t99.5 -53q39 0 67.5 20.5t53.5 59.5l25 -17q-26 -58 -71 -94t-105 -36q-92 0 -143.5 69.5t-51.5 164.5q0 121 54.5 197t130.5 76q77 0 120 -54.5t55 -137.5zM123 265l133 37q28 8 40.5 20.5t12.5 43.5q0 34 -19 62t-58 28
q-58 0 -84 -42.5t-26 -97.5q0 -41 1 -51z" />
    <glyph glyph-name="f" unicode="f" horiz-adv-x="278" 
d="M164 477h98v-44h-98v-396l50 -7v-30h-181v30l50 7v396h-55v44h56q2 94 60 182.5t123 88.5q59 0 59 -54q0 -18 -13 -29.5t-31 -11.5q-26 0 -42 14q-14 14 -21 14q-23 0 -39.5 -35t-16.5 -82q0 -18 0.5 -47t0.5 -40z" />
    <glyph glyph-name="g" unicode="g" 
d="M234 -143q52 0 87.5 5.5t62 24.5t26.5 53q0 32 -41 46q-48 17 -206 17q-13 -3 -32.5 -27.5t-19.5 -44.5q0 -24 10.5 -39.5t30.5 -22.5t38.5 -9.5t43.5 -2.5zM136 322q0 -49 28.5 -94.5t81.5 -45.5q54 0 82 42.5t28 97.5q0 62 -29 98t-81 36q-54 0 -82 -40t-28 -94z
M226 -179q-196 0 -196 99q0 16 11 31.5t19 22t31.5 21t25.5 15.5q-4 1 -17 3.5t-20.5 5t-17 7.5t-14 14t-4.5 21q0 14 13 31.5t27 29.5t36 29t27 21q-92 53 -92 147q0 74 53 123.5t129 49.5h34q2 2 15 15.5t17 17t16.5 15t19 16t18.5 12.5t21 11t21 6t23 3q23 0 38 -13.5
t15 -31.5q0 -50 -53 -50q-27 0 -55 30q-11 0 -20 -5.5t-21 -17t-15 -14.5q56 -19 91 -61.5t35 -99.5q0 -78 -56 -128.5t-139 -50.5q-30 0 -56 8q-2 -2 -16 -11t-24 -18.5t-10 -16.5q0 -29 148 -29q193 0 193 -124q0 -134 -251 -134z" />
    <glyph glyph-name="h" unicode="h" horiz-adv-x="556" 
d="M527 0h-181v30l50 7v275q0 122 -104 122q-64 0 -128 -59v-338l50 -7v-30h-181v30l50 7v552q0 50 -7 68.5t-23 18.5q-12 0 -25 -4v30l138 46q-2 -42 -2 -61v-263q29 21 48.5 32.5t50.5 23.5t58 12q68 0 112 -46t44 -112v-297l50 -7v-30z" />
    <glyph glyph-name="i" unicode="i" horiz-adv-x="278" 
d="M230 0h-181v30l50 7v296q0 50 -7 68.5t-23 18.5q-12 0 -25 -4v30l138 46q-2 -42 -2 -61v-394l50 -7v-30zM140 715q25 0 40 -15t15 -38t-15 -38t-40 -15t-40 15t-15 38t15 38t40 15z" />
    <glyph glyph-name="j" unicode="j" horiz-adv-x="278" 
d="M54 446l138 46q-2 -42 -2 -61v-369q0 -87 -54.5 -164t-114.5 -77q-26 0 -41.5 12.5t-15.5 32.5t12 35t34 15q20 0 38 -14t25 -14q36 0 36 110v335q0 50 -7 68.5t-23 18.5q-12 0 -25 -4v30zM150 715q25 0 40 -15t15 -38t-15 -38t-40 -15t-40 15t-15 38t15 38t40 15z" />
    <glyph glyph-name="k" unicode="k" 
d="M168 687v-459h2q56 93 98 147q3 4 16 21t20.5 26t21.5 24.5t25.5 24t27 15t29.5 6.5q50 0 50 -47q0 -20 -14 -34t-34 -14q-12 0 -27.5 4t-20.5 4q-10 0 -22 -9t-20.5 -18.5t-19.5 -24t-14 -17.5l166 -299l41 -7v-30h-180v30l50 7l-125 229q-74 -93 -74 -146v-83l50 -7
v-30h-177v30l50 7v603q0 16 -8.5 26t-20.5 10q-13 0 -26 -4v30l138 46q-2 -42 -2 -61z" />
    <glyph glyph-name="l" unicode="l" horiz-adv-x="278" 
d="M44 702l138 46q-2 -42 -2 -61v-650l50 -7v-30h-181v30l50 7v552q0 50 -7 68.5t-23 18.5q-12 0 -25 -4v30z" />
    <glyph glyph-name="m" unicode="m" horiz-adv-x="833" 
d="M89 37v331q0 38 -11.5 50t-41.5 12v26l95 36q21 -37 36 -81q7 6 28 26t33 28.5t37.5 17.5t56.5 9q80 0 124 -82q35 30 50 41.5t46.5 26t63.5 14.5q71 0 110.5 -47.5t39.5 -132.5v-275l50 -7v-30h-181v30l50 7v283q0 60 -29.5 87t-72.5 27q-49 0 -110 -57v-340l50 -7v-30
h-181v30l50 7v301q0 36 -27 66t-67 30q-7 0 -14.5 -1t-15 -4.5t-13.5 -5.5t-15 -8t-13 -8.5t-13.5 -10t-11.5 -9t-12 -9.5l-10 -9v-332l50 -7v-30h-181v30z" />
    <glyph glyph-name="n" unicode="n" horiz-adv-x="556" 
d="M218 0h-181v30l50 7v325q0 38 -11.5 50t-41.5 12v26l103 42q25 -52 31 -76q5 4 20.5 18.5t21 19t20.5 14.5t25.5 13.5t28 7t36.5 3.5q74 0 116 -44t42 -134v-277l50 -7v-30h-181v30l50 7v273q0 124 -105 124q-38 0 -66 -17t-58 -52v-328l50 -7v-30z" />
    <glyph glyph-name="o" unicode="o" 
d="M250 456q-64 0 -93 -60t-29 -158t29 -157.5t93 -59.5t93 59.5t29 157.5t-29 158t-93 60zM36 238q0 96 60.5 175t153.5 79t153.5 -79t60.5 -175t-60.5 -174.5t-153.5 -78.5t-153.5 78.5t-60.5 174.5z" />
    <glyph glyph-name="p" unicode="p" 
d="M207 -169h-179v30l50 7v468q0 50 -7 68.5t-23 18.5q-12 0 -25 -4v30l102 43q19 -37 32 -76q68 76 132 76q79 0 125 -70t46 -161q0 -124 -60 -196.5t-135 -72.5q-64 0 -108 24v-148l50 -7v-30zM159 369v-280q0 -21 32 -44t64 -23q44 0 73 29.5t40 70.5t11 91q0 51 -11 96
t-41 80.5t-76 35.5q-53 0 -92 -56z" />
    <glyph glyph-name="q" unicode="q" 
d="M423 339v-471l50 -7v-30h-183v30l50 7v172q-21 -23 -60.5 -39t-61.5 -16q-84 0 -127.5 68t-43.5 167q0 105 59 188.5t145 83.5q69 0 125 -62l65 62l15 -16q-16 -21 -24.5 -61.5t-8.5 -75.5zM342 82v295q-5 34 -33 56.5t-59 22.5q-54 0 -88 -58.5t-34 -160.5
q0 -81 32 -137.5t95 -56.5q44 0 87 39z" />
    <glyph glyph-name="r" unicode="r" horiz-adv-x="389" 
d="M237 0h-181v30l50 7v265q0 51 -12.5 86.5t-31.5 35.5q-4 0 -11.5 -2t-9.5 -2v30l99 42q38 -91 40 -174h2q10 54 49 114t87 60q26 0 41 -15t15 -40q0 -17 -17.5 -34.5t-34.5 -17.5q-14 0 -29.5 6t-21.5 6q-31 0 -57.5 -76.5t-26.5 -138.5v-145l50 -7v-30z" />
    <glyph glyph-name="s" unicode="s" horiz-adv-x="389" 
d="M349 132q0 -60 -47.5 -103.5t-125.5 -43.5q-60 0 -105.5 25t-45.5 62q0 25 12.5 38.5t34.5 13.5q25 0 38 -16t15.5 -35.5t15 -35.5t37.5 -16q43 0 73.5 21t30.5 58q0 34 -23.5 59t-57.5 41.5t-68 34t-57.5 47.5t-23.5 72q0 64 47.5 101t132.5 37q42 0 64.5 -15.5
t22.5 -40.5q0 -47 -49 -47q-20 0 -33 16.5t-23.5 33.5t-25.5 17q-31 0 -50 -19t-19 -49q0 -26 17 -45.5t42.5 -30.5t55.5 -26t55.5 -31.5t42.5 -48t17 -74.5z" />
    <glyph glyph-name="t" unicode="t" horiz-adv-x="333" 
d="M170 477h129v-44h-131v-313q0 -42 15.5 -59.5t52.5 -17.5q29 0 78 38l15 -31q-37 -34 -68 -49.5t-74 -15.5q-100 0 -100 143v305h-62v44h64v131l81 66v-197z" />
    <glyph glyph-name="u" unicode="u" horiz-adv-x="556" 
d="M28 446l138 46q-2 -42 -2 -61v-291q0 -45 26.5 -71t71.5 -26q43 0 76.5 27.5t52.5 61.5v201q0 50 -7 68.5t-23 18.5q-12 0 -25 -4v30l138 46q-2 -42 -2 -61v-336q0 -53 26 -53q15 0 27 4v-30l-100 -31q-23 36 -33 89q-38 -46 -79 -67.5t-95 -21.5q-57 0 -96 36t-39 106
v206q0 50 -7 68.5t-23 18.5q-12 0 -25 -4v30z" />
    <glyph glyph-name="v" unicode="v" horiz-adv-x="444" 
d="M237 -15h-45l-142 387q-1 3 -4.5 12.5t-5 13.5t-5 11.5t-5.5 11t-5.5 8t-6.5 6.5t-7 2q-12 0 -24 -4v30l105 29l146 -417l84 180q30 65 30 90q0 17 -21.5 43.5t-21.5 51.5q0 23 12.5 37.5t37.5 14.5q31 0 45.5 -19.5t14.5 -45.5q0 -54 -56 -175z" />
    <glyph glyph-name="w" unicode="w" horiz-adv-x="667" 
d="M212 -15h-41l-121 377q-13 41 -22.5 56.5t-23.5 15.5q-6 0 -22 -4v30l109 32l119 -393h2l128 385h13l129 -402h2l70 181q21 54 21 83q0 14 -25 41.5t-25 48.5q0 56 53 56q57 0 57 -66q0 -58 -44 -168l-111 -273h-44l-110 342h-2z" />
    <glyph glyph-name="x" unicode="x" horiz-adv-x="444" 
d="M441 0h-181v30l50 7l-110 168l-61 -98q-14 -23 -14 -42q0 -17 15.5 -26t34.5 -9v-30h-171v30q24 4 42 17t24 21.5t20 30.5l87 139l-135 202l-34 7v30h179v-30l-50 -7l99 -151l51 87q15 26 15 45q0 22 -48 26v30h164v-30q-43 -3 -67 -42l-92 -150l148 -218l34 -7v-30z" />
    <glyph glyph-name="y" unicode="y" horiz-adv-x="444" 
d="M-4 454l110 38l138 -405h2l91 210q18 43 18 53q0 12 -25.5 36t-25.5 53q0 24 15.5 38.5t39.5 14.5q28 0 41.5 -20t13.5 -50q0 -54 -65 -195l-125 -271q-62 -135 -153 -135q-24 0 -40 12.5t-16 36.5q0 20 12.5 33t36.5 13q14 0 36 -10t31 -10q18 0 43 40.5t25 58.5
q0 7 -17 50l-120 327q-11 31 -24 41.5t-42 10.5v30z" />
    <glyph glyph-name="z" unicode="z" horiz-adv-x="444" 
d="M28 0v38l279 403h-54q-44 0 -78 -12t-55 -34.5t-32.5 -41.5t-22.5 -47l-28 7l39 171q26 -4 51 -5q40 -2 59 -2h216v-28l-283 -413h65q74 0 118 37.5t78 112.5l30 -6l-41 -191q-14 4 -48 8q-25 3 -53 3h-240z" />
    <glyph glyph-name="braceleft" unicode="{" horiz-adv-x="333" 
d="M276 748v-23q-55 -14 -76.5 -45t-21.5 -89v-165q0 -65 -20.5 -93.5t-78.5 -41.5v-2q58 -13 78.5 -41.5t20.5 -93.5v-166q0 -58 21.5 -89t76.5 -45v-23q-86 0 -128 30t-42 119v189q0 55 -20.5 81.5t-73.5 39.5q53 13 73.5 39.5t20.5 81.5v188q0 89 42 119t128 30z" />
    <glyph glyph-name="bar" unicode="|" horiz-adv-x="222" 
d="M83 -250v1000h55v-1000h-55z" />
    <glyph glyph-name="braceright" unicode="}" horiz-adv-x="333" 
d="M227 599v-189q0 -55 20.5 -81.5t73.5 -39.5q-53 -13 -73.5 -39.5t-20.5 -81.5v-188q0 -89 -42 -119t-128 -30v23q55 14 76.5 45t21.5 89v165q0 65 20.5 93.5t78.5 41.5v2q-58 13 -78.5 41.5t-20.5 93.5v166q0 58 -21.5 89t-76.5 45v23q86 0 128 -30t42 -119z" />
    <glyph glyph-name="asciitilde" unicode="~" horiz-adv-x="600" 
d="M105 172l-36 42q20 28 32.5 42.5t37.5 29t55 14.5q36 0 106 -34q72 -34 111 -34q48 0 84 72l36 -42q-20 -28 -32.5 -42.5t-37.5 -29t-55 -14.5q-36 0 -106 34q-72 34 -111 34q-48 0 -84 -72z" />
    <glyph glyph-name="uni00A0" unicode="&#xa0;" horiz-adv-x="250" 
 />
    <glyph glyph-name="exclamdown" unicode="&#xa1;" horiz-adv-x="278" 
d="M124 371h30v-61q0 -91 19.5 -245.5t19.5 -184.5q0 -25 -14 -42t-40 -17t-40 17t-14 42q0 30 19.5 184.5t19.5 245.5v61zM81 491q0 25 16 42.5t42 17.5t42 -17.5t16 -42.5t-16 -42.5t-42 -17.5t-42 17.5t-16 42.5z" />
    <glyph glyph-name="cent" unicode="&#xa2;" 
d="M409 236l22 -20q-56 -95 -153 -105v-111h-42v111q-80 11 -123 75.5t-43 151.5t42.5 156t123.5 93v101h42v-98q57 0 99.5 -18.5t42.5 -63.5q0 -19 -11.5 -31.5t-31.5 -12.5q-27 0 -40.5 13.5t-15.5 30t-12 30.5t-31 15v-382q14 -2 20 -2q63 0 111 67zM236 183v366
q-45 -17 -69 -62t-24 -103q0 -144 93 -201z" />
    <glyph glyph-name="sterling" unicode="&#xa3;" 
d="M69 387h81q-4 35 -4 77q0 105 73.5 178t178.5 73q35 0 62 -17t27 -49q0 -53 -51 -53q-25 0 -41.5 12t-22 26.5t-13 26.5t-17.5 12q-33 0 -69.5 -53.5t-36.5 -150.5q0 -36 11 -82h148v-42h-138q13 -55 13 -117q0 -46 -14 -96q82 -43 122 -43q75 0 95 108h31
q0 -28 -5 -59.5t-17.5 -68t-38.5 -60.5t-62 -24q-15 0 -30 4.5t-26 9.5t-26.5 16.5t-22 17.5t-24 22t-21.5 20q-58 -90 -154 -90q-48 0 -78 28.5t-30 79.5q0 50 30 79t78 29q49 0 133 -44q1 10 1 30q0 16 -9.5 46t-23.5 66t-17 46h-92v42zM11 93q0 -28 19.5 -47t51.5 -19
q79 0 117 79q-63 53 -117 53q-32 0 -51.5 -19t-19.5 -47z" />
    <glyph glyph-name="currency" unicode="&#xa4;" 
d="M1 141l54 57q-53 67 -53 152t53 152l-54 57l40 40l54 -58q64 57 155 57t155 -57l54 58l40 -40l-54 -57q53 -67 53 -152t-53 -152l54 -57l-40 -40l-54 58q-64 -57 -155 -57t-155 57l-54 -58zM437 350q0 78 -54.5 134.5t-132.5 56.5t-132.5 -56.5t-54.5 -134.5t54.5 -134.5
t132.5 -56.5t132.5 56.5t54.5 134.5z" />
    <glyph glyph-name="yen" unicode="&#xa5;" 
d="M154 392h-140v42h121l-104 223l-44 7v36h199v-36l-57 -7l145 -318l86 188q29 63 29 91q0 6 -1 11.5t-4 9.5t-5 7t-7.5 5.5t-7.5 4t-9.5 3t-9 2t-9.5 2t-9 1.5v36h185v-36q-31 -6 -48.5 -21.5t-32.5 -47.5l-71 -161h123v-42h-142l-33 -73h153v-42h-166v-234l60 -7v-36
h-210v36l60 7v234h-169v42h152z" />
    <glyph glyph-name="brokenbar" unicode="&#xa6;" horiz-adv-x="222" 
d="M83 -175v350h55v-350h-55zM83 325v350h55v-350h-55z" />
    <glyph glyph-name="section" unicode="&#xa7;" 
d="M428 286q0 -57 -32.5 -89t-99.5 -31v-2h2l-2 -2q29 -26 45 -42.5t31.5 -45t15.5 -56.5q0 -57 -39 -92t-106 -35q-55 0 -96.5 27.5t-41.5 74.5q0 22 12.5 37t39.5 15q19 0 33.5 -12.5t14.5 -33.5q0 -17 -17.5 -34t-17.5 -18q0 -16 25.5 -25.5t51.5 -9.5q42 0 64 21t22 55
q0 32 -27 62.5t-65.5 57t-76.5 56t-65 70.5t-27 88q0 52 30.5 86.5t104.5 34.5l2 2q-33 26 -49 41.5t-32 45t-16 62.5q0 58 39 89.5t103 31.5q48 0 86.5 -29t38.5 -67q0 -22 -13 -38.5t-37 -16.5q-21 0 -35.5 12t-14.5 32q0 14 17.5 33t17.5 23q0 14 -17.5 22t-43.5 8
q-37 0 -61.5 -20.5t-24.5 -57.5q0 -25 27 -54.5t65.5 -59t76.5 -61.5t65 -72.5t27 -82.5zM376 257q0 42 -67.5 103.5t-120.5 61.5q-28 0 -46 -21.5t-18 -49.5q0 -43 66.5 -103.5t117.5 -60.5q29 0 48.5 20.5t19.5 49.5z" />
    <glyph glyph-name="dieresis" unicode="&#xa8;" horiz-adv-x="278" 
d="M40 659q21 0 35 -15t14 -35t-14 -35t-35 -15t-35 15t-14 35t14 35t35 15zM238 659q21 0 35 -15t14 -35t-14 -35t-35 -15t-35 15t-14 35t14 35t35 15z" />
    <glyph glyph-name="copyright" unicode="&#xa9;" horiz-adv-x="800" 
d="M400 -15q-153 0 -255 110t-102 255t102 255t255 110t255 -110t102 -255t-102 -255t-255 -110zM400 26q124 0 213.5 96.5t89.5 227.5t-89.5 227.5t-213.5 96.5t-213.5 -96.5t-89.5 -227.5t89.5 -227.5t213.5 -96.5zM560 521v-74h-16q-4 38 -31 65.5t-81 27.5
q-75 0 -117.5 -50t-42.5 -135t42.5 -135t117.5 -50q54 0 82.5 21.5t46.5 67.5h16l-18 -76q-2 -6 -18.5 -14t-47.5 -14.5t-65 -6.5q-104 0 -166.5 56t-62.5 151q0 92 65 149.5t164 57.5q38 0 69.5 -7.5t47 -16.5t15.5 -17z" />
    <glyph glyph-name="ordfeminine" unicode="&#xaa;" horiz-adv-x="266" 
d="M244 608v-145q0 -17 7 -17q11 0 20 11l14 -12q-25 -34 -61 -34t-40 40q-38 -40 -88 -40q-36 0 -61.5 20t-25.5 51q0 36 31 64t66.5 42t76.5 22q0 80 -64 80q-10 0 -21 -18.5t-35 -18.5q-28 0 -28 28q0 34 58 34q30 0 62 -8.5t60.5 -34t28.5 -64.5zM182 478v110
q-42 -7 -76.5 -29.5t-34.5 -62.5q0 -22 13.5 -36t36.5 -14q34 0 61 32z" />
    <glyph glyph-name="guillemotleft" unicode="&#xab;" 
d="M446 429q12 0 12 -10q0 -12 -54.5 -85t-74.5 -96q20 -23 74.5 -96t54.5 -85q0 -10 -12 -10q-4 0 -18 14q-35 35 -155 143q-5 4 -11 9t-10 8.5t-7.5 6.5t-5.5 5.5t-2 4.5q0 3 4.5 7t15 13t16.5 14q120 108 155 143q14 14 18 14zM252 429q12 0 12 -10q0 -12 -54.5 -85
t-74.5 -96q20 -23 74.5 -96t54.5 -85q0 -10 -12 -10q-4 0 -18 14q-35 35 -155 143q-5 4 -11 9t-10 8.5t-7.5 6.5t-5.5 5.5t-2 4.5q0 3 4.5 7t15 13t16.5 14q120 108 155 143q14 14 18 14z" />
    <glyph glyph-name="logicalnot" unicode="&#xac;" horiz-adv-x="600" 
d="M484 101v203h-422v55h477v-258h-55z" />
    <glyph glyph-name="uni00AD" unicode="&#xad;" horiz-adv-x="333" 
d="M288 207h-243v64h243v-64z" />
    <glyph glyph-name="registered" unicode="&#xae;" horiz-adv-x="800" 
d="M400 -15q-153 0 -255 110t-102 255t102 255t255 110t255 -110t102 -255t-102 -255t-255 -110zM400 26q124 0 213.5 96.5t89.5 227.5t-89.5 227.5t-213.5 96.5t-213.5 -96.5t-89.5 -227.5t89.5 -227.5t213.5 -96.5zM398 161h-168v16q38 4 45 11t7 41v255q0 34 -7 41
t-45 11v14h183q52 0 88 -26.5t36 -73.5q0 -78 -86 -106l62 -85q51 -70 84 -89v-9h-63q-10 0 -20 7t-22 24t-23 35t-30.5 49t-37.5 58h-55v-105q0 -34 7 -41t45 -11v-16zM346 531v-178h49q79 0 79 89t-79 89h-49z" />
    <glyph glyph-name="macron" unicode="&#xaf;" horiz-adv-x="278" 
d="M295 583h-311v54h311v-54z" />
    <glyph glyph-name="degree" unicode="&#xb0;" horiz-adv-x="400" 
d="M99 572q0 -42 29.5 -74t71.5 -32t71.5 32t29.5 74t-29.5 74t-71.5 32t-71.5 -32t-29.5 -74zM57 572q0 60 42.5 101.5t100.5 41.5t100.5 -41.5t42.5 -101.5t-42.5 -101.5t-100.5 -41.5t-100.5 41.5t-42.5 101.5z" />
    <glyph glyph-name="plusminus" unicode="&#xb1;" horiz-adv-x="600" 
d="M273 312v165h55v-165h211v-55h-211v-165h-55v165h-211v55h211zM62 0v55h477v-55h-477z" />
    <glyph glyph-name="twosuperior" unicode="&#xb2;" horiz-adv-x="300" 
d="M284 399l-31 -122q-10 4 -36 8q-13 1 -43 1h-159v32q53 76 115 136q32 30 47 46t29.5 43.5t14.5 56.5q0 40 -23 66t-66 26q-22 0 -40 -10.5t-18 -28.5q0 -5 10.5 -18.5t10.5 -28.5q0 -35 -32 -35q-18 0 -29.5 12.5t-11.5 31.5q0 43 38.5 71.5t92.5 28.5q60 0 95 -33
t35 -82q0 -22 -7.5 -41.5t-27 -40.5t-30.5 -31.5t-41 -33.5t-36 -28q-80 -66 -81 -87h119q36 0 51.5 14t31.5 50z" />
    <glyph glyph-name="threesuperior" unicode="&#xb3;" horiz-adv-x="300" 
d="M141 277q-52 0 -89 20.5t-37 56.5q0 32 33 32q20 0 29.5 -15.5t9.5 -34.5v-22q0 -7 15 -12t34 -5q47 0 70.5 31t23.5 73t-26.5 72t-69.5 30q-5 0 -11 -2q-8 -2 -14 -2q-16 0 -16 13q0 5 5.5 8.5t10.5 3.5q6 0 10 -2t13 -2q39 0 61 25t22 62t-18.5 62.5t-58.5 25.5
q-29 0 -50 -15q5 -28 5 -32q0 -36 -32 -36q-35 0 -35 33t36 51.5t80 18.5q58 0 96.5 -27.5t38.5 -76.5q0 -69 -93 -98v-2q48 -9 78.5 -38t30.5 -74q0 -56 -42.5 -89t-109.5 -33z" />
    <glyph glyph-name="acute" unicode="&#xb4;" horiz-adv-x="278" 
d="M101 543h-38l142 143q26 28 53 28q30 0 30 -33q0 -23 -35 -44z" />
    <glyph glyph-name="mu" unicode="&#xb5;" horiz-adv-x="556" 
d="M472 431v-336q0 -53 26 -53q15 0 27 4v-30l-100 -31q-23 36 -33 89q-38 -46 -79 -67.5t-95 -21.5q-31 0 -55 10v-164h-130v30l50 7v465q0 50 -7 68.5t-23 18.5q-12 0 -25 -4v30l138 46q-2 -42 -2 -61v-291q0 -45 26.5 -71t71.5 -26q43 0 76.5 27.5t52.5 61.5v201
q0 50 -7 68.5t-23 18.5q-12 0 -25 -4v30l138 46q-2 -42 -2 -61z" />
    <glyph glyph-name="paragraph" unicode="&#xb6;" horiz-adv-x="600" 
d="M464 630v-792h-58v832h-61v-832h-58v450q-103 0 -150.5 50.5t-47.5 155.5t47.5 155.5t150.5 50.5h255v-24q-47 -5 -62.5 -12.5t-15.5 -33.5z" />
    <glyph glyph-name="periodcentered" unicode="&#xb7;" horiz-adv-x="250" 
d="M125 175q-28 0 -45.5 18.5t-17.5 44.5t17.5 44.5t45.5 18.5t45.5 -18.5t17.5 -44.5t-17.5 -44.5t-45.5 -18.5z" />
    <glyph glyph-name="cedilla" unicode="&#xb8;" horiz-adv-x="278" 
d="M103 0h35l-26 -65q1 0 12 1.5t17 1.5q36 0 60 -17.5t24 -51.5q0 -37 -30 -61t-87 -24q-53 0 -92 17l14 31q33 -12 61 -12q58 0 58 46q0 34 -45 34q-7 0 -19.5 -1.5t-15.5 -1.5l-8 4z" />
    <glyph glyph-name="onesuperior" unicode="&#xb9;" horiz-adv-x="300" 
d="M276 286h-208v22l82 7v307q0 24 -7 31.5t-34 7.5q-7 0 -20 -0.5t-19 -0.5v23l138 32v-402l68 -5v-22z" />
    <glyph glyph-name="ordmasculine" unicode="&#xba;" horiz-adv-x="300" 
d="M151 436q72 0 72 127t-72 127t-72 -127q0 -61 15.5 -94t56.5 -33zM151 411q-61 0 -101.5 47.5t-40.5 104.5t40.5 104.5t101.5 47.5t101.5 -47.5t40.5 -104.5t-40.5 -104.5t-101.5 -47.5z" />
    <glyph glyph-name="guillemotright" unicode="&#xbb;" 
d="M54 47q-12 0 -12 10q0 12 54.5 85t74.5 96q-20 23 -74.5 96t-54.5 85q0 10 12 10q4 0 18 -14q35 -35 155 -143q5 -4 11 -9t10 -8.5t7.5 -6.5t5.5 -5.5t2 -4.5q0 -3 -4.5 -7t-15 -13t-16.5 -14q-120 -108 -155 -143q-14 -14 -18 -14zM248 47q-12 0 -12 10q0 12 54.5 85
t74.5 96q-20 23 -74.5 96t-54.5 85q0 10 12 10q4 0 18 -14q35 -35 155 -143q5 -4 11 -9t10 -8.5t7.5 -6.5t5.5 -5.5t2 -4.5q0 -3 -4.5 -7t-15 -13t-16.5 -14q-120 -108 -155 -143q-14 -14 -18 -14z" />
    <glyph glyph-name="onequarter" unicode="&#xbc;" horiz-adv-x="750" 
d="M288 286h-208v22l82 7v307q0 24 -7 31.5t-34 7.5q-7 0 -20 -0.5t-19 -0.5v23l138 32v-402l68 -5v-22zM562 429h72v-2q-71 -153 -197 -299h148v150l56 85h2v-235h62v-31h-62v-71l38 -4v-22h-140v22l44 4v71h-173v33q48 62 84 123q42 73 66 176zM599 715h51l-450 -730h-51z
" />
    <glyph glyph-name="onehalf" unicode="&#xbd;" horiz-adv-x="750" 
d="M703 113l-31 -122q-10 4 -36 8q-13 1 -43 1h-159v32q53 76 115 136q32 30 47 46t29.5 43.5t14.5 56.5q0 40 -23 66t-66 26q-22 0 -40 -10.5t-18 -28.5q0 -5 10.5 -18.5t10.5 -28.5q0 -35 -32 -35q-18 0 -29.5 12.5t-11.5 31.5q0 43 38.5 71.5t92.5 28.5q60 0 95 -33
t35 -82q0 -22 -7.5 -41.5t-27 -40.5t-30.5 -31.5t-41 -33.5t-36 -28q-80 -66 -81 -87h119q36 0 51.5 14t31.5 50zM288 286h-208v22l82 7v307q0 24 -7 31.5t-34 7.5q-7 0 -20 -0.5t-19 -0.5v23l138 32v-402l68 -5v-22zM576 715h51l-450 -730h-51z" />
    <glyph glyph-name="threequarters" unicode="&#xbe;" horiz-adv-x="750" 
d="M562 429h72v-2q-71 -153 -197 -299h148v150l56 85h2v-235h62v-31h-62v-71l38 -4v-22h-140v22l44 4v71h-173v33q48 62 84 123q42 73 66 176zM607 715h51l-450 -730h-51zM171 277q-52 0 -89 20.5t-37 56.5q0 32 33 32q20 0 29.5 -15.5t9.5 -34.5v-22q0 -7 15 -12t34 -5
q47 0 70.5 31t23.5 73t-26.5 72t-69.5 30q-5 0 -11 -2q-8 -2 -14 -2q-16 0 -16 13q0 5 5.5 8.5t10.5 3.5q6 0 10 -2t13 -2q39 0 61 25t22 62t-18.5 62.5t-58.5 25.5q-29 0 -50 -15q5 -28 5 -32q0 -36 -32 -36q-35 0 -35 33t36 51.5t80 18.5q58 0 96.5 -27.5t38.5 -76.5
q0 -69 -93 -98v-2q48 -9 78.5 -38t30.5 -74q0 -56 -42.5 -89t-109.5 -33z" />
    <glyph glyph-name="questiondown" unicode="&#xbf;" horiz-adv-x="389" 
d="M225 366h32v-220q-62 -13 -102.5 -57.5t-40.5 -104.5q0 -47 27 -83.5t59 -36.5q6 0 15.5 16.5t26.5 33.5t41 17t37.5 -14t13.5 -36q0 -60 -83 -60q-76 0 -136.5 60.5t-60.5 143.5q0 74 48 129.5t123 77.5v134zM185 491q0 25 16 42.5t42 17.5t42 -17.5t16 -42.5t-16 -42.5
t-42 -17.5t-42 17.5t-16 42.5z" />
    <glyph glyph-name="Agrave" unicode="&#xc0;" horiz-adv-x="556" 
d="M567 0h-208v36l59 6l-53 182h-230l-31 -104q-5 -16 -5 -32q0 -28 17 -39.5t55 -12.5v-36h-193v36q36 6 51.5 18t25.5 45l170 541l-28 60l113 5l205 -663l52 -6v-36zM149 263h203l-101 330h-2zM342 744h-38l-152 94q-35 21 -35 44q0 33 30 33q27 0 53 -28z" />
    <glyph glyph-name="Aacute" unicode="&#xc1;" horiz-adv-x="556" 
d="M567 0h-208v36l59 6l-53 182h-230l-31 -104q-5 -16 -5 -32q0 -28 17 -39.5t55 -12.5v-36h-193v36q36 6 51.5 18t25.5 45l170 541l-28 60l113 5l205 -663l52 -6v-36zM149 263h203l-101 330h-2zM228 744h-38l142 143q26 28 53 28q30 0 30 -33q0 -23 -35 -44z" />
    <glyph glyph-name="Acircumflex" unicode="&#xc2;" horiz-adv-x="556" 
d="M567 0h-208v36l59 6l-53 182h-230l-31 -104q-5 -16 -5 -32q0 -28 17 -39.5t55 -12.5v-36h-193v36q36 6 51.5 18t25.5 45l170 541l-28 60l113 5l205 -663l52 -6v-36zM149 263h203l-101 330h-2zM236 910h62l124 -166h-33l-122 103l-121 -103h-35z" />
    <glyph glyph-name="Atilde" unicode="&#xc3;" horiz-adv-x="556" 
d="M567 0h-208v36l59 6l-53 182h-230l-31 -104q-5 -16 -5 -32q0 -28 17 -39.5t55 -12.5v-36h-193v36q36 6 51.5 18t25.5 45l170 541l-28 60l113 5l205 -663l52 -6v-36zM149 263h203l-101 330h-2zM130 769h-29q24 101 106 101q28 0 74 -23q44 -22 65 -22q43 0 56 50h29
q-8 -48 -36 -77t-74 -29q-28 0 -72 22q-44 23 -63 23q-38 0 -56 -45z" />
    <glyph glyph-name="Adieresis" unicode="&#xc4;" horiz-adv-x="556" 
d="M567 0h-208v36l59 6l-53 182h-230l-31 -104q-5 -16 -5 -32q0 -28 17 -39.5t55 -12.5v-36h-193v36q36 6 51.5 18t25.5 45l170 541l-28 60l113 5l205 -663l52 -6v-36zM149 263h203l-101 330h-2zM167 860q21 0 35 -15t14 -35t-14 -35t-35 -15t-35 15t-14 35t14 35t35 15z
M365 860q21 0 35 -15t14 -35t-14 -35t-35 -15t-35 15t-14 35t14 35t35 15z" />
    <glyph glyph-name="Aring" unicode="&#xc5;" horiz-adv-x="556" 
d="M567 0h-208v36l59 6l-53 182h-230l-31 -104q-5 -16 -5 -32q0 -28 17 -39.5t55 -12.5v-36h-193v36q36 6 51.5 18t25.5 45l170 541l-28 60l113 5l205 -663l52 -6v-36zM149 263h203l-101 330h-2zM365 843q0 -42 -27 -71t-72 -29t-72 29t-27 71t27 71t72 29t72 -29t27 -71z
M331 843q0 27 -17.5 46.5t-47.5 19.5t-47.5 -19.5t-17.5 -46.5t17.5 -46.5t47.5 -19.5t47.5 19.5t17.5 46.5z" />
    <glyph glyph-name="AE" unicode="&#xc6;" horiz-adv-x="889" 
d="M472 355v-314q28 -5 83 -5q106 0 159.5 40.5t95.5 138.5l35 -4l-54 -226q-25 9 -57 12q-20 3 -68 3h-348v36l60 7v233h-214l-58 -103q-43 -76 -43 -98q0 -39 63 -39v-36h-196v36q56 10 90 70l307 552q-24 19 -35 42h364q82 0 125 15l44 -208l-31 -6q-33 68 -57.5 99
t-66.5 47.5t-113 16.5q-43 0 -83 -6v-267h46q51 0 73 21.5t37 89.5h33v-257h-33q-15 68 -37 89t-73 21h-48zM188 315h190v349h-2z" />
    <glyph glyph-name="Ccedilla" unicode="&#xc7;" horiz-adv-x="611" 
d="M535 206l31 -9q-27 -91 -89.5 -151t-151.5 -61l-20 -50q1 0 12 1.5t17 1.5q36 0 60 -17.5t24 -51.5q0 -37 -30 -61t-87 -24q-53 0 -92 17l14 31q33 -12 61 -12q58 0 58 46q0 34 -45 34q-7 0 -19.5 -1.5t-15.5 -1.5l-8 4l37 86q-115 13 -180 111t-65 232q0 98 32 185
t96 143.5t145 56.5q43 0 76 -11q38 -12 51 -12q27 0 64 23l47 -222l-34 -8q-18 34 -23.5 44t-23.5 40.5t-31 43t-34 30.5t-44.5 25t-50.5 7q-77 0 -120.5 -70.5t-43.5 -213.5q0 -174 60 -257.5t142 -83.5q122 0 181 156z" />
    <glyph glyph-name="Egrave" unicode="&#xc8;" horiz-adv-x="611" 
d="M102 43v614l-60 7v36h338q79 0 125 15l44 -207l-31 -6q-45 93 -95.5 127.5t-141.5 34.5q-55 0 -83 -5v-267h46q51 0 73 21.5t37 89.5h33v-258h-33q-15 68 -37 89.5t-73 21.5h-48v-315q28 -5 83 -5q95 0 155 42.5t100 136.5l35 -4l-54 -226q-25 9 -57 12q-20 3 -68 3h-348
v36zM382 744h-38l-152 94q-35 21 -35 44q0 33 30 33q27 0 53 -28z" />
    <glyph glyph-name="Eacute" unicode="&#xc9;" horiz-adv-x="611" 
d="M102 43v614l-60 7v36h338q79 0 125 15l44 -207l-31 -6q-45 93 -95.5 127.5t-141.5 34.5q-55 0 -83 -5v-267h46q51 0 73 21.5t37 89.5h33v-258h-33q-15 68 -37 89.5t-73 21.5h-48v-315q28 -5 83 -5q95 0 155 42.5t100 136.5l35 -4l-54 -226q-25 9 -57 12q-20 3 -68 3h-348
v36zM268 744h-38l142 143q26 28 53 28q30 0 30 -33q0 -23 -35 -44z" />
    <glyph glyph-name="Ecircumflex" unicode="&#xca;" horiz-adv-x="611" 
d="M102 43v614l-60 7v36h338q79 0 125 15l44 -207l-31 -6q-45 93 -95.5 127.5t-141.5 34.5q-55 0 -83 -5v-267h46q51 0 73 21.5t37 89.5h33v-258h-33q-15 68 -37 89.5t-73 21.5h-48v-315q28 -5 83 -5q95 0 155 42.5t100 136.5l35 -4l-54 -226q-25 9 -57 12q-20 3 -68 3h-348
v36zM276 910h62l124 -166h-33l-122 103l-121 -103h-35z" />
    <glyph glyph-name="Edieresis" unicode="&#xcb;" horiz-adv-x="611" 
d="M102 43v614l-60 7v36h338q79 0 125 15l44 -207l-31 -6q-45 93 -95.5 127.5t-141.5 34.5q-55 0 -83 -5v-267h46q51 0 73 21.5t37 89.5h33v-258h-33q-15 68 -37 89.5t-73 21.5h-48v-315q28 -5 83 -5q95 0 155 42.5t100 136.5l35 -4l-54 -226q-25 9 -57 12q-20 3 -68 3h-348
v36zM207 860q21 0 35 -15t14 -35t-14 -35t-35 -15t-35 15t-14 35t14 35t35 15zM405 860q21 0 35 -15t14 -35t-14 -35t-35 -15t-35 15t-14 35t14 35t35 15z" />
    <glyph glyph-name="Igrave" unicode="&#xcc;" horiz-adv-x="333" 
d="M289 0h-246v36l75 7v614l-75 7v36h246v-36l-75 -7v-614l75 -7v-36zM243 744h-38l-152 94q-35 21 -35 44q0 33 30 33q27 0 53 -28z" />
    <glyph glyph-name="Iacute" unicode="&#xcd;" horiz-adv-x="333" 
d="M289 0h-246v36l75 7v614l-75 7v36h246v-36l-75 -7v-614l75 -7v-36zM129 744h-38l142 143q26 28 53 28q30 0 30 -33q0 -23 -35 -44z" />
    <glyph glyph-name="Icircumflex" unicode="&#xce;" horiz-adv-x="333" 
d="M289 0h-246v36l75 7v614l-75 7v36h246v-36l-75 -7v-614l75 -7v-36zM137 910h62l124 -166h-33l-122 103l-121 -103h-35z" />
    <glyph glyph-name="Idieresis" unicode="&#xcf;" horiz-adv-x="333" 
d="M289 0h-246v36l75 7v614l-75 7v36h246v-36l-75 -7v-614l75 -7v-36zM68 860q21 0 35 -15t14 -35t-14 -35t-35 -15t-35 15t-14 35t14 35t35 15zM266 860q21 0 35 -15t14 -35t-14 -35t-35 -15t-35 15t-14 35t14 35t35 15z" />
    <glyph glyph-name="Eth" unicode="&#xd0;" horiz-adv-x="667" 
d="M349 392v-39h-150v-314q44 -3 84 -3q51 0 91 14.5t73 49t50.5 97.5t17.5 153q0 91 -16 153.5t-47.5 97t-72 49t-96.5 14.5q-19 0 -46 -0.5t-38 -0.5v-271h150zM33 353v39h70v265l-60 7v36h248q67 0 122 -19.5t93 -53t64.5 -78.5t38.5 -95t12 -104q0 -62 -20 -122.5
t-57 -112t-98 -83.5t-136 -32h-267v36l60 7v310h-70z" />
    <glyph glyph-name="Ntilde" unicode="&#xd1;" horiz-adv-x="667" 
d="M529 0l-372 563h-2v-424q0 -43 18.5 -73t64.5 -30v-36h-210v36q44 0 63.5 28.5t19.5 59.5v474q0 66 -83 66v36h150l343 -528h2v391q0 53 -13.5 75.5t-61.5 25.5v36h194v-36q-20 -1 -34 -8.5t-22 -17t-12.5 -25t-5.5 -28.5t-1 -33v-552h-38zM215 769h-29q24 101 106 101
q28 0 74 -23q44 -22 65 -22q43 0 56 50h29q-8 -48 -36 -77t-74 -29q-28 0 -72 22q-44 23 -63 23q-38 0 -56 -45z" />
    <glyph glyph-name="Ograve" unicode="&#xd2;" horiz-adv-x="667" 
d="M333 715q82 0 150 -55t104 -138t36 -172t-36 -172t-104 -138t-150 -55t-150 55t-104 138t-36 172t36 172t104 138t150 55zM333 675q-184 0 -184 -325t184 -325t184 325t-184 325zM410 744h-38l-152 94q-35 21 -35 44q0 33 30 33q27 0 53 -28z" />
    <glyph glyph-name="Oacute" unicode="&#xd3;" horiz-adv-x="667" 
d="M333 715q82 0 150 -55t104 -138t36 -172t-36 -172t-104 -138t-150 -55t-150 55t-104 138t-36 172t36 172t104 138t150 55zM333 675q-184 0 -184 -325t184 -325t184 325t-184 325zM296 744h-38l142 143q26 28 53 28q30 0 30 -33q0 -23 -35 -44z" />
    <glyph glyph-name="Ocircumflex" unicode="&#xd4;" horiz-adv-x="667" 
d="M333 715q82 0 150 -55t104 -138t36 -172t-36 -172t-104 -138t-150 -55t-150 55t-104 138t-36 172t36 172t104 138t150 55zM333 675q-184 0 -184 -325t184 -325t184 325t-184 325zM304 910h62l124 -166h-33l-122 103l-121 -103h-35z" />
    <glyph glyph-name="Otilde" unicode="&#xd5;" horiz-adv-x="667" 
d="M333 715q82 0 150 -55t104 -138t36 -172t-36 -172t-104 -138t-150 -55t-150 55t-104 138t-36 172t36 172t104 138t150 55zM333 675q-184 0 -184 -325t184 -325t184 325t-184 325zM198 769h-29q24 101 106 101q28 0 74 -23q44 -22 65 -22q43 0 56 50h29q-8 -48 -36 -77
t-74 -29q-28 0 -72 22q-44 23 -63 23q-38 0 -56 -45z" />
    <glyph glyph-name="Odieresis" unicode="&#xd6;" horiz-adv-x="667" 
d="M333 715q82 0 150 -55t104 -138t36 -172t-36 -172t-104 -138t-150 -55t-150 55t-104 138t-36 172t36 172t104 138t150 55zM333 675q-184 0 -184 -325t184 -325t184 325t-184 325zM235 860q21 0 35 -15t14 -35t-14 -35t-35 -15t-35 15t-14 35t14 35t35 15zM433 860
q21 0 35 -15t14 -35t-14 -35t-35 -15t-35 15t-14 35t14 35t35 15z" />
    <glyph glyph-name="multiply" unicode="&#xd7;" horiz-adv-x="600" 
d="M261 238l-199 200l39 39l199 -200l200 200l39 -39l-200 -200l200 -199l-39 -39l-200 199l-199 -199l-39 39z" />
    <glyph glyph-name="Oslash" unicode="&#xd8;" horiz-adv-x="667" 
d="M179 141l281 472q-46 62 -127 62q-184 0 -184 -325q0 -135 30 -209zM482 573l-283 -473q46 -75 134 -75q184 0 184 325q0 146 -35 223zM65 -49l77 129q-46 51 -72.5 123.5t-26.5 146.5q0 89 36 172t104 138t150 55t153 -58l50 84h46l-66 -111q50 -54 78.5 -129t28.5 -151
q0 -89 -36 -172t-104 -138t-150 -55q-89 0 -163 66l-59 -100h-46z" />
    <glyph glyph-name="Ugrave" unicode="&#xd9;" horiz-adv-x="611" 
d="M86 194v463l-60 7v36h216v-36l-60 -7v-459q0 -173 149 -173q68 0 108.5 42.5t40.5 130.5v363q0 51 -18 77t-65 26v36h202v-36q-48 -3 -61.5 -25.5t-13.5 -75.5v-369q0 -99 -57.5 -154t-161.5 -55q-100 0 -159.5 53.5t-59.5 155.5zM388 744h-38l-152 94q-35 21 -35 44
q0 33 30 33q27 0 53 -28z" />
    <glyph glyph-name="Uacute" unicode="&#xda;" horiz-adv-x="611" 
d="M86 194v463l-60 7v36h216v-36l-60 -7v-459q0 -173 149 -173q68 0 108.5 42.5t40.5 130.5v363q0 51 -18 77t-65 26v36h202v-36q-48 -3 -61.5 -25.5t-13.5 -75.5v-369q0 -99 -57.5 -154t-161.5 -55q-100 0 -159.5 53.5t-59.5 155.5zM274 744h-38l142 143q26 28 53 28
q30 0 30 -33q0 -23 -35 -44z" />
    <glyph glyph-name="Ucircumflex" unicode="&#xdb;" horiz-adv-x="611" 
d="M86 194v463l-60 7v36h216v-36l-60 -7v-459q0 -173 149 -173q68 0 108.5 42.5t40.5 130.5v363q0 51 -18 77t-65 26v36h202v-36q-48 -3 -61.5 -25.5t-13.5 -75.5v-369q0 -99 -57.5 -154t-161.5 -55q-100 0 -159.5 53.5t-59.5 155.5zM282 910h62l124 -166h-33l-122 103
l-121 -103h-35z" />
    <glyph glyph-name="Udieresis" unicode="&#xdc;" horiz-adv-x="611" 
d="M86 194v463l-60 7v36h216v-36l-60 -7v-459q0 -173 149 -173q68 0 108.5 42.5t40.5 130.5v363q0 51 -18 77t-65 26v36h202v-36q-48 -3 -61.5 -25.5t-13.5 -75.5v-369q0 -99 -57.5 -154t-161.5 -55q-100 0 -159.5 53.5t-59.5 155.5zM213 860q21 0 35 -15t14 -35t-14 -35
t-35 -15t-35 15t-14 35t14 35t35 15zM411 860q21 0 35 -15t14 -35t-14 -35t-35 -15t-35 15t-14 35t14 35t35 15z" />
    <glyph glyph-name="Yacute" unicode="&#xdd;" horiz-adv-x="556" 
d="M384 0h-217v36l61 7v243l-187 371l-49 7v36h217v-36l-61 -7l157 -318l93 188q32 64 32 91q0 17 -13 27.5t-22.5 12.5t-33.5 6v36h203v-36q-34 -6 -52.5 -21t-34.5 -48l-153 -310v-242l60 -7v-36zM223 744h-38l142 143q26 28 53 28q30 0 30 -33q0 -23 -35 -44z" />
    <glyph glyph-name="Thorn" unicode="&#xde;" horiz-adv-x="556" 
d="M100 43v614l-60 7v36h216v-36l-60 -7v-89h122q92 0 150.5 -47t58.5 -139q0 -100 -66 -146t-195 -46q-35 0 -70 3v-150l60 -7v-36h-216v36zM196 527v-296q25 -5 67 -5q81 0 124.5 39.5t43.5 113.5t-43.5 113.5t-124.5 39.5q-42 0 -67 -5z" />
    <glyph glyph-name="germandbls" unicode="&#xdf;" horiz-adv-x="611" 
d="M46 477h55q0 118 54.5 194.5t165.5 76.5q71 0 130 -54.5t59 -111.5q0 -38 -15 -66t-37.5 -42.5t-48.5 -25t-48.5 -16t-37.5 -14t-15 -19.5q0 -12 26.5 -25t64 -28.5t74.5 -37t63.5 -60t26.5 -88.5q0 -74 -57.5 -124.5t-140.5 -50.5q-49 0 -95.5 26t-46.5 67q0 48 51 48
q24 0 37 -16.5t17 -36t17.5 -36t38.5 -16.5q40 0 76 28t36 81q0 37 -25.5 65t-61.5 45.5t-72 34.5t-61.5 42t-25.5 58q0 30 18.5 48t45 28t52.5 22t44.5 39.5t18.5 70.5q0 46 -34.5 87.5t-87.5 41.5q-57 0 -91.5 -53t-34.5 -143v-516h-131v30l50 7v400h-54v40z" />
    <glyph glyph-name="agrave" unicode="&#xe0;" horiz-adv-x="444" 
d="M366 319v-248q0 -28 24 -28q17 0 32 18l21 -20q-40 -56 -94 -56q-25 0 -42 19.5t-19 46.5q-26 -29 -64.5 -47.5t-75.5 -18.5q-52 0 -89 33.5t-37 85.5q0 45 25.5 83t68 63t84 41t86.5 26q0 72 -32.5 105.5t-65.5 33.5q-12 0 -20 -10.5t-12.5 -23t-18 -23t-36.5 -10.5
q-19 0 -31 12.5t-12 33.5q0 32 20 44.5t70 12.5q21 0 46.5 -4.5t56.5 -16.5t56 -30.5t42 -50t17 -71.5zM285 96v184q-40 -7 -76.5 -22.5t-68 -50.5t-31.5 -81q0 -38 22 -60.5t59 -22.5q53 0 95 53zM286 543h-38l-152 94q-35 21 -35 44q0 33 30 33q27 0 53 -28z" />
    <glyph glyph-name="aacute" unicode="&#xe1;" horiz-adv-x="444" 
d="M366 319v-248q0 -28 24 -28q17 0 32 18l21 -20q-40 -56 -94 -56q-25 0 -42 19.5t-19 46.5q-26 -29 -64.5 -47.5t-75.5 -18.5q-52 0 -89 33.5t-37 85.5q0 45 25.5 83t68 63t84 41t86.5 26q0 72 -32.5 105.5t-65.5 33.5q-12 0 -20 -10.5t-12.5 -23t-18 -23t-36.5 -10.5
q-19 0 -31 12.5t-12 33.5q0 32 20 44.5t70 12.5q21 0 46.5 -4.5t56.5 -16.5t56 -30.5t42 -50t17 -71.5zM285 96v184q-40 -7 -76.5 -22.5t-68 -50.5t-31.5 -81q0 -38 22 -60.5t59 -22.5q53 0 95 53zM172 543h-38l142 143q26 28 53 28q30 0 30 -33q0 -23 -35 -44z" />
    <glyph glyph-name="acircumflex" unicode="&#xe2;" horiz-adv-x="444" 
d="M366 319v-248q0 -28 24 -28q17 0 32 18l21 -20q-40 -56 -94 -56q-25 0 -42 19.5t-19 46.5q-26 -29 -64.5 -47.5t-75.5 -18.5q-52 0 -89 33.5t-37 85.5q0 45 25.5 83t68 63t84 41t86.5 26q0 72 -32.5 105.5t-65.5 33.5q-12 0 -20 -10.5t-12.5 -23t-18 -23t-36.5 -10.5
q-19 0 -31 12.5t-12 33.5q0 32 20 44.5t70 12.5q21 0 46.5 -4.5t56.5 -16.5t56 -30.5t42 -50t17 -71.5zM285 96v184q-40 -7 -76.5 -22.5t-68 -50.5t-31.5 -81q0 -38 22 -60.5t59 -22.5q53 0 95 53zM180 709h62l124 -166h-33l-122 103l-121 -103h-35z" />
    <glyph glyph-name="atilde" unicode="&#xe3;" horiz-adv-x="444" 
d="M366 319v-248q0 -28 24 -28q17 0 32 18l21 -20q-40 -56 -94 -56q-25 0 -42 19.5t-19 46.5q-26 -29 -64.5 -47.5t-75.5 -18.5q-52 0 -89 33.5t-37 85.5q0 45 25.5 83t68 63t84 41t86.5 26q0 72 -32.5 105.5t-65.5 33.5q-12 0 -20 -10.5t-12.5 -23t-18 -23t-36.5 -10.5
q-19 0 -31 12.5t-12 33.5q0 32 20 44.5t70 12.5q21 0 46.5 -4.5t56.5 -16.5t56 -30.5t42 -50t17 -71.5zM285 96v184q-40 -7 -76.5 -22.5t-68 -50.5t-31.5 -81q0 -38 22 -60.5t59 -22.5q53 0 95 53zM74 568h-29q24 101 106 101q28 0 74 -23q44 -22 65 -22q43 0 56 50h29
q-8 -48 -36 -77t-74 -29q-28 0 -72 22q-44 23 -63 23q-38 0 -56 -45z" />
    <glyph glyph-name="adieresis" unicode="&#xe4;" horiz-adv-x="444" 
d="M366 319v-248q0 -28 24 -28q17 0 32 18l21 -20q-40 -56 -94 -56q-25 0 -42 19.5t-19 46.5q-26 -29 -64.5 -47.5t-75.5 -18.5q-52 0 -89 33.5t-37 85.5q0 45 25.5 83t68 63t84 41t86.5 26q0 72 -32.5 105.5t-65.5 33.5q-12 0 -20 -10.5t-12.5 -23t-18 -23t-36.5 -10.5
q-19 0 -31 12.5t-12 33.5q0 32 20 44.5t70 12.5q21 0 46.5 -4.5t56.5 -16.5t56 -30.5t42 -50t17 -71.5zM285 96v184q-40 -7 -76.5 -22.5t-68 -50.5t-31.5 -81q0 -38 22 -60.5t59 -22.5q53 0 95 53zM111 659q21 0 35 -15t14 -35t-14 -35t-35 -15t-35 15t-14 35t14 35t35 15z
M309 659q21 0 35 -15t14 -35t-14 -35t-35 -15t-35 15t-14 35t14 35t35 15z" />
    <glyph glyph-name="aring" unicode="&#xe5;" horiz-adv-x="444" 
d="M366 319v-248q0 -28 24 -28q17 0 32 18l21 -20q-40 -56 -94 -56q-25 0 -42 19.5t-19 46.5q-26 -29 -64.5 -47.5t-75.5 -18.5q-52 0 -89 33.5t-37 85.5q0 45 25.5 83t68 63t84 41t86.5 26q0 72 -32.5 105.5t-65.5 33.5q-12 0 -20 -10.5t-12.5 -23t-18 -23t-36.5 -10.5
q-19 0 -31 12.5t-12 33.5q0 32 20 44.5t70 12.5q21 0 46.5 -4.5t56.5 -16.5t56 -30.5t42 -50t17 -71.5zM285 96v184q-40 -7 -76.5 -22.5t-68 -50.5t-31.5 -81q0 -38 22 -60.5t59 -22.5q53 0 95 53zM309 642q0 -42 -27 -71t-72 -29t-72 29t-27 71t27 71t72 29t72 -29t27 -71z
M275 642q0 27 -17.5 46.5t-47.5 19.5t-47.5 -19.5t-17.5 -46.5t17.5 -46.5t47.5 -19.5t47.5 19.5t17.5 46.5z" />
    <glyph glyph-name="ae" unicode="&#xe6;" horiz-adv-x="722" 
d="M664 130l32 -19q-80 -126 -195 -126q-50 0 -95 25.5t-74 73.5q-80 -99 -173 -99q-58 0 -90 35.5t-32 91.5q0 37 16.5 67.5t41.5 50.5t59.5 36.5t65.5 27t64 20.5q12 3 18 5v26q0 48 -36.5 79.5t-63.5 31.5q-11 0 -20 -10.5t-15 -22.5t-19.5 -22.5t-33.5 -10.5
q-23 0 -35.5 14.5t-12.5 31.5q0 27 22.5 41.5t54.5 14.5q77 0 123 -17.5t92 -58.5q27 29 40.5 40.5t42.5 23.5t67 12q77 0 123 -55.5t52 -135.5l-297 -75q4 -69 46.5 -121.5t109.5 -52.5q77 0 122 78zM300 103v175q-67 -10 -121.5 -44.5t-54.5 -91.5q0 -99 73 -99
q26 0 56 17.5t47 42.5zM383 264l161 41q47 12 47 61q0 34 -26.5 62t-60.5 28q-62 0 -92.5 -45.5t-30.5 -116.5q0 -10 2 -30z" />
    <glyph glyph-name="ccedilla" unicode="&#xe7;" horiz-adv-x="444" 
d="M399 130l28 -19q-77 -126 -186 -126l-20 -50q1 0 12 1.5t17 1.5q36 0 60 -17.5t24 -51.5q0 -37 -30 -61t-87 -24q-53 0 -92 17l14 31q33 -12 61 -12q58 0 58 46q0 34 -45 34q-7 0 -19.5 -1.5t-15.5 -1.5l-8 4l37 88q-77 12 -122.5 76t-45.5 146q0 115 61 198t167 83
q58 0 94.5 -20.5t36.5 -61.5q0 -24 -14 -37t-38 -13q-23 0 -33.5 12t-19.5 36q-1 3 -4 11.5t-4.5 11.5t-5.5 9t-8 8.5t-11 5t-16 2.5q-50 0 -87 -54t-37 -123q0 -97 39.5 -162t113.5 -65q43 0 71 19.5t55 58.5z" />
    <glyph glyph-name="egrave" unicode="&#xe8;" horiz-adv-x="444" 
d="M401 300l-274 -81q3 -61 39.5 -114t99.5 -53q39 0 67.5 20.5t53.5 59.5l25 -17q-26 -58 -71 -94t-105 -36q-92 0 -143.5 69.5t-51.5 164.5q0 121 54.5 197t130.5 76q77 0 120 -54.5t55 -137.5zM123 265l133 37q28 8 40.5 20.5t12.5 43.5q0 34 -19 62t-58 28
q-58 0 -84 -42.5t-26 -97.5q0 -41 1 -51zM310 543h-38l-152 94q-35 21 -35 44q0 33 30 33q27 0 53 -28z" />
    <glyph glyph-name="eacute" unicode="&#xe9;" horiz-adv-x="444" 
d="M401 300l-274 -81q3 -61 39.5 -114t99.5 -53q39 0 67.5 20.5t53.5 59.5l25 -17q-26 -58 -71 -94t-105 -36q-92 0 -143.5 69.5t-51.5 164.5q0 121 54.5 197t130.5 76q77 0 120 -54.5t55 -137.5zM123 265l133 37q28 8 40.5 20.5t12.5 43.5q0 34 -19 62t-58 28
q-58 0 -84 -42.5t-26 -97.5q0 -41 1 -51zM196 543h-38l142 143q26 28 53 28q30 0 30 -33q0 -23 -35 -44z" />
    <glyph glyph-name="ecircumflex" unicode="&#xea;" horiz-adv-x="444" 
d="M401 300l-274 -81q3 -61 39.5 -114t99.5 -53q39 0 67.5 20.5t53.5 59.5l25 -17q-26 -58 -71 -94t-105 -36q-92 0 -143.5 69.5t-51.5 164.5q0 121 54.5 197t130.5 76q77 0 120 -54.5t55 -137.5zM123 265l133 37q28 8 40.5 20.5t12.5 43.5q0 34 -19 62t-58 28
q-58 0 -84 -42.5t-26 -97.5q0 -41 1 -51zM204 709h62l124 -166h-33l-122 103l-121 -103h-35z" />
    <glyph glyph-name="edieresis" unicode="&#xeb;" horiz-adv-x="444" 
d="M401 300l-274 -81q3 -61 39.5 -114t99.5 -53q39 0 67.5 20.5t53.5 59.5l25 -17q-26 -58 -71 -94t-105 -36q-92 0 -143.5 69.5t-51.5 164.5q0 121 54.5 197t130.5 76q77 0 120 -54.5t55 -137.5zM123 265l133 37q28 8 40.5 20.5t12.5 43.5q0 34 -19 62t-58 28
q-58 0 -84 -42.5t-26 -97.5q0 -41 1 -51zM135 659q21 0 35 -15t14 -35t-14 -35t-35 -15t-35 15t-14 35t14 35t35 15zM333 659q21 0 35 -15t14 -35t-14 -35t-35 -15t-35 15t-14 35t14 35t35 15z" />
    <glyph glyph-name="igrave" unicode="&#xec;" horiz-adv-x="278" 
d="M230 0h-181v30l50 7v296q0 50 -7 68.5t-23 18.5q-12 0 -25 -4v30l138 46q-2 -42 -2 -61v-394l50 -7v-30zM215 543h-38l-152 94q-35 21 -35 44q0 33 30 33q27 0 53 -28z" />
    <glyph glyph-name="iacute" unicode="&#xed;" horiz-adv-x="278" 
d="M230 0h-181v30l50 7v296q0 50 -7 68.5t-23 18.5q-12 0 -25 -4v30l138 46q-2 -42 -2 -61v-394l50 -7v-30zM101 543h-38l142 143q26 28 53 28q30 0 30 -33q0 -23 -35 -44z" />
    <glyph glyph-name="icircumflex" unicode="&#xee;" horiz-adv-x="278" 
d="M230 0h-181v30l50 7v296q0 50 -7 68.5t-23 18.5q-12 0 -25 -4v30l138 46q-2 -42 -2 -61v-394l50 -7v-30zM109 709h62l124 -166h-33l-122 103l-121 -103h-35z" />
    <glyph glyph-name="idieresis" unicode="&#xef;" horiz-adv-x="278" 
d="M230 0h-181v30l50 7v296q0 50 -7 68.5t-23 18.5q-12 0 -25 -4v30l138 46q-2 -42 -2 -61v-394l50 -7v-30zM40 659q21 0 35 -15t14 -35t-14 -35t-35 -15t-35 15t-14 35t14 35t35 15zM238 659q21 0 35 -15t14 -35t-14 -35t-35 -15t-35 15t-14 35t14 35t35 15z" />
    <glyph glyph-name="eth" unicode="&#xf0;" 
d="M250 456q-64 0 -93 -60t-29 -158t29 -157.5t93 -59.5t93 59.5t29 157.5t-29 158t-93 60zM100 736l30 12q76 -68 98 -90l152 64l18 -30l-143 -60q209 -203 209 -364q0 -116 -59.5 -199.5t-154.5 -83.5q-93 0 -153.5 78.5t-60.5 174.5t60.5 175t153.5 79q30 0 54 -9
q-36 64 -91 132l-139 -57l-17 29l133 55q-37 45 -90 94z" />
    <glyph glyph-name="ntilde" unicode="&#xf1;" horiz-adv-x="556" 
d="M218 0h-181v30l50 7v325q0 38 -11.5 50t-41.5 12v26l103 42q25 -52 31 -76q5 4 20.5 18.5t21 19t20.5 14.5t25.5 13.5t28 7t36.5 3.5q74 0 116 -44t42 -134v-277l50 -7v-30h-181v30l50 7v273q0 124 -105 124q-38 0 -66 -17t-58 -52v-328l50 -7v-30zM142 568h-29
q24 101 106 101q28 0 74 -23q44 -22 65 -22q43 0 56 50h29q-8 -48 -36 -77t-74 -29q-28 0 -72 22q-44 23 -63 23q-38 0 -56 -45z" />
    <glyph glyph-name="ograve" unicode="&#xf2;" 
d="M250 456q-64 0 -93 -60t-29 -158t29 -157.5t93 -59.5t93 59.5t29 157.5t-29 158t-93 60zM36 238q0 96 60.5 175t153.5 79t153.5 -79t60.5 -175t-60.5 -174.5t-153.5 -78.5t-153.5 78.5t-60.5 174.5zM326 543h-38l-152 94q-35 21 -35 44q0 33 30 33q27 0 53 -28z" />
    <glyph glyph-name="oacute" unicode="&#xf3;" 
d="M250 456q-64 0 -93 -60t-29 -158t29 -157.5t93 -59.5t93 59.5t29 157.5t-29 158t-93 60zM36 238q0 96 60.5 175t153.5 79t153.5 -79t60.5 -175t-60.5 -174.5t-153.5 -78.5t-153.5 78.5t-60.5 174.5zM212 543h-38l142 143q26 28 53 28q30 0 30 -33q0 -23 -35 -44z" />
    <glyph glyph-name="ocircumflex" unicode="&#xf4;" 
d="M250 456q-64 0 -93 -60t-29 -158t29 -157.5t93 -59.5t93 59.5t29 157.5t-29 158t-93 60zM36 238q0 96 60.5 175t153.5 79t153.5 -79t60.5 -175t-60.5 -174.5t-153.5 -78.5t-153.5 78.5t-60.5 174.5zM220 709h62l124 -166h-33l-122 103l-121 -103h-35z" />
    <glyph glyph-name="otilde" unicode="&#xf5;" 
d="M250 456q-64 0 -93 -60t-29 -158t29 -157.5t93 -59.5t93 59.5t29 157.5t-29 158t-93 60zM36 238q0 96 60.5 175t153.5 79t153.5 -79t60.5 -175t-60.5 -174.5t-153.5 -78.5t-153.5 78.5t-60.5 174.5zM114 568h-29q24 101 106 101q28 0 74 -23q44 -22 65 -22q43 0 56 50h29
q-8 -48 -36 -77t-74 -29q-28 0 -72 22q-44 23 -63 23q-38 0 -56 -45z" />
    <glyph glyph-name="odieresis" unicode="&#xf6;" 
d="M250 456q-64 0 -93 -60t-29 -158t29 -157.5t93 -59.5t93 59.5t29 157.5t-29 158t-93 60zM36 238q0 96 60.5 175t153.5 79t153.5 -79t60.5 -175t-60.5 -174.5t-153.5 -78.5t-153.5 78.5t-60.5 174.5zM151 659q21 0 35 -15t14 -35t-14 -35t-35 -15t-35 15t-14 35t14 35
t35 15zM349 659q21 0 35 -15t14 -35t-14 -35t-35 -15t-35 15t-14 35t14 35t35 15z" />
    <glyph glyph-name="divide" unicode="&#xf7;" horiz-adv-x="600" 
d="M539 211h-477v55h477v-55zM300 492q25 0 40.5 -16.5t15.5 -39.5t-15.5 -39.5t-40.5 -16.5t-40.5 16.5t-15.5 39.5t15.5 39.5t40.5 16.5zM300 -15q-25 0 -40.5 16.5t-15.5 39.5t15.5 39.5t40.5 16.5t40.5 -16.5t15.5 -39.5t-15.5 -39.5t-40.5 -16.5z" />
    <glyph glyph-name="oslash" unicode="&#xf8;" 
d="M143 115l188 300q-32 41 -81 41q-64 0 -93 -60t-29 -158q0 -70 15 -123zM350 380l-190 -305q29 -54 90 -54q64 0 93 59.5t29 157.5q0 86 -22 142zM357 457l45 73h42l-60 -96q38 -37 59 -90t21 -106q0 -96 -60.5 -174.5t-153.5 -78.5q-69 0 -119 44l-50 -81h-42l66 106
q-69 77 -69 184q0 96 60.5 175t153.5 79q58 0 107 -35z" />
    <glyph glyph-name="ugrave" unicode="&#xf9;" horiz-adv-x="556" 
d="M28 446l138 46q-2 -42 -2 -61v-291q0 -45 26.5 -71t71.5 -26q43 0 76.5 27.5t52.5 61.5v201q0 50 -7 68.5t-23 18.5q-12 0 -25 -4v30l138 46q-2 -42 -2 -61v-336q0 -53 26 -53q15 0 27 4v-30l-100 -31q-23 36 -33 89q-38 -46 -79 -67.5t-95 -21.5q-57 0 -96 36t-39 106
v206q0 50 -7 68.5t-23 18.5q-12 0 -25 -4v30zM348 543h-38l-152 94q-35 21 -35 44q0 33 30 33q27 0 53 -28z" />
    <glyph glyph-name="uacute" unicode="&#xfa;" horiz-adv-x="556" 
d="M28 446l138 46q-2 -42 -2 -61v-291q0 -45 26.5 -71t71.5 -26q43 0 76.5 27.5t52.5 61.5v201q0 50 -7 68.5t-23 18.5q-12 0 -25 -4v30l138 46q-2 -42 -2 -61v-336q0 -53 26 -53q15 0 27 4v-30l-100 -31q-23 36 -33 89q-38 -46 -79 -67.5t-95 -21.5q-57 0 -96 36t-39 106
v206q0 50 -7 68.5t-23 18.5q-12 0 -25 -4v30zM234 543h-38l142 143q26 28 53 28q30 0 30 -33q0 -23 -35 -44z" />
    <glyph glyph-name="ucircumflex" unicode="&#xfb;" horiz-adv-x="556" 
d="M28 446l138 46q-2 -42 -2 -61v-291q0 -45 26.5 -71t71.5 -26q43 0 76.5 27.5t52.5 61.5v201q0 50 -7 68.5t-23 18.5q-12 0 -25 -4v30l138 46q-2 -42 -2 -61v-336q0 -53 26 -53q15 0 27 4v-30l-100 -31q-23 36 -33 89q-38 -46 -79 -67.5t-95 -21.5q-57 0 -96 36t-39 106
v206q0 50 -7 68.5t-23 18.5q-12 0 -25 -4v30zM242 709h62l124 -166h-33l-122 103l-121 -103h-35z" />
    <glyph glyph-name="udieresis" unicode="&#xfc;" horiz-adv-x="556" 
d="M28 446l138 46q-2 -42 -2 -61v-291q0 -45 26.5 -71t71.5 -26q43 0 76.5 27.5t52.5 61.5v201q0 50 -7 68.5t-23 18.5q-12 0 -25 -4v30l138 46q-2 -42 -2 -61v-336q0 -53 26 -53q15 0 27 4v-30l-100 -31q-23 36 -33 89q-38 -46 -79 -67.5t-95 -21.5q-57 0 -96 36t-39 106
v206q0 50 -7 68.5t-23 18.5q-12 0 -25 -4v30zM173 659q21 0 35 -15t14 -35t-14 -35t-35 -15t-35 15t-14 35t14 35t35 15zM371 659q21 0 35 -15t14 -35t-14 -35t-35 -15t-35 15t-14 35t14 35t35 15z" />
    <glyph glyph-name="yacute" unicode="&#xfd;" horiz-adv-x="444" 
d="M-4 454l110 38l138 -405h2l91 210q18 43 18 53q0 12 -25.5 36t-25.5 53q0 24 15.5 38.5t39.5 14.5q28 0 41.5 -20t13.5 -50q0 -54 -65 -195l-125 -271q-62 -135 -153 -135q-24 0 -40 12.5t-16 36.5q0 20 12.5 33t36.5 13q14 0 36 -10t31 -10q18 0 43 40.5t25 58.5
q0 7 -17 50l-120 327q-11 31 -24 41.5t-42 10.5v30zM184 543h-38l142 143q26 28 53 28q30 0 30 -33q0 -23 -35 -44z" />
    <glyph glyph-name="thorn" unicode="&#xfe;" 
d="M207 -169h-179v30l50 7v719q0 50 -7 68.5t-23 18.5q-12 0 -25 -4v30l136 48q-2 -42 -2 -61v-271q68 76 132 76q79 0 125 -70t46 -161q0 -124 -60 -196.5t-135 -72.5q-64 0 -108 24v-148l50 -7v-30zM159 369v-280q0 -21 32 -44t64 -23q44 0 73 29.5t40 70.5t11 91
q0 51 -11 96t-41 80.5t-76 35.5q-53 0 -92 -56z" />
    <glyph glyph-name="ydieresis" unicode="&#xff;" horiz-adv-x="444" 
d="M-4 454l110 38l138 -405h2l91 210q18 43 18 53q0 12 -25.5 36t-25.5 53q0 24 15.5 38.5t39.5 14.5q28 0 41.5 -20t13.5 -50q0 -54 -65 -195l-125 -271q-62 -135 -153 -135q-24 0 -40 12.5t-16 36.5q0 20 12.5 33t36.5 13q14 0 36 -10t31 -10q18 0 43 40.5t25 58.5
q0 7 -17 50l-120 327q-11 31 -24 41.5t-42 10.5v30zM123 659q21 0 35 -15t14 -35t-14 -35t-35 -15t-35 15t-14 35t14 35t35 15zM321 659q21 0 35 -15t14 -35t-14 -35t-35 -15t-35 15t-14 35t14 35t35 15z" />
    <glyph glyph-name="dotlessi" unicode="&#x131;" horiz-adv-x="278" 
d="M230 0h-181v30l50 7v296q0 50 -7 68.5t-23 18.5q-12 0 -25 -4v30l138 46q-2 -42 -2 -61v-394l50 -7v-30z" />
    <glyph glyph-name="Lslash" unicode="&#x141;" horiz-adv-x="556" 
d="M104 43v276l-72 -24v38l72 24v300l-60 7v36h216v-36l-60 -7v-268l148 49v-39l-148 -49v-309q37 -5 65 -5q101 0 158 41t91 136l32 -5l-49 -223q-25 9 -57 12q-20 3 -68 3h-328v36z" />
    <glyph glyph-name="lslash" unicode="&#x142;" horiz-adv-x="278" 
d="M180 388v-351l50 -7v-30h-181v30l50 7v303l-73 -44v39l73 44v210q0 50 -7 68.5t-23 18.5q-12 0 -25 -4v30l138 46q-2 -42 -2 -61v-260l71 42v-39z" />
    <glyph glyph-name="OE" unicode="&#x152;" horiz-adv-x="1000" 
d="M969 211l-54 -226q-28 10 -62 13q-21 2 -63 2h-244q-32 0 -109 -7q-66 -8 -104 -8q-128 0 -210 108.5t-82 249.5q0 151 89.5 261.5t231.5 110.5q27 0 104 -7q66 -8 109 -8h205q79 0 125 15l44 -207l-31 -6q-44 91 -97.5 126.5t-139.5 35.5q-55 0 -83 -5v-267h46
q51 0 73 21.5t37 89.5h33v-258h-33q-15 68 -37 89.5t-73 21.5h-48v-315q28 -5 83 -5q106 0 159.5 40.5t95.5 138.5zM500 191v340q0 79 -36.5 111.5t-109.5 32.5q-98 0 -152.5 -89.5t-54.5 -235.5q0 -325 207 -325q72 0 109 44t37 122z" />
    <glyph glyph-name="oe" unicode="&#x153;" horiz-adv-x="778" 
d="M740 300l-293 -73q6 -71 46 -123t107 -52q70 0 123 77l28 -20q-32 -56 -84 -90t-113 -34q-48 0 -82 21.5t-70 66.5q-66 -88 -161 -88q-81 0 -143.5 69.5t-62.5 183.5q0 106 60 180t151 74q93 0 164 -95q26 42 64.5 68.5t84.5 26.5q81 0 125.5 -54t55.5 -138zM244 21
q64 0 90.5 63.5t26.5 195.5q0 89 -27 132.5t-90 43.5q-117 0 -117 -218q0 -121 25.5 -169t91.5 -48zM444 264l156 40q27 7 37.5 20.5t10.5 39.5q0 43 -24.5 67.5t-59.5 24.5q-59 0 -90.5 -48t-31.5 -107q0 -25 2 -37z" />
    <glyph glyph-name="Scaron" unicode="&#x160;" horiz-adv-x="556" 
d="M80 -3l-38 218l32 7q91 -197 224 -197q50 0 92 34t42 89q0 56 -37 94t-89.5 60t-105 45.5t-89.5 68t-37 110.5q0 81 52.5 135t133.5 54q28 0 67 -15q41 -15 45 -15q23 0 63 22l40 -203l-35 -5q-15 37 -30 64t-38 54.5t-54.5 42.5t-69.5 15q-45 0 -74.5 -28.5t-29.5 -77.5
q0 -56 37.5 -92t91 -56t107 -43t91 -70.5t37.5 -120.5q0 -80 -58.5 -141t-159.5 -61q-31 0 -72 17.5t-66 17.5q-26 0 -72 -23zM261 807l121 103h35l-125 -166h-62l-124 166h33z" />
    <glyph glyph-name="scaron" unicode="&#x161;" horiz-adv-x="389" 
d="M349 132q0 -60 -47.5 -103.5t-125.5 -43.5q-60 0 -105.5 25t-45.5 62q0 25 12.5 38.5t34.5 13.5q25 0 38 -16t15.5 -35.5t15 -35.5t37.5 -16q43 0 73.5 21t30.5 58q0 34 -23.5 59t-57.5 41.5t-68 34t-57.5 47.5t-23.5 72q0 64 47.5 101t132.5 37q42 0 64.5 -15.5
t22.5 -40.5q0 -47 -49 -47q-20 0 -33 16.5t-23.5 33.5t-25.5 17q-31 0 -50 -19t-19 -49q0 -26 17 -45.5t42.5 -30.5t55.5 -26t55.5 -31.5t42.5 -48t17 -74.5zM195 606l121 103h35l-125 -166h-62l-124 166h33z" />
    <glyph glyph-name="Ydieresis" unicode="&#x178;" horiz-adv-x="556" 
d="M384 0h-217v36l61 7v243l-187 371l-49 7v36h217v-36l-61 -7l157 -318l93 188q32 64 32 91q0 17 -13 27.5t-22.5 12.5t-33.5 6v36h203v-36q-34 -6 -52.5 -21t-34.5 -48l-153 -310v-242l60 -7v-36zM162 860q21 0 35 -15t14 -35t-14 -35t-35 -15t-35 15t-14 35t14 35t35 15z
M360 860q21 0 35 -15t14 -35t-14 -35t-35 -15t-35 15t-14 35t14 35t35 15z" />
    <glyph glyph-name="Zcaron" unicode="&#x17d;" horiz-adv-x="556" 
d="M494 666l-339 -625q28 -5 60 -5q101 0 158 41t91 136l32 -5l-49 -223q-25 9 -57 12q-20 3 -68 3h-280v28l345 631q-5 0 -24.5 2.5t-29.5 2.5q-96 0 -146 -36.5t-87 -121.5l-31 8l44 194q18 -5 46 -7q16 -1 46 -1h289v-34zM261 807l121 103h35l-125 -166h-62l-124 166h33z
" />
    <glyph glyph-name="zcaron" unicode="&#x17e;" horiz-adv-x="444" 
d="M28 0v38l279 403h-54q-44 0 -78 -12t-55 -34.5t-32.5 -41.5t-22.5 -47l-28 7l39 171q26 -4 51 -5q40 -2 59 -2h216v-28l-283 -413h65q74 0 118 37.5t78 112.5l30 -6l-41 -191q-14 4 -48 8q-25 3 -53 3h-240zM222 606l121 103h35l-125 -166h-62l-124 166h33z" />
    <glyph glyph-name="florin" unicode="&#x192;" 
d="M211 385h-86v46h93q5 44 20 94.5t39.5 102.5t63.5 86t85 34q27 0 43.5 -15.5t16.5 -41.5q0 -11 -10.5 -24t-29.5 -13q-24 0 -42 18t-26 18q-30 0 -53 -110t-23 -149h93v-48h-99q-5 -36 -13 -110.5t-17.5 -136t-25.5 -122.5q-22 -85 -74.5 -142t-111.5 -57q-26 0 -42.5 15
t-16.5 41q0 16 13 28.5t30 12.5q23 0 36 -10t19 -19.5t11 -9.5q28 0 46.5 81t35 231.5t25.5 199.5z" />
    <glyph glyph-name="circumflex" unicode="&#x2c6;" horiz-adv-x="278" 
d="M109 709h62l124 -166h-33l-122 103l-121 -103h-35z" />
    <glyph glyph-name="caron" unicode="&#x2c7;" horiz-adv-x="278" 
d="M139 606l121 103h35l-125 -166h-62l-124 166h33z" />
    <glyph glyph-name="uni02C9" unicode="&#x2c9;" horiz-adv-x="278" 
d="M295 583h-311v54h311v-54z" />
    <glyph glyph-name="breve" unicode="&#x2d8;" horiz-adv-x="278" 
d="M0 700h30q13 -49 35.5 -73t74.5 -24t74.5 24t35.5 73h30q0 -72 -35 -114.5t-105 -42.5t-105 42.5t-35 114.5z" />
    <glyph glyph-name="dotaccent" unicode="&#x2d9;" horiz-adv-x="278" 
d="M139 659q21 0 35 -15t14 -35t-14 -35t-35 -15t-35 15t-14 35t14 35t35 15z" />
    <glyph glyph-name="ring" unicode="&#x2da;" horiz-adv-x="278" 
d="M238 642q0 -42 -27 -71t-72 -29t-72 29t-27 71t27 71t72 29t72 -29t27 -71zM204 642q0 27 -17.5 46.5t-47.5 19.5t-47.5 -19.5t-17.5 -46.5t17.5 -46.5t47.5 -19.5t47.5 19.5t17.5 46.5z" />
    <glyph glyph-name="ogonek" unicode="&#x2db;" horiz-adv-x="278" 
d="M262 -132l13 -22q-35 -23 -48.5 -31t-44 -19.5t-57.5 -11.5q-38 0 -67 26t-29 64q0 23 11 42.5t33 34.5t42 25.5t51.5 19.5t48 13t43.5 10v-9q-153 -56 -153 -132q0 -25 14 -38.5t37 -13.5q44 0 106 42z" />
    <glyph glyph-name="tilde" unicode="&#x2dc;" horiz-adv-x="278" 
d="M3 568h-29q24 101 106 101q28 0 74 -23q44 -22 65 -22q43 0 56 50h29q-8 -48 -36 -77t-74 -29q-28 0 -72 22q-44 23 -63 23q-38 0 -56 -45z" />
    <glyph glyph-name="hungarumlaut" unicode="&#x2dd;" horiz-adv-x="278" 
d="M29 543h-40l127 148q13 14 22 18.5t28 4.5q29 0 29 -34q0 -9 -5 -16.5t-8 -10t-15 -10.5zM173 543h-38l142 143q26 28 53 28q30 0 30 -33q0 -23 -35 -44z" />
    <glyph glyph-name="uni03A9" unicode="&#x3a9;" horiz-adv-x="655" 
d="M623 142l-22 -142h-214l-7 17l26 58.5t32.5 76t26.5 72t22.5 87t6.5 81.5q0 149 -48 220t-120 71q-75 0 -121 -70t-46 -225q0 -64 21 -140t38 -115.5t53 -115.5l-7 -17h-213l-21 142l25 1q14 -46 28 -60t42 -14h93q-156 153 -156 326q0 144 76 231.5t190 87.5
q116 0 189 -84.5t73 -228.5q0 -69 -28.5 -138t-58 -108t-72.5 -86h98q30 0 42 12.5t26 61.5z" />
    <glyph glyph-name="uni03BC" unicode="&#x3bc;" horiz-adv-x="556" 
d="M472 431v-336q0 -53 26 -53q15 0 27 4v-30l-100 -31q-23 36 -33 89q-38 -46 -79 -67.5t-95 -21.5q-31 0 -55 10v-164h-130v30l50 7v465q0 50 -7 68.5t-23 18.5q-12 0 -25 -4v30l138 46q-2 -42 -2 -61v-291q0 -45 26.5 -71t71.5 -26q43 0 76.5 27.5t52.5 61.5v201
q0 50 -7 68.5t-23 18.5q-12 0 -25 -4v30l138 46q-2 -42 -2 -61z" />
    <glyph glyph-name="pi" unicode="&#x3c0;" horiz-adv-x="524" 
d="M474 475l24 -8q-9 -51 -33 -89q-15 -4 -63 -4q-5 -53 -5 -235q0 -93 41 -93q22 0 47 30l12 -20q-17 -33 -43 -50.5t-54 -17.5q-85 0 -85 130q0 93 10 259q-26 0 -73.5 0.5t-65.5 0.5v-18q0 -106 -13.5 -190.5t-26 -117.5t-22.5 -47q-33 -15 -59 -17l-6 17
q48 64 68.5 169.5t20.5 205.5q-30 0 -52.5 -6t-34 -13t-33.5 -24l-14 22l8 9q7 10 9 12t10 11.5t12.5 12.5t13.5 10.5t16 10.5t18.5 8t22 7.5t24 4t27.5 1.5q32 0 113.5 -1.5t129.5 -1.5q24 0 34.5 6t21.5 26z" />
    <glyph glyph-name="endash" unicode="&#x2013;" 
d="M500 212h-500v54h500v-54z" />
    <glyph glyph-name="emdash" unicode="&#x2014;" horiz-adv-x="1000" 
d="M1000 212h-1000v54h1000v-54z" />
    <glyph glyph-name="quoteleft" unicode="&#x2018;" horiz-adv-x="227" 
d="M161 715l16 -16q-1 -2 -11.5 -14t-17 -20t-17 -22.5t-16.5 -25t-11 -22.5t-5 -21q0 -7 15.5 -15.5t31.5 -25t16 -42.5q0 -18 -11 -33t-36 -15q-30 0 -47.5 23t-17.5 62q0 83 111 187z" />
    <glyph glyph-name="quoteright" unicode="&#x2019;" horiz-adv-x="227" 
d="M72 443l-18 13q70 90 70 130q0 7 -16.5 15t-33 23.5t-16.5 39.5q0 23 14 37t39 14q27 0 44 -23t17 -55q0 -84 -100 -194z" />
    <glyph glyph-name="quotesinglbase" unicode="&#x201a;" horiz-adv-x="227" 
d="M72 -157l-18 13q70 90 70 130q0 7 -16.5 15t-33 23.5t-16.5 39.5q0 23 14 37t39 14q27 0 44 -23t17 -55q0 -84 -100 -194z" />
    <glyph glyph-name="quotedblleft" unicode="&#x201c;" horiz-adv-x="389" 
d="M337 715l16 -16q-1 -2 -11.5 -14t-17 -20t-17 -22.5t-16.5 -25t-11 -22.5t-5 -21q0 -7 15.5 -15.5t31.5 -25t16 -42.5q0 -18 -11 -33t-36 -15q-30 0 -47.5 23t-17.5 62q0 83 111 187zM147 715l16 -16q-1 -2 -11.5 -14t-17 -20t-17 -22.5t-16.5 -25t-11 -22.5t-5 -21
q0 -7 15.5 -15.5t31.5 -25t16 -42.5q0 -18 -11 -33t-36 -15q-30 0 -47.5 23t-17.5 62q0 83 111 187z" />
    <glyph glyph-name="quotedblright" unicode="&#x201d;" horiz-adv-x="389" 
d="M59 443l-18 13q70 90 70 130q0 7 -16.5 15t-33 23.5t-16.5 39.5q0 23 14 37t39 14q27 0 44 -23t17 -55q0 -84 -100 -194zM249 443l-18 13q70 90 70 130q0 7 -16.5 15t-33 23.5t-16.5 39.5q0 23 14 37t39 14q27 0 44 -23t17 -55q0 -84 -100 -194z" />
    <glyph glyph-name="quotedblbase" unicode="&#x201e;" horiz-adv-x="389" 
d="M59 -157l-18 13q70 90 70 130q0 7 -16.5 15t-33 23.5t-16.5 39.5q0 23 14 37t39 14q27 0 44 -23t17 -55q0 -84 -100 -194zM249 -157l-18 13q70 90 70 130q0 7 -16.5 15t-33 23.5t-16.5 39.5q0 23 14 37t39 14q27 0 44 -23t17 -55q0 -84 -100 -194z" />
    <glyph glyph-name="dagger" unicode="&#x2020;" 
d="M260 -110h-20q0 285 -43 403q20 24 29.5 58.5t11 58.5t1.5 67q-36 0 -80 -17t-61 -17q-41 0 -41 43t41 43q17 0 61 -17t80 -17q0 46 -18 98t-18 73q0 22 12.5 35.5t34.5 13.5t34.5 -13.5t12.5 -35.5q0 -21 -18 -73t-18 -98q36 0 80 17t61 17q41 0 41 -43t-41 -43
q-17 0 -61 17t-80 17q0 -43 1.5 -67t11 -58.5t29.5 -58.5q-43 -118 -43 -403z" />
    <glyph glyph-name="daggerdbl" unicode="&#x2021;" 
d="M250 -114q-22 0 -34.5 13.5t-12.5 34.5q0 11 18 66t19 106q-37 0 -81 -17t-61 -17q-41 0 -41 43t41 43q17 0 61 -17t81 -17q-1 40 -2.5 64t-11.5 57.5t-28 56.5q18 23 28 56t11.5 56.5t2.5 62.5q-37 0 -81 -17t-61 -17q-41 0 -41 43t41 43q17 0 61 -17t81 -17
q-1 51 -19 106t-18 66q0 21 12.5 34.5t34.5 13.5t34.5 -13.5t12.5 -34.5q0 -11 -18 -66t-19 -106q37 0 81 17t61 17q41 0 41 -43t-41 -43q-17 0 -61 17t-81 17q1 -39 2.5 -62.5t11.5 -56.5t28 -56q-18 -23 -28 -56.5t-11.5 -57.5t-2.5 -64q37 0 81 17t61 17q41 0 41 -43
t-41 -43q-17 0 -61 17t-81 17q1 -51 19 -106t18 -66q0 -21 -12.5 -34.5t-34.5 -13.5z" />
    <glyph glyph-name="bullet" unicode="&#x2022;" 
d="M425 350q0 -72 -49.5 -123.5t-125.5 -51.5t-125.5 51.5t-49.5 123.5t49.5 123.5t125.5 51.5t125.5 -51.5t49.5 -123.5z" />
    <glyph glyph-name="ellipsis" unicode="&#x2026;" horiz-adv-x="1000" 
d="M771 50q0 28 17.5 46.5t44.5 18.5t44.5 -18.5t17.5 -46.5t-17.5 -46.5t-44.5 -18.5t-44.5 18.5t-17.5 46.5zM438 50q0 28 17.5 46.5t44.5 18.5t44.5 -18.5t17.5 -46.5t-17.5 -46.5t-44.5 -18.5t-44.5 18.5t-17.5 46.5zM105 50q0 28 17.5 46.5t44.5 18.5t44.5 -18.5
t17.5 -46.5t-17.5 -46.5t-44.5 -18.5t-44.5 18.5t-17.5 46.5z" />
    <glyph glyph-name="perthousand" unicode="&#x2030;" horiz-adv-x="1000" 
d="M88 497q0 -102 17.5 -147.5t55.5 -45.5t55.5 45.5t17.5 147.5t-17.5 147.5t-55.5 45.5t-55.5 -45.5t-17.5 -147.5zM121 -15l415 730h48l-415 -730h-48zM471 203q0 -102 17.5 -147.5t55.5 -45.5t55.5 45.5t17.5 147.5t-17.5 147.5t-55.5 45.5t-55.5 -45.5t-17.5 -147.5z
M161 279q-39 0 -68.5 21.5t-45 55.5t-22.5 69.5t-7 71.5t7 71.5t22.5 69.5t45 55.5t68.5 21.5t68.5 -21.5t45 -55.5t22.5 -69.5t7 -71.5t-7 -71.5t-22.5 -69.5t-45 -55.5t-68.5 -21.5zM544 -15q-39 0 -68.5 21.5t-45 55.5t-22.5 69.5t-7 71.5t7 71.5t22.5 69.5t45 55.5
t68.5 21.5t68.5 -21.5t45 -55.5t22.5 -69.5t7 -71.5t-7 -71.5t-22.5 -69.5t-45 -55.5t-68.5 -21.5zM804 203q0 -102 17.5 -147.5t55.5 -45.5t55.5 45.5t17.5 147.5t-17.5 147.5t-55.5 45.5t-55.5 -45.5t-17.5 -147.5zM877 -15q-39 0 -68.5 21.5t-45 55.5t-22.5 69.5t-7 71.5
t7 71.5t22.5 69.5t45 55.5t68.5 21.5t68.5 -21.5t45 -55.5t22.5 -69.5t7 -71.5t-7 -71.5t-22.5 -69.5t-45 -55.5t-68.5 -21.5z" />
    <glyph glyph-name="guilsinglleft" unicode="&#x2039;" horiz-adv-x="278" 
d="M237 429q12 0 12 -10q0 -12 -54.5 -85t-74.5 -96q20 -23 74.5 -96t54.5 -85q0 -10 -12 -10q-4 0 -18 14q-35 35 -155 143q-5 4 -11 9t-10 8.5t-7.5 6.5t-5.5 5.5t-2 4.5q0 3 4.5 7t15 13t16.5 14q120 108 155 143q14 14 18 14z" />
    <glyph glyph-name="guilsinglright" unicode="&#x203a;" horiz-adv-x="278" 
d="M41 47q-12 0 -12 10q0 12 54.5 85t74.5 96q-20 23 -74.5 96t-54.5 85q0 10 12 10q4 0 18 -14q35 -35 155 -143q5 -4 11 -9t10 -8.5t7.5 -6.5t5.5 -5.5t2 -4.5q0 -3 -4.5 -7t-15 -13t-16.5 -14q-120 -108 -155 -143q-14 -14 -18 -14z" />
    <glyph glyph-name="fraction" unicode="&#x2044;" horiz-adv-x="167" 
d="M283 715h51l-450 -730h-51z" />
    <glyph glyph-name="Euro" unicode="&#x20ac;" 
d="M349 297h-170q11 -127 49 -190t85 -63q39 0 73 39.5t54 104.5l33 -11q-23 -87 -69 -139.5t-116 -52.5q-92 0 -147.5 89.5t-61.5 222.5h-75v42h74q0 33 5 73h-79v42h85q21 114 73 187.5t124 73.5q33 0 58 -11q28 -12 39 -12q21 0 49 23l34 -212l-27 -8q-15 39 -27 64.5
t-31.5 57t-44 48t-52.5 16.5q-43 0 -71.5 -59t-35.5 -168h172v-42h-174v-21q0 -35 1 -52h173v-42z" />
    <glyph glyph-name="afii61289" unicode="&#x2113;" horiz-adv-x="386" 
d="M350 112l20 -16q-54 -109 -155 -109q-66 0 -97 39q-31 44 -31 146v88l-53 -42l-13 24l66 55v132q0 124 9.5 177t39.5 90q36 50 83 50q41 0 63.5 -37.5t22.5 -95.5q0 -149 -136 -298v-101q0 -96 19.5 -133t61.5 -37q55 0 100 68zM169 487v-125q39 50 63 118t24 132
q0 104 -42 104q-25 0 -35 -49.5t-10 -179.5z" />
    <glyph glyph-name="trademark" unicode="&#x2122;" horiz-adv-x="990" 
d="M36 700h339v-88h-19q-6 22 -11.5 34.5t-20 23.5t-36.5 11h-51v-322q0 -27 8 -34t42 -10v-19h-163v19q35 3 42.5 10t7.5 34v322h-51q-22 0 -36.5 -11t-20 -23.5t-11.5 -34.5h-19v88zM668 293l-152 311h-2v-225q0 -33 11 -46.5t41 -17.5v-19h-129v19q31 4 41.5 17.5
t10.5 46.5v252q0 21 -23 35.5t-46 14.5v19h115l157 -315l164 315h98v-19q-32 -1 -44.5 -15t-12.5 -42v-269q0 -24 8 -31t42 -9v-19h-163v19q34 2 42 9t8 31v252h-2l-155 -314h-9z" />
    <glyph glyph-name="Omega" unicode="&#x2126;" horiz-adv-x="655" 
d="M623 142l-22 -142h-214l-7 17l26 58.5t32.5 76t26.5 72t22.5 87t6.5 81.5q0 149 -48 220t-120 71q-75 0 -121 -70t-46 -225q0 -64 21 -140t38 -115.5t53 -115.5l-7 -17h-213l-21 142l25 1q14 -46 28 -60t42 -14h93q-156 153 -156 326q0 144 76 231.5t190 87.5
q116 0 189 -84.5t73 -228.5q0 -69 -28.5 -138t-58 -108t-72.5 -86h98q30 0 42 12.5t26 61.5z" />
    <glyph glyph-name="estimated" unicode="&#x212e;" horiz-adv-x="879" 
d="M844 339h-656q-5 0 -5 -4v-198q0 -13 8 -23q105 -108 248 -108q77 0 144.5 32.5t116.5 88.5h59q-56 -65 -140.5 -103t-180.5 -38q-167 0 -285.5 106t-118.5 257t118.5 257.5t285.5 106.5q169 0 287.5 -106.5t118.5 -257.5v-10zM695 365v200q0 14 -10 23
q-104 104 -246 104t-246 -107q-10 -9 -10 -25v-195q0 -6 5 -6h503q4 0 4 6z" />
    <glyph glyph-name="partialdiff" unicode="&#x2202;" horiz-adv-x="490" 
d="M244 430h1q77 0 119 -65q8 63 9 110q3 87 -24 158q-15 39 -47 66.5t-75 27.5q-63 0 -124 -53q-12 -1 -23 22.5t-5 39.5q58 40 128 40q123 0 192 -144q46 -100 46 -237q0 -148 -44 -253q-65 -155 -189 -155q-76 0 -122 53t-46 147q0 95 55 167q26 34 66 55t83 21zM263 391
h-1q-59 0 -97 -59q-42 -75 -42 -194q0 -51 22.5 -86t61.5 -35q60 0 104 108q31 76 46 197q-10 25 -36 47t-58 22z" />
    <glyph glyph-name="Delta" unicode="&#x2206;" horiz-adv-x="583" 
d="M550 0h-518v25l237 678l36 11l245 -689v-25zM446 47l-183 526l-180 -526h363z" />
    <glyph glyph-name="product" unicode="&#x220f;" horiz-adv-x="633" 
d="M607 704v-27q-59 -4 -72 -15.5t-13 -57.5v-585q0 -51 13.5 -64.5t69.5 -17.5v-26h-241v26q52 5 63 17t11 64v620q0 22 -6 27.5t-28 5.5h-178q-21 0 -26.5 -5t-5.5 -25v-623q0 -51 9 -63.5t59 -17.5v-26h-235v26q56 5 69.5 17.5t13.5 63.5v586q0 45 -13.5 57t-72.5 16v27
h583z" />
    <glyph glyph-name="summation" unicode="&#x2211;" horiz-adv-x="509" 
d="M487 91l-40 -183h-420v23l209 350l-205 399v24h417q0 -8 4.5 -65.5t6.5 -91.5l-27 -5q-11 63 -29 95q-10 20 -29 27t-70 7h-168l174 -330l-210 -357h230q62 0 82.5 17t48.5 97z" />
    <glyph glyph-name="minus" unicode="&#x2212;" horiz-adv-x="600" 
d="M62 211v55h477v-55h-477z" />
    <glyph glyph-name="uni2215" unicode="&#x2215;" horiz-adv-x="167" 
d="M283 715h51l-450 -730h-51z" />
    <glyph glyph-name="uni2219" unicode="&#x2219;" horiz-adv-x="250" 
d="M125 175q-28 0 -45.5 18.5t-17.5 44.5t17.5 44.5t45.5 18.5t45.5 -18.5t17.5 -44.5t-17.5 -44.5t-45.5 -18.5z" />
    <glyph glyph-name="radical" unicode="&#x221a;" horiz-adv-x="516" 
d="M500 898l-158 -1053l-19 -9l-201 554l-81 -38l-11 33l149 66l151 -434h2l129 890z" />
    <glyph glyph-name="infinity" unicode="&#x221e;" horiz-adv-x="717" 
d="M672 293v-2q0 -69 -43 -111t-102 -42q-43 0 -81.5 24.5t-85.5 82.5q-45 -53 -83.5 -80t-89.5 -27q-59 0 -100.5 42.5t-41.5 107.5q0 66 42 109t106 43q48 0 88 -27.5t81 -78.5l14 16q14 15 16.5 17t15 15.5t17.5 16t17.5 12.5t20.5 12.5t20.5 8t24.5 7t25 1.5
q61 0 100 -41t39 -106zM193 191h2q10 0 20.5 3t18.5 5.5t19 10.5t16 11.5t16.5 15.5t14.5 15t16 17.5t14 15.5q-21 27 -31.5 39.5t-29.5 30.5t-38 25.5t-42 7.5q-41 0 -65 -29t-24 -73q0 -40 26.5 -67.5t66.5 -27.5zM527 388h-1q-17 0 -33 -6t-32.5 -20t-25 -21.5t-26 -28
t-19.5 -22.5q48 -56 76.5 -77.5t63.5 -21.5q39 0 62.5 29.5t23.5 66.5q0 46 -24.5 73.5t-64.5 27.5z" />
    <glyph glyph-name="integral" unicode="&#x222b;" horiz-adv-x="360" 
d="M153 10l-19 419q-19 421 150 421q21 0 39.5 -12.5t19.5 -34.5q0 -21 -13 -32t-32 -11q-17 0 -28.5 22.5t-21.5 22.5q-46 0 -39 -164l18 -384q21 -452 -151 -452q-26 0 -42.5 14t-16.5 33q-1 20 14 33.5t36 13.5q15 0 27 -24.5t22 -24.5q21 0 31 43t6 117z" />
    <glyph glyph-name="approxequal" unicode="&#x2248;" horiz-adv-x="496" 
d="M422 432l36 -31q-44 -94 -119 -94q-40 0 -101 38q-53 32 -80 32q-28 0 -47 -18t-38 -51l-37 29q20 43 54 68.5t74 25.5q10 0 21 -2t18 -4t17.5 -7.5t14.5 -7.5t14.5 -8t11.5 -7q3 -2 11 -7t11 -6.5l10 -5l10 -5t8.5 -4t9.5 -3t9.5 -1.5t10.5 -1q25 0 43 17t38 53z
M422 268l36 -30q-43 -94 -119 -94q-41 0 -101 37q-53 33 -80 33q-20 0 -36.5 -11.5t-25.5 -23.5t-23 -35l-37 30q20 43 53.5 68t73.5 25q13 0 25 -2t23.5 -7t17.5 -7.5t18 -10t14 -8.5q3 -2 13.5 -8l14 -8t12 -6.5t13.5 -6t12.5 -3t14.5 -1.5q25 0 42.5 16.5t38.5 52.5z" />
    <glyph glyph-name="notequal" unicode="&#x2260;" horiz-adv-x="496" 
d="M358 492l-37 -85h129v-57h-150l-56 -130h206v-56h-228l-45 -104l-44 18l38 86h-126v56h148l56 130h-204v57h224l46 103z" />
    <glyph glyph-name="lessequal" unicode="&#x2264;" horiz-adv-x="496" 
d="M448 106l-398 212v59l398 211v-67l-342 -172v-2l342 -174v-67zM451 10h-405v58h405v-58z" />
    <glyph glyph-name="greaterequal" unicode="&#x2265;" horiz-adv-x="496" 
d="M51 588l399 -211v-59l-399 -212v67l342 173v3l-342 172v67zM451 10h-405v58h405v-58z" />
    <glyph glyph-name="lozenge" unicode="&#x25ca;" horiz-adv-x="521" 
d="M473 341l-179 -407h-68l-179 407l180 409h67zM411 341l-149 347h-3l-150 -346l151 -348h2z" />
    </font>
</defs>
</svg>
